<svg xmlns="http://www.w3.org/2000/svg" xmlns:xlink="http://www.w3.org/1999/xlink" width="0" height="0" style="position:absolute">

<symbol id="icon-fb" viewBox="0 0 69.097461 68.498931">
        <path d="M22.05 66.117C7.923 60.307-.11 48.447 0 33.567c.073-9.434 3.256-17.23 9.633-23.587C17.517 2.122 22.743 0 34.228 0c8.146 0 10.284.37 15 2.594 18.297 8.63 25.335 31.068 15.257 48.64-3.447 6.01-11.423 12.81-17.843 15.212-7.62 2.852-17.17 2.724-24.592-.33zM39.228 45v-8.5h3c2.89 0 3-.167 3-4.5s-.11-4.5-3-4.5c-2.277 0-3-.456-3-1.893 0-2.075 1.854-3.107 5.582-3.107 2.155 0 2.418-.436 2.418-4v-4H41.65c-4.83 0-5.967.39-8.5 2.923-2.14 2.14-2.922 3.88-2.922 6.5 0 3.432-.144 3.577-3.557 3.577h-3.556l.308 4.25c.29 3.99.508 4.27 3.558 4.563l3.25.314V53.5h9z"/>
</symbol>

<symbol id="icon-inst" viewBox="0 0 68.967796 69.093048">
        <path d="M22.388 66.782c-12.69-5.22-19.75-14.05-21.96-27.46C-2.876 19.255 13.364.154 33.86 0c7.336-.054 10.645.677 16.655 3.68 6.187 3.088 12.33 9.47 15.673 16.28 2.38 4.844 2.782 6.89 2.782 14.162 0 9.898-2.614 16.8-9.067 23.943C50.7 68.253 34.89 71.925 22.39 66.782zm30.08-13.635c1.212-.764 1.56-4.11 1.816-17.426.206-10.683-.07-17.2-.785-18.536-1.05-1.96-1.96-2.06-18.868-2.06-12.484 0-18.122.358-18.965 1.2-.84.84-1.2 6.335-1.2 18.3 0 11.968.36 17.462 1.2 18.3 1.47 1.472 34.505 1.672 36.8.224zm-32.9-4.4c-.757-.913-1.08-4.276-.894-9.267.245-6.527.586-7.89 2.044-8.168 1.43-.273 1.75.395 1.75 3.662 0 4.996 3.664 9.688 8.64 11.06 7.514 2.076 15.36-3.94 15.36-11.778 0-2.15.48-3.132 1.537-3.132 1.294 0 1.492 1.47 1.25 9.25l-.287 9.25-14.106.277c-11.27.223-14.344-.01-15.293-1.153zm11.13-7.292c-2.158-.868-4.32-6.126-3.637-8.845 2.077-8.267 14.41-6.572 14.41 1.98 0 5.245-5.728 8.895-10.77 6.865zM41.88 25.76c-.315-.82-.424-2.535-.243-3.813.27-1.925.927-2.323 3.828-2.323 3.333 0 3.5.167 3.5 3.5 0 3.22-.26 3.526-3.257 3.814-2.183.21-3.444-.177-3.828-1.177z"/>
</symbol>

<symbol id="icon-myW" viewBox="0 0 68.480001 69.145459">
        <path d="M21.786 66.86c-9.49-3.984-15.64-10.256-19.548-19.93-3.373-8.35-2.894-19.635 1.17-27.574 11.008-21.508 38.49-25.95 55.55-8.98 6.762 6.725 9.486 13.55 9.52 23.854.027 7.64-.31 9.207-3.257 15.197-3.635 7.392-9.13 12.87-16.82 16.77-7.214 3.66-18.793 3.948-26.613.664zm9.972-9.893c1.49-1.19 1.676-7.373.25-8.255-1.675-1.035-1.12-3.365 1.083-4.544 1.65-.882 2.463-.773 3.896.524 1.644 1.487 1.676 1.908.347 4.572-1.504 3.015-1.012 6.818 1.06 8.183 1.986 1.308 6.91.81 8.787-.89 2.212-2.003 2.348-5.157.343-8.02-1.39-1.984-1.23-2.35 2.503-5.722 2.193-1.982 4.66-3.603 5.484-3.603.824 0 1.498-.675 1.498-1.5 0-1.18-1.39-1.5-6.5-1.5-5.112 0-6.5.32-6.5 1.5 0 .825.744 1.5 1.655 1.5 1.488 0 1.472.202-.155 2-2.054 2.27-3.583 2.517-5.25.85-.864-.864-.763-1.89.41-4.16 1.418-2.742 1.41-3.32-.09-6.463-1.542-3.237-1.536-3.534.1-4.73 1.438-1.05 2.18-.99 4.236.36 2.05 1.343 2.19 1.69.793 1.96-.934.18-1.7 1.195-1.7 2.255 0 1.688.743 1.926 6 1.926 5.334 0 6-.22 6-2 0-1.26-.666-2-1.803-2-.992 0-3.25-1.49-5.016-3.313-3.132-3.23-3.174-3.39-1.673-6.4 2.9-5.814-2.168-11.128-8.054-8.447-2.945 1.344-4.105 5.433-2.523 8.903 1 2.196.895 2.88-.687 4.462-1.825 1.824-1.91 1.823-3.593-.038-1.428-1.578-1.525-2.345-.56-4.46 1.654-3.63.442-7.242-2.893-8.623-6.282-2.603-11.336 3.125-7.956 9.015 1.5 2.612 1.443 2.816-1.64 5.804-1.758 1.704-3.962 3.097-4.898 3.097-1.036 0-1.702.784-1.702 2 0 1.78.666 2 6 2 5.333 0 6-.22 6-2 0-1.1-.547-2-1.215-2-.79 0-.655-.56.39-1.602 1.022-1.024 2.365-1.36 3.713-.933 2.206.7 2.832 2.972 1.112 4.035-1.59.983-1.16 7.123.602 8.585 1.45 1.204 1.39 1.503-.642 3.15-2.14 1.732-2.337 1.735-4.18.067-1.095-.992-1.467-1.906-.857-2.11.594-.197 1.08-1.22 1.08-2.275 0-1.677-.755-1.918-6-1.918-4.71 0-6 .327-6 1.524 0 .84 1.01 1.934 2.25 2.435 1.236.5 3.59 2.013 5.227 3.362 2.636 2.172 2.846 2.725 1.823 4.816-1.867 3.815-2.088 5.254-1.102 7.17 1.77 3.435 7.143 4.173 10.55 1.447zm-7.256-2.764c-.762-1.233.33-4.99 1.45-4.99 1.503 0 3.284 2.962 2.7 4.487-.66 1.714-3.21 2.024-4.15.503zm15.867-.49c-.71-1.844.22-4.5 1.57-4.5 1.363 0 3.3 3.81 2.554 5.02-.922 1.49-3.478 1.168-4.126-.52zM32.39 36.77c-.892-2.323.007-5.01 1.792-5.353 2.125-.41 3.396 3.4 1.784 5.343-1.533 1.847-2.87 1.85-3.576.01zm-7.42-18.622c-.824-1.543-.792-2.44.13-3.55 1.073-1.293 1.42-1.3 2.672-.047.884.885 1.18 2.255.77 3.55-.85 2.675-2.156 2.693-3.57.05zm16.236.864c-1.637-1.637-1.512-4.466.226-5.133 2.28-.877 3.92 1.813 2.608 4.267-1.296 2.42-1.282 2.417-2.834.864z"/>
</symbol>

<symbol id="icon-vk" viewBox="0 0 69.280024 69.735778">
        <path d="M29.718 69.424C18.693 68.03 7.676 59.632 2.618 48.77.362 43.923-.04 41.72.004 34.536.054 27.073.436 25.3 3.144 20 14.768-2.758 44.13-6.92 60.96 11.796c6.244 6.946 8.72 14.196 8.27 24.24-.95 21.283-18.43 36.057-39.51 33.388zm8.845-24.89c.575-1.65 1.28-3 1.566-3 .284 0 2.056 1.35 3.935 3 2.577 2.264 4.4 3 7.413 3 5.558 0 6.006-2.07 1.522-7.033-3.955-4.375-3.945-4.504.84-10.91 3.774-5.053 3.394-6.054-2.294-6.054-4.793 0-4.9.07-7.308 4.747-1.344 2.612-3.204 4.895-4.135 5.074-1.426.274-1.692-.55-1.692-5.248 0-6.02-.174-6.16-7-5.584-3.61.305-4.212.94-2.507 2.645 2.616 2.616 1.36 10.628-1.4 8.923-.62-.384-2.254-2.917-3.628-5.628-2.362-4.662-2.713-4.93-6.48-4.93-4.59 0-4.753.557-1.858 6.29 3.92 7.767 9.078 13.9 13.303 15.82 6.045 2.744 8.473 2.467 9.72-1.11z"/>
</symbol>
</svg>