<?xml version="1.0" encoding="UTF-8" standalone="no"?>
<!-- Created with Inkscape (http://www.inkscape.org/) -->

<svg
   xmlns:dc="http://purl.org/dc/elements/1.1/"
   xmlns:cc="http://creativecommons.org/ns#"
   xmlns:rdf="http://www.w3.org/1999/02/22-rdf-syntax-ns#"
   xmlns:svg="http://www.w3.org/2000/svg"
   xmlns="http://www.w3.org/2000/svg"
   xmlns:sodipodi="http://sodipodi.sourceforge.net/DTD/sodipodi-0.dtd"
   xmlns:inkscape="http://www.inkscape.org/namespaces/inkscape"
   width="177.8947mm"
   height="34.807522mm"
   viewBox="0 0 630.33555 123.33374"
   id="svg4183"
   version="1.1"
   inkscape:version="0.91 r13725"
   sodipodi:docname="readmore_new.svg">
  <defs
     id="defs4185" />
  <sodipodi:namedview
     id="base"
     pagecolor="#ffffff"
     bordercolor="#666666"
     borderopacity="1.0"
     inkscape:pageopacity="0.0"
     inkscape:pageshadow="2"
     inkscape:zoom="0.35"
     inkscape:cx="88.040048"
     inkscape:cy="-421.00448"
     inkscape:document-units="px"
     inkscape:current-layer="layer1"
     showgrid="false"
     fit-margin-top="0"
     fit-margin-left="0"
     fit-margin-right="0"
     fit-margin-bottom="0"
     inkscape:window-width="1366"
     inkscape:window-height="706"
     inkscape:window-x="-8"
     inkscape:window-y="-8"
     inkscape:window-maximized="1" />
  <metadata
     id="metadata4188">
    <rdf:RDF>
      <cc:Work
         rdf:about="">
        <dc:format>image/svg+xml</dc:format>
        <dc:type
           rdf:resource="http://purl.org/dc/dcmitype/StillImage" />
        <dc:title></dc:title>
      </cc:Work>
    </rdf:RDF>
  </metadata>
  <g
     inkscape:label="Layer 1"
     inkscape:groupmode="layer"
     id="layer1"
     transform="translate(227.32576,11.976021)">
    <path
       style="fill:#363636"
       d="m 33.139741,110.92929 c -4.4661,-0.9902 -10.5961,-7.732 -12.1043,-13.312404 -0.8231,-3.0453 -0.8201,-5.4126 0.011,-9.0274 0.6198,-2.6949 0.9508,-5.0759 0.7355,-5.2911 -0.2152,-0.2153 -1.7503,0.7521 -3.4113,2.1497 -1.661,1.3976 -3.6175,2.16374 -4.0106,2.5411 l -2.67,2.5632 c -1.3136,2.0048 -8.4982,6.2783 -11.55059996,6.8704 l -1.59390004,0.7942 c -0.6016,0.3835 -2.7197,0.2483 -4.7069,-0.3004 -4.9678,-1.3717 -8.0152,-5.8164 -7.5235,-10.9732 0.2075,-2.1748 -0.1742,-4.31741 -0.3993,-3.9542 l -0.7764,1.2528 c -0.6177,0.9968 -10.2674,8.3298 -14.3408,9.9967 l -3.5,2.6952 c -0.9126,1.0681 -2.5592,2.08 -3.6592,2.2487 l -2.51,0.977304 c -0.4318,0.16815 -1.6889,0.9666 -3.1298,1.3283 -2.1535,0.5404 -3.3273,-0.036 -6.5945,-3.238604 -4.921,-4.8235 -5.9492,-9.1773 -3.7188,-15.7467 0.8782,-2.5869 1.4326,-4.867497 1.2319,-5.068197 -0.2007,-0.2007 -1.6955,0.7865 -3.3218,2.193697 -1.6264,1.4072 -6.107,4.5948 -9.957,7.0836 -3.85,2.4888 -7.15,4.9194 -7.3333,5.4012 -0.1834,0.4818 -1.0107,0.52089 -1.6276,0.876 l -2.4781,1.4265 c -1.5335,1.8477 -5.9082,0.4295 -9.0757,-2.9421 -1.7876,-1.9028 -2.1398,-3.1451 -1.6854,-5.9449 0.3159,-1.9467 0.3276,-3.5395 0.026,-3.5395 -0.3016,0 -2.6358,1.7079 -5.1872,3.7954 -7.1242,5.829 -14.595901,8.97859 -16.630601,10.2046 l -2.5269,1.5226 c -2.4786,0.73342 -3.1351,1.3784 -8.7735,-1.1691 -4.7656,-2.1531 -9.4608,-8.9999 -8.9856,-13.1035 0.2134,-1.8437 -0.078,-3.2463 -0.6729,-3.2416 -0.5771,0 -4.0689,2.8764 -7.7596,6.3815 -4.3124,4.0956 -9.615,7.8315 -14.838,10.4541 -18.9513,13.526754 -23.223,-14.64504 -14.1333,-26.843997 8.2525,-10.7896 8.7662,-12.3869 6.2685,-19.4933 -1.1187,-3.183 -2.2415,-5.9947 -2.4951,-6.2483 -0.4494,-0.4494 -7.9609,3.1993 -20.0917,9.7595 -16.8497,9.1121 -22.1666,12.6315 -31.1329,20.6073 -8.6011,7.650997 -11.8788,13.625097 -10.9986,20.046697 0.54,3.9398 -0.5602,6.469804 -2.1305,4.8995 -1.4651,-1.4652 -0.486,-11.2311 1.5111,-15.0714 3.7275,-7.167997 17.128,-19.022797 28.6943,-25.384697 1.6811,-0.9246 4.8566,-2.8231 7.0566,-4.2188 2.2,-1.3957 8.725,-4.8867 14.5,-7.7577 13.0056,-6.4658 12.8575,-6.3467 16.9239,-13.6102 4.2577,-7.6051 11.5418,-16.0646 15.1024,-17.5395 4.2356,-1.7544 8.22,-0.9296 8.6275,1.786 0.3282,2.1877 -4.3736,9.71982 -5.6603,10.2249 -0.3792,0.14887 0.6994,-0.53598 -1.7074,1.66402 -2.4068,2.2 -8.1126,6.33598 -8.5126,6.33598 -1.0978,0 -3.7801,4.4379 -4.2935,7.1036 -0.2492,1.2939 0.4565,4.7835 1.5681,7.7546 1.7075,4.5638 1.8416,5.9459 0.864,8.9079 -1.0986,3.329 -5.1834,10.0915 -6.7724,11.212 -0.9692,0.6835 -6.3543,9.742597 -7.9173,13.318997 -2.8653,6.556 -0.1369,13.7029 5.231,13.7029 3.4747,0 13.6993,-5.581 20.0466,-10.9422 3.3,-2.7873 7.9042,-6.4964 10.2317,-8.242497 2.3274,-1.746 4.6962,-4.5562 5.264,-6.2449 0.5677,-1.6887 2.4259,-4.6454 4.1291,-6.5704 1.7033,-1.925 4.0595,-4.6251 5.236,-6.0001 2.497,-2.9184 10.7408,-9.0292 15.3395,-11.3705 1.760201,-0.8962 4.807301,-1.6294 6.771401,-1.6294 6.7338,0 7.0706,6.7186 0.6911,13.7843 -1.4646,1.6221 -7.460701,5.5028 -13.324701,8.6238 -11.6629,6.2074 -12.2463,6.6952 -13.2645,11.091897 -1.6628,7.1794 -1.7366,8.6923 -0.5626,11.5267 2.427,5.8591 9.2156,5.0043 19.989,-2.517 3.575001,-2.4958 8.613601,-5.9054 11.196901,-7.5769 2.623,-1.6971 5.9837,-5.112897 7.6113,-7.735897 4.1407,-6.6733 15.0652,-17.2659 21.3149,-20.6674 6.5677,-3.5746 14.5773,-5.5544 17.739,-4.3848 2.6811,0.9918 5.5528,4.2006 7.1761,8.0182 l 1.1323,2.663 4.1636,-1.8641 c 6.3106,-2.8254 6.8884,-0.8308 1.3848,4.7807 -5.3126,6.08443 -10.9786,12.46809 -14.109,18.801397 -3.2676,6.6732 -4.2927,14.1842 -2.2808,16.71 1.2937,1.6242 1.7218,1.6407 5.784,0.2237 2.4128,-0.8417 4.6374,-2.33016 5.3869,-2.8388 l 6,-4.0718 c 6.7112,-4.55441 9.6313,-6.0097 21.8929,-18.037297 5.99120004,-5.8768 12.5162,-11.7048 14.5,-12.9511 4.439,-2.7885 14.4247,-6.5786 17.3327,-6.5786 3.0364,0 8.7149,4.0741 9.4082,6.75 0.3207,1.2375 0.7604,2.25 0.9772,2.25 0.567,0 7.481,-7.7403 10.1799,-11.3965 1.2601,-1.7069 6.2101,-7.3684 11,-12.581 4.79,-5.2126 11.6028,-12.6376 15.1396,-16.5 10.5858,-11.5603 12.1118,-12.9528998 23.5695,-21.5088998 15.389999,-11.4925002 21.253699,-14.1112002 28.171799,-12.5815002 2.8854,0.638 5.3282,4.2359002 5.3282,7.8478002 0,3.41779999 -11.2226,16.0639798 -13.1413,17.7200998 l -5.6137,4.8454 c -2.8237,2.43723 -6.1026,5.5472 -7.7617,6.405 -1.6592,0.8578 -4.584199,3.1726 -6.499999,5.144 -1.9159,1.9714 -3.8831,3.5891 -4.3716,3.595 -0.8961,0.011 -14.3679,9.9444 -18.0989,13.3455 -1.1071,1.0091 -3.3628,2.5326 -5.0128,3.3854 -1.9823,1.52108 -3.5787,3.2345 -5.4444,4.2797 -0.4648,0 -4.7777,2.6835 -9.5842,5.9634 -9.9298,6.7759 -17.0621,15.5216 -20.6465,25.317297 -1.1634,3.1794 -2.5,6.0185 -2.9701,6.309 -0.4702,0.2906 -0.4031,1.50206 -0.8548,2.4693 l -0.9064,1.941 c -0.3923,0.84011 -0.6453,2.0421 1.0633,7.702204 2.091,6.927 13.761,5.7411 25.8431,-2.6261 6.9163,-4.789704 18.5127,-17.692604 19.6162,-21.826104 0.7309,-2.738097 2.3838,-2.980097 2.3838,-0.3491 0,3.6534 -10.0669,15.4835 -19.9386,23.430904 -3.0338,2.4424 -13.8105,7.2887 -17.5614,7.8975 -1.65,0.2677 -4.575,0.1376 -6.5,-0.2892 z M 3.414641,93.349886 c 2.8646,-1.4516 5.6621,-3.1717 6.2167,-3.8226 2.8212,-3.3105 14.8224,-11.648097 15.4063,-10.703297 0.4196,0.678997 1.1843,0.724797 2.1285,0.1277 1.2292,-0.7773 1.1753,-0.9344 -0.3244,-0.9472 -1.5566,-0.013 -1.4054,-0.586 1.126,-4.2653 1.6083,-2.3375 3.0243,-4.7 3.1467,-5.25 0.1224,-0.55 0.6664,-1.8294 1.209,-2.8431 1.4625,-2.7327 0.1469,-6.4198 -2.851,-7.9906 -3.2244,-1.6894 -9.2293,-0.6016 -12.5802,2.279 -6.1655,5.3001 -7.6881,6.8972 -10.5389,11.0547 -1.6971,2.475 -4.4198,6.0261 -6.05049996,7.8913 C -2.773359,82.399286 -6.158859,92.047386 -5.196959,94.554086 c 0.7896,2.0576 2.7028,1.7901 8.6116,-1.2042 z m -76.7749,-3.4173 c 1.1,-0.9672 4.7869,-3.3818 8.1932,-5.3656 3.4062,-1.9838 6.7818,-4.1629 7.5013,-4.8424 0.7195,-0.679497 3.5576,-2.996097 6.3069,-5.147997 8.6953,-6.806 14.4986,-12.8889 14.4986,-15.197 0,-3.1172 -4.9377,-8.3904 -7.8566,-8.3904 -5.4214,0 -10.5107,2.5407 -16.8459,8.4099 -3.5845,3.3208 -6.9244,6.9496 -7.4222,8.064 -0.4977,1.1143 -1.784,3.3761 -2.8583,5.0261 -3.9503,6.0672 -8.5182,17.879897 -7.5315,19.476497 0.7242,1.1718 3.3973,0.2682 6.0145,-2.0331 z M -109.86026,69.027489 c 0.275,-0.3908 3.4814,-2.3666 7.1254,-4.3907 11.965001,-6.6464 16.427501,-17.6741 5.934201,-14.6647 -3.382201,0.97 -11.801701,10.03333 -13.059601,11.6476 l -1.75,2.2458 c -0.6726,0.86316 -2.591,2.384 -3.6189,4.1407 l -1.8689,3.1941 3.3689,-0.7312 c 1.8529,-0.4021 3.5939,-1.0509 3.8689,-1.4416 z m 167.624101,-13.7506 c 2.6817,-1.4918 5.7483,-3.5168 6.8145,-4.5 2.0572,-1.64232 4.4728,-2.89129 6.1559,-4.3862 1.598,-1.4291 4.7062,-3.7916 6.9069,-5.25 6.5555,-4.3439 15.9407,-11.5488 16.7983,-12.8956 0.4399,-0.6908 2.2321,-1.9967 3.9829,-2.902 6.889099,-3.5625 22.342799,-18.1520998 26.201399,-24.73639981 2.2284,-3.80249999 2.4149,-4.74539999 1.385,-7.00569999 -0.8579,-1.883 -1.9482,-2.6118 -3.9074,-2.6118 -5.2884,0 -10.0748,2.7446 -18.7475,10.75 -1.9365,1.7875 -3.919799,3.25 -4.407299,3.25 -1.3342,0 -13.5926,12.8693998 -17.1171,17.9700998 -9.1898,6.65525 -15.3311,17.7739 -21.6851,24.6389 -4.7216,5.0614 -8.6049,10.391 -7.5712,10.391 0.1731,0 2.5089,-1.2205 5.1907,-2.7123 z m -200.105601,-28.7692 c 3.5649,-3.5648 6.4815,-6.9398 6.4815,-7.5 0,-0.5602 -1.35,-1.0185 -3,-1.0185 -1.65,0 -2.6094,0.62268 -3,1.0422 -0.947,1.01713 -0.8705,0.70622 -3.9748,4.35862 -1.9357,2.2775 -5.0252,8.40618 -5.0252,9.00358 0,1.7877 2.7341,-0.1014 8.5185,-5.8859 z m 458.5388,78.914301 c -5.2568,-4.7492 -6.0481,-10.750604 -2.3644,-17.932804 1.4104,-2.75 2.865,-5.225 3.2324,-5.5 1.8044,-1.3506 10.0707,-13.016997 10.0431,-14.173997 -0.017,-0.7293 -1.1497,-2.5971 -2.5162,-4.1506 l -2.4846,-2.8246 -4.1808,3.0746 c -2.2994,1.691 -4.5604,3.0746 -5.0243,3.0746 -0.4639,0 -2.0628,0.8822 -3.553,1.9605 -2.5734,1.8619 -5.9548,2.7744 -10.9595,2.9573 -1.2375,0.045 -2.25,0.6971 -2.25,1.4487 0,1.6157 -13.9352,14.459857 -14.9381,15.633497 -2.6726,3.48848 -6.8192,5.89862 -10.7965,6 -2.9012,0 -4.2849,-0.7716 -7.3627,-4.1054 -2.0846,-2.258 -4.0762,-5.408 -4.4258,-7 -0.6265,-2.8524 -2.4751,-4.0788 -2.4788,-1.6446 0,0.6875 -2.2225,2.7634 -4.9365,4.6131 -2.7139,1.8497 -5.1679,3.9714 -5.4531,4.7148 -0.8893,2.3175 -14.2122,8.4221 -18.3806,8.4221 -5.1115,0 -11.2279,-5.9007 -11.2279,-10.832 0.8179,-4.38129 7.8044,-16.048627 10.1095,-18.443697 9.9025,-10.2111 11.1911,-12.2933 10.2004,-16.4824 -0.5332,-2.2545 -1.5575,-3.8585 -2.5912,-4.0576 -4.6868,-0.9026 -16.3005,8.288 -29.47,23.3213 -2.8882,3.2969 -6.0382,6.881597 -7,7.965997 -2.664,3.0037 -10.5945,13.0688 -11.951,15.1679 -1.1455,1.7724 -1.2977,1.7422 -3.2155,-0.6395 -5.1229,-6.3621 -4.9685,-10.7082 0.6923,-19.490497 4.6331,-7.1879 10.1243,-18.454 9.2561,-18.9906 -1.2196,-0.7537 -4.0716,0.4578 -7.5306,3.1989 -8.0031,6.3421 -11.0977,9.009 -13.4456,11.5872 -9.3607,10.278797 -26.6649,26.694997 -28.1391,26.694997 -2.1326,0 -5.9153,-4.5451 -5.9153,-7.1075 0,-2.9316 4.6632,-11.9566 8.9867,-17.392497 2.1872,-2.75 5.6177,-7.3534 7.6232,-10.2298 2.0056,-2.8764 3.9263,-5.0569 4.2683,-4.8455 0.342,0.2114 0.6913,-0.5852 0.7762,-1.7702 0.085,-1.185 0.4739,-4.0087 0.8643,-6.2749 0.4577,-2.6562 0.3179,-4.3626 -0.3933,-4.8021 -1.7328,-1.071 -8.2156,2.3469 -12.8754,6.7882 -2.3375,2.2279 -4.25,3.6478 -4.25,3.1554 0,-0.4924 -1.3006,0.3508 -2.8903,1.8738 -1.8457,1.7683 -3.1344,2.374 -3.5658,1.676 -1.7909,-2.8976 16.606,-16.0709 22.4434,-16.0709 2.9119,0 6.7468,3.7689 7.405,7.2777 0.7046,3.7556 -1.6509,12.8381 -3.9172,15.1044 -0.8113,0.8113 -1.4751,1.7799 -1.4751,2.1524 0,0.3726 -3.4272,5.4672 -7.616,11.321497 -8.232,11.505 -10.0909,14.7704 -9.0187,15.8426 0.3796,0.3797 8.443,-7.1597 17.9186,-16.754197 12.2908,-12.445 19.0829,-18.5191 23.6995,-21.1944 7.2496,-4.2011 7.8404,-4.3312 10.5755,-2.3288 1.5605,1.1425 1.9221,2.564 1.8442,7.25 -0.084,5.0823 -0.7674,7.0242 -5.3325,15.163 -5.2373,9.337197 -6.0662,12.875397 -1.8245,7.787797 1.2396,-1.4868 4.8414,-5.4554 8.0039,-8.819097 3.1625,-3.3637 5.75,-6.413 5.75,-6.7762 0,-0.3633 3.0375,-3.7207 6.75,-7.4608 10.5061,-10.5845 21.2403,-16.7118 25.3879,-14.4921 1.0674,0.5712 3.0637,3.4938 4.4363,6.4947 l 2.4957,5.4561 -2.6923,4.7377 c -1.4807,2.6057 -4.5772,6.7627 -6.881,9.2377 -6.0687,6.519697 -10.8444,16.332497 -10.0387,20.627097 0.5625,2.9983 0.9886,3.3725 3.8374,3.3692 1.7626,0 4.6781,-0.9021 6.4789,-2 1.8008,-1.098 3.8258,-2.0009 4.5,-2.0066 0.6742,-0.01 2.9802,-1.4682 5.1244,-3.25 9.9408,-8.2607 14.6196,-13.256597 17.0311,-18.185497 3.7783,-7.7226 12.1763,-16.1018 17.6023,-17.5628 2.4008,-0.6465 6.1567,-2.709 8.3465,-4.5834 2.1898,-1.8744 4.688,-3.445 5.5515,-3.4902 0.8635,-0.045 2.7792,-0.2819 4.257,-0.5258 1.8914,-0.3122 3.3261,0.2303 4.8451,1.8322 1.9096,2.0138 2.1065,3.1166 1.7098,9.579 -0.2466,4.0168 -0.9644,7.8193 -1.5951,8.45 -2.0741,2.0741 -1.2018,3.0174 2.2694,2.4541 1.8789,-0.3049 6.6028,-2.6537 10.4976,-5.2196 l 7.0814,-4.6653 -0.6229,-3.8955 c -0.6243,-3.904 0.022,-5.5364 4.444,-11.2248 5.7098,-7.3451 14.5752,-13.7021 19.1087,-13.7021 2.5085,0 4.4336,3.4352 3.6576,6.5267 -0.655,2.6099 -11.5626,14.2037 -15.8326,16.8288 -3.3426,2.0549 -3.5513,5.0826 -0.75,10.8806 1.1,2.2768 2,5.0955 2,6.2639 0,2.7949 -3.7186,10.440497 -6.3867,13.131197 -3.9543,3.9879 -8.3897,10.8597 -9.0659,14.0458 -0.4525,2.1321 -0.1317,4.226204 0.9753,6.366904 1.5027,2.906 1.9679,3.1382 5.2274,2.6092 5.0103,-0.813 13.769,-5.4355 18.2306,-9.621304 3.7445,-3.513 12.5595,-11.0436 14.1276,-12.0692 0.4519,-0.2955 1.325,-2.8846 1.9403,-5.753597 2.2673,-10.5721 13.7438,-21.999 25.6246,-25.5139 13.659,-4.041 17.0537,3.2869 6.2129,13.4112 -2.8463,2.6582 -5.56,4.5952 -6.0306,4.3044 l -0.8555,0.5387 c -0.4967,0.31278 -3.7616,2.8052 -8.359,4.9292 -7.0018,3.234897 -8.4764,4.329497 -9.0818,6.741697 -0.3976,1.5838 -0.715,2.9839 -0.7055,3.1112 0.01,0.1273 -0.3759,1.6024 -0.8564,3.278 -1.0645,3.7116 0.4462,8.6223 3.0874,10.035804 1.0308,0.5517 3.121,0.7193 4.6448,0.3725 4.4519,-1.013404 14.616,-4.673004 16.5418,-5.955904 3.697,-2.4629 9.7507,-8.6173 9.259,-9.4129 -0.5729,-0.927 4.3591,-4.4929 5.1375,-3.7145 2.1271,2.1271 -13.1397,14.69265 -16.9497,16.6655 l -2.5834,1.3377 c -0.6105,0.735704 -4.2358,1.896204 -8.0561,2.578904 -6.5978,1.1791 -7.0942,1.1317 -9.9042,-0.9458 -4.3019,-3.180504 -7.299,-7.647904 -7.3949,-11.022804 -0.1052,-3.6991 -0.8915,-3.6936 -4.9958,0.035 -1.8061,1.6407 -5.7587,5.2338 -8.7837,7.9846 -3.025,2.750904 -6.2875,5.008504 -7.25,5.017004 l -1.75,0.8635 c -1.175,0.5798 -7.2762,4.2837 -11.4266,4.6694 -3.0908,0.2873 -4.3606,-0.2339 -7.5161,-3.0847 z m -38.1511,-16.182804 c 2.0622,-2.0625 5.0718,-4.875 6.6882,-6.25 3.4803,-2.9607 9.4099,-9.767097 9.3954,-10.784797 -0.01,-0.3934 -1.8165,-1.474 -4.0243,-2.4013 -4.084,-1.7155 -6.9655,-6.1757 -6.9655,-10.7818 0,-1.1176 -0.4354,-2.0321 -0.9676,-2.0321 -1.4711,0 -10.0704,12.1264 -12.0554,17 -0.5601,1.375 -1.4335,3.4 -1.941,4.5 -1.3941,3.021897 -2.281,10.152797 -1.5494,12.457797 0.4905,1.5454 1.5023,2.0422 4.1592,2.0422 2.724,0 4.3515,-0.8406 7.2604,-3.75 z m 95.3196,-14.246297 c 1.8008,-1.0979 3.8406,-1.9979 4.5329,-2 3.6332,-0.011 14.616,-10.6641 15.7816,-15.3081 0.6342,-2.5271 0.4666,-2.6954 -2.6819,-2.6919 -6.1865,0.01 -14.488,6.7975 -20.7487,16.9724 -3.4469,5.602 -2.5444,6.4789 3.1161,3.0276 z m -76.7054,-5.769 c 3.4035,-2.4507 5.8957,-17.8146 3.2464,-20.0133 -2.0363,-1.69 -7.1586,-0.5144 -10.2526,2.353 -2.0374,1.8883 -2.5142,3.2749 -2.5142,7.3128 0,6.9939 1.3053,9.881 4.6981,10.3915 1.541,0.2319 3.0269,0.4822 3.3019,0.5562 0.275,0.074 0.9592,-0.1961 1.5204,-0.6002 z m 41.5962,-24.6711 c 6.4545,-6.8721 8.158,-9.3102 7.3823,-10.5654 -0.9714,-1.5717 -1.9164,-1.2205 -5.9218,2.2008 -3.0668,2.6196 -8.5771,11.1434 -8.5771,13.2678 0,1.6879 2.624,-0.12 7.1166,-4.9032 z"
       id="path4173"
       inkscape:connector-curvature="0"
       sodipodi:nodetypes="ccccsscccscsscccscccscscscscssscsccsccssssscccsssccssssscccsssccccsssccsccssccsccccssscscscsssssssccccccsscsssscsscccccccccsccsscccccssssscsccccsssccccccccccscsssccsccssssscscscscssccsccsccccsccscsccsscssssscscccssssscssscssccsssssccccsscccsscsccsssssccsscccsssccscssscssccccccssscssccccscsscccssccssscsccscsscscssscsss" />
  </g>
</svg>
