<?xml version="1.0" encoding="UTF-8" standalone="no"?>
<!-- Created with Inkscape (http://www.inkscape.org/) -->

<svg
  
   xmlns="http://www.w3.org/2000/svg"
   id="svg3336"
   version="1.1"

   viewBox="0 0 31.990629 18.047907"
   >

  
  <path
 
     d="M 9.0085573,15.297741 C 6.2023989,12.936514 0.02397387,3.601105 1.2873377e-5,1.6861094 -0.00518713,1.2736095 1.5656293,0.93610935 3.4906293,0.93610935 c 1.925,0 3.5016821,0.33750015 3.5037381,0.75000005 0.00206,0.4125 0.9633284,2.3241306 2.1361611,4.2480686 2.0700885,3.395813 2.1568415,3.432061 2.9677235,1.240037 0.47656,-1.288264 0.418873,-3.353318 -0.134319,-4.8083236 -0.942421,-2.47875605 -0.864482,-2.54159005 2.778539,-2.24003705 3.639946,0.301298 3.763115,0.440174 4.266209,4.81025465 l 0.518051,4.5 2.22821,-3.5 c 1.225516,-1.925 2.229893,-3.8374996 2.231949,-4.2499996 0.0021,-0.4124999 1.803738,-0.75000005 4.003738,-0.75000005 2.2,0 4,0.31331215 4,0.69625005 0,0.382937 -1.176627,2.3941216 -2.614726,4.4692996 l -2.614726,3.77305 2.614726,3.107425 c 3.503631,4.163829 3.307404,4.953975 -1.230286,4.953975 -2.575021,0 -4.44284,-0.660592 -5.654988,-2 -0.995486,-1.1 -2.19023,-2 -2.654987,-2 -0.464756,0 -0.845012,0.9 -0.845012,2 0,3.093835 -6.002827,2.709945 -9.9820727,-0.638368 z"
     id="path3346"
     inkscape:connector-curvature="0" />
</svg>
