<?xml version="1.0" encoding="UTF-8" standalone="no"?>
<!-- Created with Inkscape (http://www.inkscape.org/) -->

<svg
  
   xmlns="http://www.w3.org/2000/svg"
   
   width="19.500839mm"
   height="19.331921mm"
   viewBox="0 0 69.097461 68.498931"
   id="svg3359"
   version="1.1"
   inkscape:version="0.91 r13725"
   sodipodi:docname="fb.svg">
  
 
  <g
     inkscape:label="Layer 1"
     inkscape:groupmode="layer"
     id="layer1"
     transform="translate(-58.299346,-388.79077)">
    <path
       style="fill:#414141"
       d="m 80.349198,454.90776 c -14.1271,-5.81048 -22.16051,-17.67032 -22.0487,-32.55082 0.0709,-9.43266 3.25385,-17.2273 9.6309,-23.58466 7.88445,-7.86011 13.11196,-9.98151 24.59621,-9.98151 8.145442,0 10.284222,0.36991 15.000002,2.59433 18.29692,8.63057 25.33463,31.06794 15.25655,48.64037 -3.44665,6.00969 -11.42261,12.80958 -17.84243,15.21155 -7.620752,2.85129 -17.170502,2.72343 -24.592532,-0.32926 z m 17.17841,-21.11699 0,-8.5 3.000002,0 c 2.88889,0 3,-0.16667 3,-4.5 0,-4.33333 -0.11111,-4.5 -3,-4.5 -2.276822,0 -3.000002,-0.45633 -3.000002,-1.89301 0,-2.07542 1.85325,-3.10699 5.581792,-3.10699 2.15458,0 2.41821,-0.43608 2.41821,-4 l 0,-4 -5.576922,0 c -4.83064,0 -5.96808,0.39116 -8.5,2.92308 -2.14117,2.14116 -2.92308,3.87989 -2.92308,6.5 0,3.43225 -0.14388,3.57692 -3.5575,3.57692 l -3.5575,0 0.3075,4.25 c 0.28863,3.98915 0.50698,4.26923 3.5575,4.56336 l 3.25,0.31336 0,8.43664 0,8.43664 4.5,0 4.5,0 z"
       id="path3346-7"
       inkscape:connector-curvature="0"
       sodipodi:nodetypes="ssssssssccsssssscsssscsscccccc" />
  </g>
</svg>
