<?xml version="1.0" encoding="UTF-8" standalone="no"?>
<svg
   xmlns:dc="http://purl.org/dc/elements/1.1/"
   xmlns:cc="http://creativecommons.org/ns#"
   xmlns:rdf="http://www.w3.org/1999/02/22-rdf-syntax-ns#"
   xmlns:svg="http://www.w3.org/2000/svg"
   xmlns="http://www.w3.org/2000/svg"
   xmlns:sodipodi="http://sodipodi.sourceforge.net/DTD/sodipodi-0.dtd"
   xmlns:inkscape="http://www.inkscape.org/namespaces/inkscape"
   viewBox="0 0 69.098639 68.499079"
   id="svg3809"
   version="1.1"
   inkscape:version="0.48.4 r9939"
   width="100%"
   height="100%"
   sodipodi:docname="fb.svg">
  <metadata
     id="metadata3817">
    <rdf:RDF>
      <cc:Work
         rdf:about="">
        <dc:format>image/svg+xml</dc:format>
        <dc:type
           rdf:resource="http://purl.org/dc/dcmitype/StillImage" />
        <dc:title></dc:title>
      </cc:Work>
    </rdf:RDF>
  </metadata>
  <defs
     id="defs3815" />
  <sodipodi:namedview
     pagecolor="#ffffff"
     bordercolor="#666666"
     borderopacity="1"
     objecttolerance="10"
     gridtolerance="10"
     guidetolerance="10"
     inkscape:pageopacity="0"
     inkscape:pageshadow="2"
     inkscape:window-width="1855"
     inkscape:window-height="1056"
     id="namedview3813"
     showgrid="false"
     fit-margin-top="0"
     fit-margin-left="0"
     fit-margin-right="0"
     fit-margin-bottom="0"
     inkscape:zoom="4.34"
     inkscape:cx="36.867474"
     inkscape:cy="30.941475"
     inkscape:window-x="65"
     inkscape:window-y="24"
     inkscape:window-maximized="1"
     inkscape:current-layer="svg3809" />
  <path
     d="M 22.051115,66.117 C 7.9241151,60.307 -0.10888491,48.447 0.00111509,33.567 0.07411509,24.133 3.2571151,16.337 9.6341151,9.98 17.518115,2.122 22.744115,0 34.229115,0 c 8.146,0 10.284,0.37 15,2.594 18.297,8.63 25.335,31.068 15.257,48.64 -3.447,6.01 -11.423,12.81 -17.843,15.212 -7.62,2.852 -17.17,2.724 -24.592,-0.33 z M 39.229115,45 v -8.5 h 3 c 2.89,0 3,-0.167 3,-4.5 0,-4.333 -0.11,-4.5 -3,-4.5 -2.277,0 -3,-0.456 -3,-1.893 0,-2.075 1.854,-3.107 5.582,-3.107 2.155,0 2.418,-0.436 2.418,-4 v -4 h -5.578 c -4.83,0 -5.967,0.39 -8.5,2.923 -2.14,2.14 -2.922,3.88 -2.922,6.5 0,3.432 -0.144,3.577 -3.557,3.577 h -3.556 l 0.308,4.25 c 0.29,3.99 0.508,4.27 3.558,4.563 l 3.25,0.314 V 53.5 h 9 z"
     id="path3811"
     inkscape:connector-curvature="0" />
</svg>
