<?xml version="1.0" encoding="UTF-8" standalone="no"?>
<!-- Created with Inkscape (http://www.inkscape.org/) -->

<svg
  
   xmlns="http://www.w3.org/2000/svg"
   
   id="svg3336"
   version="1.1"
   
   width="52.71801"
   height="95.617783"
   viewBox="0 0 52.71801 95.617783">
 
  <path
     style="fill:#0b0b0b"
     d="m 14.071046,74.826439 c 0,-19.277352 -0.491526,-20.861154 -6.7499998,-21.75 C -2.2234478,51.720904 -2.5322368,34.560427 6.9634942,33.205987 11.844485,32.50978 13.801592,29.507249 15.240743,20.507293 17.516171,6.2775383 27.230222,-1.2177803 41.608724,0.16187484 c 8.278305,0.7943251 10.119255,2.31388596 10.890699,8.98943126 0.791286,6.8472219 -0.316227,8.1762389 -7.5,8.9999999 -6.086232,0.697907 -8.694774,2.842224 -9.38703,7.71648 -0.780762,5.497443 0.471795,6.75 6.75,6.75 6.809889,0 7.708653,1.22421 7.708653,10.5 0,9.200001 -0.928572,10.5 -7.5,10.5 -7.285713,0 -7.5,0.6 -7.5,21 l 0,21 -10.5,0 -10.5,0 0,-20.791347 z"
     id="path3386"
      />
</svg>
