<?xml version="1.0" encoding="UTF-8" standalone="no"?>
<!-- Created with Inkscape (http://www.inkscape.org/) -->

<svg
   xmlns:dc="http://purl.org/dc/elements/1.1/"
   xmlns:cc="http://creativecommons.org/ns#"
   xmlns:rdf="http://www.w3.org/1999/02/22-rdf-syntax-ns#"
   xmlns:svg="http://www.w3.org/2000/svg"
   xmlns="http://www.w3.org/2000/svg"
   xmlns:sodipodi="http://sodipodi.sourceforge.net/DTD/sodipodi-0.dtd"
   xmlns:inkscape="http://www.inkscape.org/namespaces/inkscape"
   width="19.464245mm"
   height="19.499594mm"
   viewBox="0 0 68.967796 69.093048"
   id="svg3359"
   version="1.1"
   inkscape:version="0.91 r13725"
   sodipodi:docname="inst.svg">
 
  <g
     inkscape:label="Layer 1"
     inkscape:groupmode="layer"
     id="layer1"
     transform="translate(-33.30194,-388.52916)">
    <path
       style="fill:#414141"
       d="m 55.690205,455.31074 c -12.68921,-5.22018 -19.74892,-14.04853 -21.95903,-27.46034 -3.30647,-20.06495 12.93336,-39.16645 33.42802,-39.31847 7.33655,-0.0544 10.64622,0.67642 16.65617,3.67797 6.18612,3.08953 12.32891,9.4702 15.67305,16.27999 2.379405,4.84523 2.781315,6.89196 2.781315,14.16366 0,9.89768 -2.613685,16.79942 -9.066955,23.94243 -9.20259,10.18617 -25.0095,13.85836 -37.51257,8.71476 z m 30.07952,-13.6342 c 1.21201,-0.76468 1.56077,-4.11033 1.81654,-17.4261 0.20523,-10.68516 -0.0708,-17.20356 -0.78519,-18.53831 -1.0487,-1.95951 -1.95666,-2.05858 -18.86653,-2.05858 -12.48375,0 -18.12155,0.35673 -18.96482,1.2 -0.83977,0.83977 -1.2,6.33333 -1.2,18.3 0,11.96667 0.36023,17.46023 1.2,18.3 1.47069,1.47069 34.50514,1.67087 36.8,0.22299 z m -32.89927,-4.40162 c -0.75711,-0.91226 -1.08168,-4.27432 -0.8945,-9.26573 0.24476,-6.52697 0.58573,-7.8897 2.04377,-8.16812 1.43049,-0.27316 1.75,0.39551 1.75,3.66243 0,4.99568 3.66427,9.68723 8.63887,11.06078 7.51571,2.07519 15.36113,-3.9406 15.36113,-11.77876 0,-2.15128 0.48143,-3.13197 1.53753,-3.13197 1.29327,0 1.49185,1.46944 1.25,9.25 l -0.28753,9.25 -14.1055,0.27657 c -11.27098,0.221 -14.34428,-0.0111 -15.29377,-1.1552 z m 11.12823,-7.29066 c -2.15663,-0.86772 -4.3183,-6.12659 -3.63591,-8.84541 2.07492,-8.26715 14.40695,-6.57139 14.40695,1.98107 0,5.2443 -5.72671,8.89391 -10.77104,6.86434 z m 11.18508,-15.69411 c -0.31471,-0.82013 -0.42412,-2.53637 -0.24312,-3.81387 0.27276,-1.9252 0.9281,-2.32273 3.82908,-2.32273 3.33333,0 3.5,0.16667 3.5,3.5 0,3.21932 -0.26118,3.52517 -3.25688,3.81387 -2.18406,0.21048 -3.44535,-0.17731 -3.82908,-1.17727 z"
       id="path3346"
     />
  </g>
</svg>
