<?xml version="1.0" encoding="UTF-8" standalone="no"?>
<!-- Created with Inkscape (http://www.inkscape.org/) -->

<svg
   
   xmlns="http://www.w3.org/2000/svg"
  
   id="svg3356"
   version="1.1"
  
   width="48"
   height="48"
   viewBox="0 0 48 48"
   >
 
  <path
     style="fill:#202020"
     d="M 3.9522885,44.89113 C 0.092881,41.855319 0,41.377831 0,24.572948 0,8.3013332 0.200614,7.1630223 3.6818185,3.6818183 7.1630225,0.200614 8.3013335,0 24.572949,0 c 16.804882,0 17.28237,0.092881 20.318182,3.9522881 2.713704,3.4499162 3.10887,6.0325414 3.10887,20.3181819 0,15.376133 -0.222665,16.58856 -3.681818,20.047712 C 40.859031,47.777335 39.646604,48 24.270471,48 9.9848295,48 7.4022045,47.604834 3.9522885,44.89113 Z M 42.208824,43.634312 C 45.385559,41.063547 45.75,39.558409 45.75,29.009312 L 45.75,17.25 40.417667,16.8019 c -5.224349,-0.439026 -5.320594,-0.34755 -4.752663,4.517186 0.404023,3.460759 -0.399417,6.209992 -2.651538,9.073101 -7.259939,9.229515 -22.057221,2.736906 -20.678469,-9.073101 0.56793,-4.864736 0.471685,-4.956212 -4.7526645,-4.517186 l -5.332332,0.4481 0,11.759312 C 2.2500005,45.15588 3.9214375,46.5 24,46.5 c 12.20278,0 15.262735,-0.481573 18.208824,-2.865688 z M 31.948245,28.220532 c 2.639539,-3.551402 2.76808,-4.576958 1.083424,-8.64408 -3.187497,-7.695294 -14.401463,-8.194865 -17.77451,-0.791838 -2.341089,5.138133 -2.269761,5.659141 1.416293,10.345198 4.141468,5.265026 10.988757,4.857419 15.274793,-0.90928 z m -13.648244,-0.02053 c -2.650784,-2.650783 -2.190483,-7.881655 0.94311,-10.717518 3.565325,-3.226574 6.694029,-3.143149 9.774407,0.260629 4.959866,5.480588 2.185897,12.256889 -5.017518,12.256889 -2.145,0 -4.71,-0.81 -5.7,-1.8 z m 8.429325,-5.442492 c 0.360272,-2.448405 -0.291728,-3.257508 -2.625,-3.257508 -2.010256,0 -3.104326,0.969193 -3.104326,2.75 0,5.70244 4.901037,6.136578 5.729326,0.507508 z M 18.699109,12.472183 c 4.970832,-2.370425 5.630949,-2.370425 10.601782,0 C 32.21638,13.862483 37.352055,15 40.713503,15 46.617582,15 46.792045,14.859855 45.848652,10.875001 44.08171,3.4115235 40.051743,1.5 26.083825,1.5 L 13.500001,1.5 13.302539,7.125 13.105077,12.750001 12.000001,7.5 10.894925,2.25 10.697463,7.125 c -0.108604,2.6812505 -0.8724625,4.875001 -1.6974625,4.875001 -0.825,0 -1.588858,-2.1937505 -1.697462,-4.875001 L 7.1050765,2.25 6.0000005,7.5 C 5.0869775,11.837589 4.8422835,12.098278 4.5920345,9.0000005 4.3117025,5.5292857 4.1931335,5.4734286 3.0000005,8.25 2.2909705,9.9000005 1.663413,12.093751 1.605428,13.125001 1.449566,15.896949 12.393782,15.478983 18.699109,12.472183 Z M 33.54412,9.7543795 C 33.025762,8.4035618 33.294582,6.6054178 34.141497,5.7585034 36.586653,3.3133476 41.25,4.961305 41.25,8.2705425 c 0,3.8155065 -6.342477,5.0368075 -7.70588,1.483837 z"
     id="path3366"
      />
</svg>
