<?xml version="1.0" encoding="UTF-8" standalone="no"?>
<svg
   xmlns:dc="http://purl.org/dc/elements/1.1/"
   xmlns:cc="http://creativecommons.org/ns#"
   xmlns:rdf="http://www.w3.org/1999/02/22-rdf-syntax-ns#"
   xmlns:svg="http://www.w3.org/2000/svg"
   xmlns="http://www.w3.org/2000/svg"
   xmlns:sodipodi="http://sodipodi.sourceforge.net/DTD/sodipodi-0.dtd"
   xmlns:inkscape="http://www.inkscape.org/namespaces/inkscape"
   viewBox="0 0 68.970641 69.095794"
   id="svg3091"
   version="1.1"
   inkscape:version="0.48.4 r9939"
   width="100%"
   height="100%"
   sodipodi:docname="inst.svg">
  <metadata
     id="metadata3099">
    <rdf:RDF>
      <cc:Work
         rdf:about="">
        <dc:format>image/svg+xml</dc:format>
        <dc:type
           rdf:resource="http://purl.org/dc/dcmitype/StillImage" />
      </cc:Work>
    </rdf:RDF>
  </metadata>
  <defs
     id="defs3097" />
  <sodipodi:namedview
     pagecolor="#ffffff"
     bordercolor="#666666"
     borderopacity="1"
     objecttolerance="10"
     gridtolerance="10"
     guidetolerance="10"
     inkscape:pageopacity="0"
     inkscape:pageshadow="2"
     inkscape:window-width="640"
     inkscape:window-height="480"
     id="namedview3095"
     showgrid="false"
     fit-margin-top="0"
     fit-margin-left="0"
     fit-margin-right="0"
     fit-margin-bottom="0"
     inkscape:zoom="2.36"
     inkscape:cx="50.000641"
     inkscape:cy="19.093066"
     inkscape:window-x="65"
     inkscape:window-y="24"
     inkscape:window-maximized="0"
     inkscape:current-layer="svg3091" />
  <path
     d="m 22.388641,66.784728 c -12.6900005,-5.22 -19.7500005,-14.05 -21.96000045,-27.46 C -2.8753595,19.257728 13.364641,0.15672826 33.860641,0.00272826 c 7.336,-0.054 10.645,0.677 16.655,3.68000004 6.187,3.088 12.33,9.4699997 15.673,16.2799997 2.38,4.844 2.782,6.89 2.782,14.162 0,9.898 -2.614,16.8 -9.067,23.943 -9.203,10.188 -25.013,13.86 -37.513,8.717 z m 30.08,-13.635 c 1.212,-0.764 1.56,-4.11 1.816,-17.426 0.206,-10.683 -0.07,-17.2 -0.785,-18.536 -1.05,-1.96 -1.96,-2.06 -18.868,-2.06 -12.484,0 -18.122,0.358 -18.965,1.2 -0.84,0.84 -1.2,6.335 -1.2,18.3 0,11.968 0.36,17.462 1.2,18.3 1.47,1.472 34.505,1.672 36.8,0.224 z m -32.9,-4.4 c -0.757,-0.913 -1.08,-4.276 -0.894,-9.267 0.245,-6.527 0.586,-7.89 2.044,-8.168 1.43,-0.273 1.75,0.395 1.75,3.662 0,4.996 3.664,9.688 8.64,11.06 7.514,2.076 15.36,-3.94 15.36,-11.778 0,-2.15 0.48,-3.132 1.537,-3.132 1.294,0 1.492,1.47 1.25,9.25 l -0.287,9.25 -14.106,0.277 c -11.27,0.223 -14.344,-0.01 -15.293,-1.153 z m 11.13,-7.292 c -2.158,-0.868 -4.32,-6.126 -3.637,-8.845 2.077,-8.267 14.41,-6.572 14.41,1.98 0,5.245 -5.728,8.895 -10.77,6.865 z m 11.182,-15.695 c -0.315,-0.82 -0.424,-2.535 -0.243,-3.813 0.27,-1.925 0.927,-2.323 3.828,-2.323 3.333,0 3.5,0.167 3.5,3.5 0,3.22 -0.26,3.526 -3.257,3.814 -2.183,0.21 -3.444,-0.177 -3.828,-1.177 z"
     id="path3093"
     inkscape:connector-curvature="0" />
</svg>
