<?xml version="1.0" encoding="UTF-8" standalone="no"?>
<svg
   xmlns:dc="http://purl.org/dc/elements/1.1/"
   xmlns:cc="http://creativecommons.org/ns#"
   xmlns:rdf="http://www.w3.org/1999/02/22-rdf-syntax-ns#"
   xmlns:svg="http://www.w3.org/2000/svg"
   xmlns="http://www.w3.org/2000/svg"
   xmlns:sodipodi="http://sodipodi.sourceforge.net/DTD/sodipodi-0.dtd"
   xmlns:inkscape="http://www.inkscape.org/namespaces/inkscape"
   viewBox="0 0 68.479511 69.144565"
   id="svg3033"
   version="1.1"
   inkscape:version="0.48.4 r9939"
   width="100%"
   height="100%"
   sodipodi:docname="my_wed.svg">
  <metadata
     id="metadata3041">
    <rdf:RDF>
      <cc:Work
         rdf:about="">
        <dc:format>image/svg+xml</dc:format>
        <dc:type
           rdf:resource="http://purl.org/dc/dcmitype/StillImage" />
      </cc:Work>
    </rdf:RDF>
  </metadata>
  <defs
     id="defs3039" />
  <sodipodi:namedview
     pagecolor="#ffffff"
     bordercolor="#666666"
     borderopacity="1"
     objecttolerance="10"
     gridtolerance="10"
     guidetolerance="10"
     inkscape:pageopacity="0"
     inkscape:pageshadow="2"
     inkscape:window-width="640"
     inkscape:window-height="480"
     id="namedview3037"
     showgrid="false"
     fit-margin-top="0"
     fit-margin-left="0"
     fit-margin-right="0"
     fit-margin-bottom="0"
     inkscape:zoom="2.36"
     inkscape:cx="50.000108"
     inkscape:cy="36.09438"
     inkscape:window-x="186"
     inkscape:window-y="105"
     inkscape:window-maximized="0"
     inkscape:current-layer="svg3033" />
  <path
     d="m 21.786108,66.859338 c -9.49,-3.984 -15.6400004,-10.256 -19.5480004,-19.93 -3.373,-8.35 -2.894,-19.635 1.17,-27.574 11.0080004,-21.5080005 38.4900004,-25.9500005 55.5500004,-8.98 6.762,6.725 9.486,13.55 9.52,23.854 0.027,7.64 -0.31,9.207 -3.257,15.197 -3.635,7.392 -9.13,12.87 -16.82,16.77 -7.214,3.66 -18.793,3.948 -26.613,0.664 z m 9.972,-9.893 c 1.49,-1.19 1.676,-7.373 0.25,-8.255 -1.675,-1.035 -1.12,-3.365 1.083,-4.544 1.65,-0.882 2.463,-0.773 3.896,0.524 1.644,1.487 1.676,1.908 0.347,4.572 -1.504,3.015 -1.012,6.818 1.06,8.183 1.986,1.308 6.91,0.81 8.787,-0.89 2.212,-2.003 2.348,-5.157 0.343,-8.02 -1.39,-1.984 -1.23,-2.35 2.503,-5.722 2.193,-1.982 4.66,-3.603 5.484,-3.603 0.824,0 1.498,-0.675 1.498,-1.5 0,-1.18 -1.39,-1.5 -6.5,-1.5 -5.112,0 -6.5,0.32 -6.5,1.5 0,0.825 0.744,1.5 1.655,1.5 1.488,0 1.472,0.202 -0.155,2 -2.054,2.27 -3.583,2.517 -5.25,0.85 -0.864,-0.864 -0.763,-1.89 0.41,-4.16 1.418,-2.742 1.41,-3.32 -0.09,-6.463 -1.542,-3.237 -1.536,-3.534 0.1,-4.73 1.438,-1.05 2.18,-0.99 4.236,0.36 2.05,1.343 2.19,1.69 0.793,1.96 -0.934,0.18 -1.7,1.195 -1.7,2.255 0,1.688 0.743,1.926 6,1.926 5.334,0 6,-0.22 6,-2 0,-1.26 -0.666,-2 -1.803,-2 -0.992,0 -3.25,-1.49 -5.016,-3.313 -3.132,-3.23 -3.174,-3.39 -1.673,-6.4 2.9,-5.814 -2.168,-11.1280005 -8.054,-8.447 -2.945,1.344 -4.105,5.433 -2.523,8.903 1,2.196 0.895,2.88 -0.687,4.462 -1.825,1.824 -1.91,1.823 -3.593,-0.038 -1.428,-1.578 -1.525,-2.345 -0.56,-4.46 1.654,-3.63 0.442,-7.242 -2.893,-8.623 -6.282,-2.6030005 -11.336,3.125 -7.956,9.015 1.5,2.612 1.443,2.816 -1.64,5.804 -1.758,1.704 -3.962,3.097 -4.898,3.097 -1.036,0 -1.702,0.784 -1.702,2 0,1.78 0.666,2 6,2 5.333,0 6,-0.22 6,-2 0,-1.1 -0.547,-2 -1.215,-2 -0.79,0 -0.655,-0.56 0.39,-1.602 1.022,-1.024 2.365,-1.36 3.713,-0.933 2.206,0.7 2.832,2.972 1.112,4.035 -1.59,0.983 -1.16,7.123 0.602,8.585 1.45,1.204 1.39,1.503 -0.642,3.15 -2.14,1.732 -2.337,1.735 -4.18,0.067 -1.095,-0.992 -1.467,-1.906 -0.857,-2.11 0.594,-0.197 1.08,-1.22 1.08,-2.275 0,-1.677 -0.755,-1.918 -6,-1.918 -4.71,0 -6,0.327 -6,1.524 0,0.84 1.01,1.934 2.25,2.435 1.236,0.5 3.59,2.013 5.227,3.362 2.636,2.172 2.846,2.725 1.823,4.816 -1.867,3.815 -2.088,5.254 -1.102,7.17 1.77,3.435 7.143,4.173 10.55,1.447 z m -7.256,-2.764 c -0.762,-1.233 0.33,-4.99 1.45,-4.99 1.503,0 3.284,2.962 2.7,4.487 -0.66,1.714 -3.21,2.024 -4.15,0.503 z m 15.867,-0.49 c -0.71,-1.844 0.22,-4.5 1.57,-4.5 1.363,0 3.3,3.81 2.554,5.02 -0.922,1.49 -3.478,1.168 -4.126,-0.52 z m -7.979,-16.943 c -0.892,-2.323 0.007,-5.01 1.792,-5.353 2.125,-0.41 3.396,3.4 1.784,5.343 -1.533,1.847 -2.87,1.85 -3.576,0.01 z m -7.42,-18.622 c -0.824,-1.543 -0.792,-2.44 0.13,-3.55 1.073,-1.293 1.42,-1.3 2.672,-0.047 0.884,0.885 1.18,2.255 0.77,3.55 -0.85,2.675 -2.156,2.693 -3.57,0.05 z m 16.236,0.864 c -1.637,-1.637 -1.512,-4.466 0.226,-5.133 2.28,-0.877 3.92,1.813 2.608,4.267 -1.296,2.42 -1.282,2.417 -2.834,0.864 z"
     id="path3035"
     inkscape:connector-curvature="0" />
</svg>
