<?xml version="1.0" encoding="UTF-8" standalone="no"?>
<!-- Created with Inkscape (http://www.inkscape.org/) -->

<svg
 
   xmlns="http://www.w3.org/2000/svg"

   id="svg3376"
   version="1.1"
   
   width="12"
   height="15.282747"
   viewBox="0 0 12 15.282747"
   sodipodi:docname="pin_bl.svg">
 
  <path
     style="fill:#0e0e0e"
     d="M 2.6906348,12.670197 C 3.5568912,5.2430469 3.7675977,4.2625772 4.6112382,3.7331474 6.0880817,2.806349 6.6198352,3.9043698 6.0106312,6.6227609 5.4251962,9.2350876 5.6207882,9.9201976 6.9520147,9.9201976 8.304298,9.9201976 9.553481,8.2309129 9.85311,5.9970149 10.0814,4.2949871 9.92026,3.7950044 8.774003,2.6487469 7.6529932,1.5277361 7.1281772,1.3496942 5.6512532,1.5893659 4.6748487,1.7478145 3.4666317,2.2479024 2.9663264,2.7006723 1.7868207,3.7681102 1.2890372,6.0917514 1.9680658,7.3605279 2.339218,8.0540319 2.3426991,8.4583984 1.9794498,8.6828989 0.9692857,9.3072146 0,7.8208269 0,5.6474369 0,0.50683574 6.7109045,-1.9236372 10.625,1.799405 11.715015,2.8362143 12,3.5593867 12,5.2885734 12,9.4758306 9.872815,11.767527 6.4884735,11.226349 4.669391,10.935466 4.6001705,10.979473 4.29187,12.622858 4.116787,13.556129 3.6061565,14.623573 3.1571355,14.994956 2.4118518,15.611375 2.3712139,15.408861 2.6906346,12.670197 Z"
     id="path3386"
     inkscape:connector-curvature="0" />
</svg>
