<?xml version="1.0" encoding="UTF-8" standalone="no"?>
<svg
   xmlns:dc="http://purl.org/dc/elements/1.1/"
   xmlns:cc="http://creativecommons.org/ns#"
   xmlns:rdf="http://www.w3.org/1999/02/22-rdf-syntax-ns#"
   xmlns:svg="http://www.w3.org/2000/svg"
   xmlns="http://www.w3.org/2000/svg"
   xmlns:sodipodi="http://sodipodi.sourceforge.net/DTD/sodipodi-0.dtd"
   xmlns:inkscape="http://www.inkscape.org/namespaces/inkscape"
   viewBox="0 0 50 50"
   id="svg3033"
   version="1.1"
   inkscape:version="0.48.4 r9939"
   width="100%"
   height="100%"
   sodipodi:docname="pinterest.svg">
  <metadata
     id="metadata3041">
    <rdf:RDF>
      <cc:Work
         rdf:about="">
        <dc:format>image/svg+xml</dc:format>
        <dc:type
           rdf:resource="http://purl.org/dc/dcmitype/StillImage" />
      </cc:Work>
    </rdf:RDF>
  </metadata>
  <defs
     id="defs3039" />
  <sodipodi:namedview
     pagecolor="#ffffff"
     bordercolor="#666666"
     borderopacity="1"
     objecttolerance="10"
     gridtolerance="10"
     guidetolerance="10"
     inkscape:pageopacity="0"
     inkscape:pageshadow="2"
     inkscape:window-width="1855"
     inkscape:window-height="1056"
     id="namedview3037"
     showgrid="false"
     fit-margin-top="0"
     fit-margin-left="0"
     fit-margin-right="0"
     fit-margin-bottom="0"
     inkscape:zoom="3.284511"
     inkscape:cx="98.089217"
     inkscape:cy="-10.38072"
     inkscape:window-x="65"
     inkscape:window-y="24"
     inkscape:window-maximized="1"
     inkscape:current-layer="svg3033" />
  <path
     d="M 25,0 C 11.193135,0 0,11.193135 0,24.999998 0,38.80678 11.193135,50 25,50 38.80678,50 50,38.80678 50,24.999998 50,11.193135 38.80678,0 25,0 z m 2.3,32.57042 c -1.847716,0 -3.58636,-1.02042 -4.18407,-2.179572 0,0 -0.993465,4.027282 -1.20474,4.804572 -0.354575,1.31373 -1.038645,2.625 -1.672795,3.66373 -0.90441,1.18178 -1.94771,0.30457 -2.07271,-0.77288 -0.04085,-1.19992 0.002,-2.62034 0.299835,-3.9134 0.32966,-1.4183 2.20237,-9.525077 2.20237,-9.525077 0,0 -0.54771,-1.116015 -0.54771,-2.766093 0,-2.59093 1.470585,-4.525 3.302285,-4.525 1.55678,0 2.309069,1.195505 2.309069,2.625 0,1.59771 -0.997714,3.988558 -1.511439,6.202283 -0.42949,1.854575 0.911439,3.366015 2.702369,3.366015 3.243141,0 5.429576,-4.254655 5.429576,-9.293298 0,-3.8317 -2.527285,-6.697715 -7.125001,-6.697715 -5.193134,0 -8.429494,3.954495 -8.429494,8.370425 0,1.522713 0.438725,2.597713 1.129575,3.427288 0.31585,0.38186 0.361275,0.536355 0.245345,0.97508 -0.0817,0.322715 -0.270425,1.095425 -0.34771,1.402205 -0.113565,0.44322 -0.465935,0.600085 -0.856865,0.43644 -2.39322,-0.997795 -3.50686,-3.672795 -3.50686,-6.677288 0,-4.96593 4.102285,-10.920505 12.236354,-10.920505 6.536276,0 10.838561,4.82966 10.838561,10.013725 0.002,6.861273 -3.73186,11.983985 -9.236355,11.983985 z"
     id="path3035"
     inkscape:connector-curvature="0" />
</svg>
