<?xml version="1.0" encoding="UTF-8" standalone="no"?>
<svg
   xmlns:dc="http://purl.org/dc/elements/1.1/"
   xmlns:cc="http://creativecommons.org/ns#"
   xmlns:rdf="http://www.w3.org/1999/02/22-rdf-syntax-ns#"
   xmlns:svg="http://www.w3.org/2000/svg"
   xmlns="http://www.w3.org/2000/svg"
   xmlns:sodipodi="http://sodipodi.sourceforge.net/DTD/sodipodi-0.dtd"
   xmlns:inkscape="http://www.inkscape.org/namespaces/inkscape"
   viewBox="0 0 69.280632 69.734035"
   id="svg3033"
   version="1.1"
   inkscape:version="0.48.4 r9939"
   width="100%"
   height="100%"
   sodipodi:docname="vk.svg">
  <metadata
     id="metadata3041">
    <rdf:RDF>
      <cc:Work
         rdf:about="">
        <dc:format>image/svg+xml</dc:format>
        <dc:type
           rdf:resource="http://purl.org/dc/dcmitype/StillImage" />
      </cc:Work>
    </rdf:RDF>
  </metadata>
  <defs
     id="defs3039" />
  <sodipodi:namedview
     pagecolor="#ffffff"
     bordercolor="#666666"
     borderopacity="1"
     objecttolerance="10"
     gridtolerance="10"
     guidetolerance="10"
     inkscape:pageopacity="0"
     inkscape:pageshadow="2"
     inkscape:window-width="1855"
     inkscape:window-height="1056"
     id="namedview3037"
     showgrid="false"
     fit-margin-top="0"
     fit-margin-left="0"
     fit-margin-right="0"
     fit-margin-bottom="0"
     inkscape:zoom="9.29"
     inkscape:cx="49.999104"
     inkscape:cy="19.735375"
     inkscape:window-x="65"
     inkscape:window-y="24"
     inkscape:window-maximized="1"
     inkscape:current-layer="svg3033" />
  <path
     d="m 29.717104,69.42266 c -11.025,-1.394 -22.0420003,-9.792 -27.1000003,-20.654 -2.25599996,-4.847 -2.65799996,-7.05 -2.61399996,-14.234 0.05,-7.463 0.432,-9.236 3.13999996,-14.536 11.6240003,-22.7579996 40.9860003,-26.9199996 57.8160003,-8.204 6.244,6.946 8.72,14.196 8.27,24.24 -0.95,21.283 -18.43,36.057 -39.51,33.388 z m 8.845,-24.89 c 0.575,-1.65 1.28,-3 1.566,-3 0.284,0 2.056,1.35 3.935,3 2.577,2.264 4.4,3 7.413,3 5.558,0 6.006,-2.07 1.522,-7.033 -3.955,-4.375 -3.945,-4.504 0.84,-10.91 3.774,-5.053 3.394,-6.054 -2.294,-6.054 -4.793,0 -4.9,0.07 -7.308,4.747 -1.344,2.612 -3.204,4.895 -4.135,5.074 -1.426,0.274 -1.692,-0.55 -1.692,-5.248 0,-6.02 -0.174,-6.16 -7,-5.584 -3.61,0.305 -4.212,0.94 -2.507,2.645 2.616,2.616 1.36,10.628 -1.4,8.923 -0.62,-0.384 -2.254,-2.917 -3.628,-5.628 -2.362,-4.662 -2.713,-4.93 -6.48,-4.93 -4.59,0 -4.753,0.557 -1.858,6.29 3.92,7.767 9.078,13.9 13.303,15.82 6.045,2.744 8.473,2.467 9.72,-1.11 z"
     id="path3035"
     inkscape:connector-curvature="0" />
</svg>
