<?xml version="1.0" encoding="UTF-8" standalone="no"?>
<!-- Created with Inkscape (http://www.inkscape.org/) -->

<svg
   xmlns:dc="http://purl.org/dc/elements/1.1/"
   xmlns:cc="http://creativecommons.org/ns#"
   xmlns:rdf="http://www.w3.org/1999/02/22-rdf-syntax-ns#"
   xmlns:svg="http://www.w3.org/2000/svg"
   xmlns="http://www.w3.org/2000/svg"
   xmlns:sodipodi="http://sodipodi.sourceforge.net/DTD/sodipodi-0.dtd"
   xmlns:inkscape="http://www.inkscape.org/namespaces/inkscape"
   width="19.552362mm"
   height="19.680986mm"
   viewBox="0 0 69.280024 69.735778"
   id="svg3359"
   version="1.1"
   inkscape:version="0.91 r13725"
   sodipodi:docname="vk.svg">
  <defs
     id="defs3361" />
  <sodipodi:namedview
     id="base"
     pagecolor="#ffffff"
     bordercolor="#666666"
     borderopacity="1.0"
     inkscape:pageopacity="0.0"
     inkscape:pageshadow="2"
     inkscape:zoom="2.8"
     inkscape:cx="59.653977"
     inkscape:cy="64.806272"
     inkscape:document-units="px"
     inkscape:current-layer="layer1"
     showgrid="false"
     fit-margin-top="0"
     fit-margin-left="0"
     fit-margin-right="0"
     fit-margin-bottom="0"
     inkscape:window-width="1366"
     inkscape:window-height="706"
     inkscape:window-x="1912"
     inkscape:window-y="28"
     inkscape:window-maximized="1" />
  <metadata
     id="metadata3364">
    <rdf:RDF>
      <cc:Work
         rdf:about="">
        <dc:format>image/svg+xml</dc:format>
        <dc:type
           rdf:resource="http://purl.org/dc/dcmitype/StillImage" />
        <dc:title></dc:title>
      </cc:Work>
    </rdf:RDF>
  </metadata>
  <g
     inkscape:label="Layer 1"
     inkscape:groupmode="layer"
     id="layer1"
     transform="translate(-134.20008,-431.40543)">
    <path
       style="fill:#414141"
       d="m 163.91851,500.82992 c -11.02516,-1.39581 -22.0423,-9.79243 -27.09969,-20.65379 -2.25764,-4.84856 -2.66217,-7.05059 -2.61526,-14.23579 0.0487,-7.46259 0.43187,-9.23676 3.13928,-14.53662 11.62469,-22.75584 40.98517,-26.92138 57.815,-8.20255 6.24521,6.94616 8.71923,14.19653 8.2711,24.23917 -0.94976,21.28435 -18.43188,36.05817 -39.51043,33.38958 z m 8.84458,-24.88958 c 0.57519,-1.65 1.27988,-3 1.56597,-3 0.28608,0 2.05772,1.35 3.93697,3 2.57736,2.26296 4.3987,3 7.4134,3 5.55868,0 6.00675,-2.06998 1.52247,-7.03354 -3.95461,-4.37729 -3.94471,-4.50603 0.83887,-10.91074 3.77485,-5.05413 3.3957,-6.05572 -2.29244,-6.05572 -4.79366,0 -4.90071,0.0695 -7.30806,4.74749 -1.34373,2.61112 -3.20451,4.89411 -4.13508,5.07332 -1.42585,0.2746 -1.69194,-0.55069 -1.69194,-5.24748 0,-6.02026 -0.17541,-6.16017 -7,-5.58344 -3.61161,0.30521 -4.21318,0.9398 -2.50768,2.6453 2.61511,2.6151 1.3584,10.62666 -1.39954,8.92216 -0.62195,-0.38439 -2.25484,-2.91704 -3.62865,-5.62812 -2.3627,-4.66256 -2.71331,-4.92923 -6.48098,-4.92923 -4.58803,0 -4.7523,0.55623 -1.85758,6.28984 3.92098,7.76638 9.0788,13.89844 13.30475,15.81783 6.04436,2.74529 8.47285,2.46854 9.71952,-1.10767 z"
       id="path3346"
       inkscape:connector-curvature="0"
       sodipodi:nodetypes="sssssssssssssssssssssssss" />
  </g>
</svg>
