<?xml version="1.0" encoding="UTF-8" standalone="no"?>
<!-- Created with Inkscape (http://www.inkscape.org/) -->

<svg
   xmlns:dc="http://purl.org/dc/elements/1.1/"
   xmlns:cc="http://creativecommons.org/ns#"
   xmlns:rdf="http://www.w3.org/1999/02/22-rdf-syntax-ns#"
   xmlns:svg="http://www.w3.org/2000/svg"
   xmlns="http://www.w3.org/2000/svg"
   xmlns:sodipodi="http://sodipodi.sourceforge.net/DTD/sodipodi-0.dtd"
   xmlns:inkscape="http://www.inkscape.org/namespaces/inkscape"
   width="70.682655mm"
   height="86.843025mm"
   viewBox="0 0 250.45035 307.71151"
   id="svg4779"
   version="1.1"
   inkscape:version="0.91 r13725"
   sodipodi:docname="ornament.svg">
  <defs
     id="defs4781" />
  <sodipodi:namedview
     id="base"
     pagecolor="#ffffff"
     bordercolor="#666666"
     borderopacity="1.0"
     inkscape:pageopacity="0.0"
     inkscape:pageshadow="2"
     inkscape:zoom="0.35"
     inkscape:cx="-21.775771"
     inkscape:cy="181.42396"
     inkscape:document-units="px"
     inkscape:current-layer="layer1"
     showgrid="false"
     fit-margin-top="0"
     fit-margin-left="0"
     fit-margin-right="0"
     fit-margin-bottom="0"
     inkscape:window-width="1366"
     inkscape:window-height="706"
     inkscape:window-x="-8"
     inkscape:window-y="-8"
     inkscape:window-maximized="1" />
  <metadata
     id="metadata4784">
    <rdf:RDF>
      <cc:Work
         rdf:about="">
        <dc:format>image/svg+xml</dc:format>
        <dc:type
           rdf:resource="http://purl.org/dc/dcmitype/StillImage" />
        <dc:title></dc:title>
      </cc:Work>
    </rdf:RDF>
  </metadata>
  <g
     inkscape:label="Layer 1"
     inkscape:groupmode="layer"
     id="layer1"
     transform="translate(117.50994,-406.07465)">
    <path
       style="fill:#363636"
       d="m -44.533217,713.75952 c -6.1499,-0.8963 -17.5805,-4.4761 -20.162,-6.3143 -3.0079,-2.1417 -4.3983,-5.6339 -3.5441,-8.9006 0.4511,-1.7248 0.016,-1.984 -3.3285,-1.984 -2.1161,0 -4.0816,-0.379 -4.3679,-0.8422 -0.2863,-0.4632 1.5045,-0.8728 3.9795,-0.9102 2.475,-0.037 5.5919,-0.7835 6.9263,-1.6578 3.07,-2.0116 3.5908,-1.9987 2.7973,0.069 -0.5584,1.4553 -0.045,1.578 4.1783,0.9991 8.2996,-1.1376 11.7957,-2.4594 19.5211,-7.3805 8.3771,-5.3362 18.0036,-12.4203 17.9932,-13.241 0,-0.2951 -1.5723,-1.6025 -3.4855,-2.9055 -1.9133,-1.3029 -3.1907,-2.8349 -2.8387,-3.4045 0.352,-0.5695 0.1957,-0.7609 -0.3474,-0.4252 -0.5431,0.3356 -2.7095,-0.5599 -4.8142,-1.9901 -2.1047,-1.4302 -6.5356,-4.1314 -9.8464,-6.0028 -5.0503,-2.8546 -6.4335,-3.2402 -8.5903,-2.3946 -8.0658,3.1624 -26.5844,4.1852 -32.1185,1.7741 -3.5364,-1.5408 -3.5572,-1.535 -6.5,1.8053 -3.2049,3.6379 -3.3518,4.1011 -4.1266,13.0068 -0.4914,5.6474 -0.3106,6.3071 3.0762,11.2259 1.979,2.8742 3.5982,5.6145 3.5982,6.0895 0,0.8774 4.3958,3.3032 6.8416,3.7755 1.685,0.3253 2.6481,1.2527 1.9872,1.9136 -0.8699,0.87 -7.2425,-1.713 -9.181,-3.7213 -1.0187,-1.0554 -3.3812,-4.2406 -5.25,-7.0782 -2.9393,-4.4632 -3.3978,-5.9921 -3.3978,-11.3307 0,-4.9331 0.6064,-7.324 3.0224,-11.917 1.6624,-3.1601 2.8999,-5.8143 2.75,-5.8982 -0.1498,-0.084 -2.675,-1.9314 -5.6116,-4.1058 -8.237103,-6.0989 -10.271603,-11.1005 -9.060803,-22.2745 0.9144,-8.4379 3.9408,-14.45 10.169003,-20.2009 l 3.9827,-3.6776 -2.9959,-0.5991 c -4.8908,-0.9782 -11.647003,-8.5518 -13.049703,-14.6286 -1.2418,-5.3798 -0.2831,-13.07 1.9674,-15.7817 0.5893,-0.71 0.7697,-1.2909 0.4009,-1.2909 -1.6604,0 5.960203,-9.31236 9.394903,-11.4806 l 3.83,-2.4178 -1.9481,-3.9376 c -3.0415,-6.1474 -2.7956,-11.1256 0.8382,-16.9713 l 3.1069,-4.9978 -3.2652,-3.1648 c -1.7958,-1.74059 -3.7291,-4.1469 -4.2962,-5.3474 -4.170903,-8.8301 -4.483103,-10.1214 -3.916103,-16.1941 l 0.576003,-6.1674 -5.025903,-4.9106 c -6.5797,-6.42878 -7.8689,-9.0961 -7.8689,-16.2799 0,-3.2827 -0.6334,-7.2426 -1.4075,-8.7997 -3.712,-7.4662 -3.8625,-8.2733 -3.3605,-18.0205 0.3277,-6.3619 1.2871,-12.0954 2.7293,-16.3105 3.6523,-10.6745 14.4588,-22.5297 26.038703,-28.56555 4.2958,-2.2391 18.6428,-4.3762 25.7501,-3.8356 2.8875,0.2196 7.6125,0.5938 10.5,0.8315 5.3854,0.4432 17.5214,4.34565 23.7499,7.63695 1.925,1.0172 6.2736,2.9825 9.6636,4.3674 3.389997,1.3849 11.2649966,5.8124 17.4999966,9.839 13.4307004,8.6735 29.1294004,17.7263 30.7398004,17.7263 1.2627,0 13.4267,-7.3475 16.5966,-10.025 3.6162,-3.0544 23.2155,-11.7503 32.5113,-14.4246 12.5727,-3.6171 22.444,-4.2462 32.4887,-2.0705 7.3109,1.5835 8.4123,2.1543 12.7871,6.6264 2.6329,2.6916 5.2204,4.8937 5.75,4.8937 0.5296,0 0.9629,0.81 0.9629,1.8 0,0.99 0.5424,2.3424 1.2054,3.0054 2.9166,2.9166 0.5381,14.83 -4.4345,22.2115 -1.5186,2.2544 -1.5475,2.9325 -0.2771,6.5 4.7617,13.3714 -1.753,30.0332 -14.9871,38.331 -3.4605,2.1697 -8.0277,4.5388 -10.1492,5.2647 -2.1216,0.7259 -4.0134,1.4159 -4.2039,1.5333 -0.1905,0.1175 1.1314,2.3614 2.9375,4.9865 2.8531,4.1468 3.2758,5.5664 3.2222,10.8203 -0.071,6.9707 -2.1617,12.4963 -5.8154,15.3703 l -2.5525,2.0078 2.5583,3.7698 c 2.0709,3.0517 2.4757,4.6393 2.1248,8.3346 -0.5505,5.7975 -1.5245,10.2145 -2.5433,11.5337 -0.438,0.5671 -1.0348,2.0077 -1.3263,3.2014 -0.4058,1.6616 0.011,2.3062 1.7785,2.7497 3.2079,0.8052 8.0711,5.0889 9.8693,8.6933 3.2878,6.5907 -0.044,23.7369 -5.9844,30.7967 -2.4136,2.8683 -3.1285,5.09 -1.6379,5.09 0.8897,0 4.6879,5.9739 4.7683,7.5 0.029,0.55 0.6277,2.6914 1.3305,4.7587 1.3007,3.8266 1.093,7.0994 -0.9039,14.2413 -0.6152,2.2 -1.3492,4.9317 -1.6311,6.0704 -0.282,1.1388 -2.7257,4.4776 -5.4305,7.4197 -4.0145,4.3667 -4.9177,6.0193 -4.9177,8.998 0,3.7035 -2.6785,14.0974 -3.8685,15.0119 -0.3579,0.275 -1.5408,2.1962 -2.6288,4.2693 -2.0429,3.8925 -6.4177,8.4137 -12.5027,12.9211 -3.9716,2.9419 -12.131,4.2301 -25.5,4.026 -16.7162,-0.2553 -24.8831,-2.126 -36.2029,-8.2926 -3.9616004,-2.1581 -7.5616004,-3.9235 -8.0000004,-3.9232 -0.4384,4e-4 -3.4504,2.1379 -6.6933,4.75 -8.8884996,7.1598 -11.2036996,8.5724 -20.6037966,12.5716 -6.5437,2.784 -19.4907,6.2424 -22,5.8767 z m 10.3922,-3.304 c 14.6123,-4.3278 22.323597,-8.5509 32.9356966,-18.0372 l 3.8279,-3.4218 -3.58229999,-2.468 c -1.97030001,-1.3573 -6.71270001,-4.6728 -10.53869961,-7.3676 l -6.956397,-4.8998 -5.6399,4.3998 c -5.7172,4.4599 -13.0731,9.2588 -19.4385,12.6812 -3.2774,1.7621 -9.6465,3.4165 -18.1482,4.7141 -2.8283,0.4317 -3.7888,1.1173 -4.2742,3.0511 -1.34,5.3393 3.7072,9.6006 13.9789,11.8021 9.2582,1.9842 9.6358,1.9746 17.8357,-0.4539 z M 70.96678,699.06802 c 8.0642,-3.3496 18.5296,-18.3025 19.7771,-28.2574 0.5229,-4.1726 0.063,-5.0415 -1.8271,-3.4498 -3.1678,2.6681 -13.0257,5.3912 -20.1812,5.5746 -6.2852,0.1611 -19.8225,-1.3386 -24.7688,-2.7439 -0.55,-0.1563 -2.8804,-0.8738 -5.1786,-1.5944 -3.9179,-1.2285 -4.4558,-1.1478 -8.624,1.295 -2.445,1.4328 -7.0897,5.0846 -10.3214,8.115 -3.2318,3.0303 -6.2135,5.5196 -6.626,5.5316 -0.4125,0.012 -0.75,0.6749 -0.75,1.473 0,1.6241 9.6145,7.2729 18,10.5754 13.8756,5.4648 31.9779,7.0206 40.5,3.4809 z m -49.5676,-24.498 c 2.4378,-2.2615 5.7003,-4.8608 7.25,-5.7762 3.5574,-2.1014 3.528,-2.5266 -0.2738,-3.9616 -2.0081,-0.758 -2.83,-1.5898 -2.3455,-2.3737 0.4511,-0.73 0.3253,-0.947 -0.3183,-0.5492 -1.509,0.9326 -4.3633,-0.3479 -3.5845,-1.608 0.3833,-0.6203 0.167,-0.752 -0.5288,-0.322 -0.6481,0.4006 -4.1204,-0.918 -7.7232,-2.9329 l -6.5458004,-3.6606 -3.6954,2.4456 c -4.67,3.0904 -15.1670996,12.644 -15.1670996,13.8039 0,0.4806 1.3774,1.5862 3.0607996,2.4568 1.6835,0.8705 6.4853,4.009 10.6708,6.9744 l 7.61,5.3916 3.5792004,-2.8881 c 1.9686,-1.5885 5.5738,-4.7385 8.0116,-7 z m 59.9195,-5.5541 c 4.9323,-1.7178 9.07,-4.4451 9.1167,-6.0091 0.071,-2.3965 -6.7103,-7.3535 -12.23,-8.9394 -8.9351,-2.5672 -15.8225,-1.5484 -27.4224,4.0564 -8.841,4.2718 -9.5323,4.8056 -7.8328,6.0483 1.0253,0.7497 3.3609,1.6439 5.1903,1.9871 1.8295,0.3432 3.3266,0.9114 3.327,1.2627 4e-4,0.3513 1.0129,0.7342 2.25,0.8509 1.2371,0.1167 4.4993,0.6263 7.2493,1.1324 7.7407,1.4245 15.5739,1.2747 20.3519,-0.3893 z m -89.4485004,-5.2169 c 2.8031,-2.6189 7.0492,-6.4089 9.4356,-8.4222 l 4.3391,-3.6605 -4.2554,-3.8279 c -9.7076,-8.7321 -12.4068996,-11.5327 -12.1162996,-12.5712 0.1686,-0.6023 -0.5006,-0.4565 -1.4869,0.3241 -0.9864,0.7806 -2.2493,1.7411 -2.8065,2.1345 -0.5571,0.3934 -2.647397,2.0809 -4.644997,3.75 -1.9976,1.6691 -4.08,3.0348 -4.6276,3.0348 -0.5475,0 -1.5557,0.675 -2.2404,1.5 -0.6847,0.825 -1.858,1.5 -2.6074,1.5 -0.7494,0 -3.73,1.4567 -6.6235,3.2371 -4.1137,2.5312 -4.8322,3.3196 -3.2951,3.6157 1.7202,0.3313 16.4362,8.8696 21.982797,12.7546 2.898,2.0298 3.3501,1.8596 8.9465996,-3.369 z m 55.5966004,-5.4434 c 12.0963,-5.9183 15.0791,-6.8698 21.6954,-6.9205 8.1732,-0.063 16.9791,1.6275 20.3954,6.7921 l 3.5907,3.4283 3.5767,-3.959 c 3.9827,-4.4083 5.6694,-7.1991 6.3164,-10.4508 1.8011,-9.0532 2.2307,-14.067 1.3938,-16.2681 -0.5163,-1.3581 -1.1353,-3.5532 -1.3756,-4.8781 -0.4642,-2.5603 -4.6183,-8.7685 -5.5431,-8.2841 -5.6278,2.9478 -12.5417,5.7609 -16.3141,6.6378 -6.1331,1.4256 -20.9579,1.4199 -29.6243,-0.011 l -6.7739,-1.1187 -7.272,5.6187 c -3.9997,3.0903 -7.6088,5.6187 -8.0204,5.6187 -0.4116,0 -2.0828,1.2375 -3.7138,2.75 -1.6311,1.5125 -5.0926,4.7058 -7.6923,7.0963 l -4.7268,4.3462 4.483,2.8431 c 2.4657,1.5637 7.0374,4.0938 10.1593,5.6225 3.1219,1.5286 5.8543,3.2434 6.072,3.8106 0.7655,1.9949 5.9503,0.9583 13.3736,-2.6737 z m -101.749997,-1.88 c 4.4254,-1.1708 4.8437,-2.6319 1,-3.493 -1.5125,-0.3389 -4.325,-1.0199 -6.25,-1.5135 -4.7939,-1.2291 -15.264,-1.1388 -18.6831,0.1611 -1.5473,0.5883 -3.6179,1.7978 -4.6013,2.6878 -1.695,1.534 -1.6171,1.6837 1.4982,2.8766 3.6831,1.4104 20.6976,0.9579 27.0362,-0.719 z m -8.8253,-7.4563 c 7.5241,0.4305 13.664,1.3431 16.6378,2.473 l 4.713,1.7908 5.3622,-3.3386 c 2.9493,-1.8363 5.7619,-3.3489 6.2502,-3.3613 0.947,-0.024 16.612097,-11.0818 16.612097,-11.7262 0,-1.1139 -9.848997,-10.6841 -12.299597,-11.9513 -1.8463,-0.9548 -2.6603,-2.0072 -2.2929,-2.9646 0.3327,-0.867 0.1424,-1.2204 -0.4575,-0.8496 -0.565,0.3492 -5.1438,-2.1847 -10.1752,-5.6308 -6.5385,-4.4783 -10.0219,-6.2455 -12.2114,-6.1953 -5.0891,0.1168 -13.8948,1.3012 -16.7534,2.2534 -1.751,0.5832 -5.4163,0.4099 -10.5,-0.4962 -10.9338,-1.9491 -11.435,-1.8828 -15.4782,2.0443 -4.9612,4.8187 -6.995503,9.5818 -8.187203,19.1684 -1.3043,10.4923 1.675,13.3412 8.175003,20.8637 l 5.3699,4.2146 6.6553,-3.4883 6.6552,-3.4883 z m 84.777097,-9.5504 c 5.114,-4.4504 11.8761,-9.9088 15.0269,-12.1299 5.5943,-3.9436 6.4963,-5.7784 2.8407,-5.7784 -0.9969,0 -6.3481,-1.9688 -11.8916,-4.375 -8.8211,-3.829 -10.3037,-4.2043 -11.8784,-3.0071 -0.9897,0.7524 -4.6693,3.6212 -8.1769004,6.3751 -3.5076,2.7538 -6.65759999,4.9887 -6.99999999,4.9664 -0.694,-0.045 3.92939999,-4.1973 11.12800039,-9.9933 l 4.7505,-3.825 -9.2505004,-7.1154 c -5.0878,-3.91346 -10.9196,-9.74455 -14.0986,-10.9428 l -4.8480996,-3.8274 -12.829397,6.3694 c -7.0561,3.50315 -14.0803,6.845 -15.6092,7.4263 -2.7617,1.05 -2.7313,1.0837 4.6775,5.1736 4.1015,2.2642 13.1298,7.21684 18.918697,12.4217 l 11.4612996,8.305 2.2887,-2.1501 c 1.2587,-1.1825 2.28860001,-1.6767 2.28860001,-1.0982 0,0.5786 -0.69410001,1.6279 -1.54240001,2.332 -1.07,0.888 -1.2232,1.5992 -0.5,2.3224 0.5733,0.5733 1.0711,2.1899 1.1061,3.5924 0.046,1.8529 1.75450001,3.9852 6.2486,7.8 3.4017,2.8875 6.5014004,5.25 6.8881004,5.25 0.3867,0 4.8873,-3.6412 10.0014,-8.0917 z m -24.2018004,-6.8493 c 0,-1.3504 -1.8229,-2.2865 -3.0163,-1.5489 -0.559,0.3454 -0.7574,1.047 -0.441,1.559 0.7507,1.2146 3.4573,1.2067 3.4573,-0.01 z m -7.4765996,-5.5366 c -2.1871,-1.8714 -4.2118,-3.1674 -4.4993,-2.8798 -0.7288,0.7287 5.7304996,6.3658 7.2416996,6.3199 0.6788,-0.021 -0.5553,-1.5687 -2.7423996,-3.4401 z m -10.840297,-3.7099 c -0.3192,-0.7977 -0.5562,-0.5608 -0.6042,0.6042 -0.043,1.0541 0.193,1.6448 0.5253,1.3125 0.3323,-0.3323 0.3678,-1.1948 0.079,-1.9167 z m 109.980997,-3.259 c 2.9347,-1.3436 5.3248,-2.8052 5.3113,-3.2482 -0.041,-1.3275 -6.857,-4.3079 -9.7665,-4.2702 -1.4899,0.019 -5.5214,0.6386 -8.9589,1.3761 -7.5509,1.62 -8.4264,0.3173 -1,-1.4879 7.4786,-1.818 13.7527,-1.6255 17.4087,0.5342 1.7151,1.0131 3.7959,1.582 4.624,1.2642 2.9121,-1.1174 6.587,-7.2996 8.7836,-14.7763 2.958,-10.0688 2.2402,-15.2784 -2.8668,-20.8066 -5.4482,-5.8975 -6.8214,-5.9276 -12.8564,-0.2824 -2.8364,2.6531 -6.6614,5.3986 -8.5,6.101 -1.8387,0.7024 -4.896,1.9633 -6.7939,2.8021 -2.7215,1.2026 -5.786,1.39993 -14.5,0.9336 l -11.0492,-0.5913 -6.2603,5.1991 c -3.4431,2.85947 -8.7077,7.2241 -11.699,9.6991 -2.9914,2.475 -5.3216,4.9204 -5.1784,5.4342 0.4419,1.5849 11.8004,7.4752 18.4132,9.5488 6.1453,1.9269 6.3736,1.9292 11,0.1145 5.3481,-2.0979 14.1635,-3.7813 12.8912,-2.4617 -0.4584,0.4753 -1.1334,0.8911 -1.5,0.9239 -2.8716,0.257 -12.1667,2.9025 -12.1667,3.4628 0,0.6566 7.6324,2.4358 14.5,3.38 5.9784,0.8219 14.8987,-0.4384 20.1641,-2.849 z m -48.2141,-1.4937 c -1.3569,-1.3428 -6.3158,-2.0859 -6.9604,-1.0429 -0.2987,0.4832 0.3595,0.7047 1.4627,0.4923 1.1031,-0.2124 2.2667,0.036 2.5857,0.5523 0.319,0.5162 1.3185,0.9385 2.221,0.9385 1.0314,0 1.2881,-0.3493 0.691,-0.9402 z m -7.45,-3.5694 c 0,-1.0626 -2.9366,-1.0981 -3.3424,-0.04 -0.3468,0.9036 0.1029,1.1639 1.4172,0.8202 1.0589,-0.2769 1.9252,-0.6278 1.9252,-0.7798 z m -92.749997,-8.1517 c 3.1625,-0.3185 5.75,-0.8899 5.75,-1.2698 0,-1.0416 -8.6132,-2.9315 -16.5,-3.6205 -5.8841,-0.5141 -7.7705,-0.2664 -11.8331,1.5536 -2.6582,1.1908 -4.6811,2.3172 -4.4952,2.503 0.1859,0.1859 2.5478,0.5979 5.2488,0.9155 2.701,0.3177 5.1739,0.8465 5.4952,1.1751 0.3214,0.3286 2.8343,0.3106 5.5843,-0.04 2.75,-0.3507 7.5875,-0.8983 10.75,-1.2168 z M 41.94828,591.56062 c 4.604,-3.6597 5.4481,-5 3.1488,-5 -3.0764,0 -14.2285,-4.2148 -22.6208,-8.5493 -4.9412,-2.552 -9.5104,-4.3072 -10.2223,-3.9267 -3.1203004,1.668 -16.7450004,11.0245 -16.7110004,11.476 0.04,0.526 6.019,2.40676 18.6349004,15.1961 l 8.5781,6.696 7.3946,-6.196 c 4.0671,-3.40788 9.376,-7.7711 11.7977,-9.6961 z m -108.981497,8.6314 c 8.273,0.099 12.399,0.6343 16.6434,2.1595 l 5.6433,2.028 7.8567,-3.7227 c 14.7721,-6.99939 23.374297,-11.5432 23.115397,-12.2099 -0.1423,-0.3666 -4.303797,-3.8441 -9.247797,-7.7278 -10.5676,-8.3015 -23.4029,-16.1585 -26.3966,-16.1585 -1.1629,0 -2.1144,-0.3611 -2.1144,-0.8025 0,-1.0537 -7.96,-3.7116 -15.5,-5.1755 -6.5117,-1.2642 -17.7107,-0.8899 -18.2102,0.6086 -0.1705,0.5114 2.9571,2.2053 6.9501,3.7642 6.607,2.5795 8.0948,2.7915 16.5389,2.3577 11.3506,-0.5833 11.3479,0.2692 0,1.2673 -8.9515,0.787 -14.7286,-0.3106 -22.3875,-4.2535 l -4.1128,-2.1172 -4.4657,2.6171 c -8.124203,4.76113 -12.542003,14.7117 -11.522603,25.9537 0.5065,5.5854 0.9422,6.5358 4.586003,10.0029 2.2146,2.1071 5.4698,4.438 7.2339,5.1798 2.9269,1.2306 3.6969,1.1189 8.8007,-1.277 5.0545,-2.3727 6.6527,-2.6129 16.5932,-2.4942 z M 74.46678,585.06042 c 6.6823,-1.761 16,-8.0446 16,-10.7898 0,-2.0831 -20.2893,2.0764 -28.75,5.894 -7.6765,3.4637 -6.9774,4.4045 4.25,5.7192 3.1618,0.3702 4.4414,0.2463 8.5,-0.8234 z m -76.7977004,-2.8624 c 6.2478,-4.2398 13.7983004,-10.0523 13.7708004,-10.6009 -0.015,-0.2951 -1.7023004,-1.5684 -3.7500004,-2.8296 -2.0477,-1.2611 -5.7481,-4.0762 -8.22309999,-6.2558 -2.47500001,-2.1795 -7.35720001,-5.8421 -10.84939961,-8.1391 -5.1655,-3.3977 -6.657097,-3.9633 -7.999997,-3.0334 -0.9078,0.6287 -6.0278,3.2982 -11.3777,5.9322 -5.3499,2.6341 -9.7374,5.0363 -9.75,5.3383 -0.013,0.302 1.45,1.0817 3.2502,1.7327 3.553,1.2848 15.9444,9.2682 24.726897,15.9309 3.0249996,2.2949 5.7746996,4.1983 6.1104996,4.2299 0.3357,0.032 2.177,-1.0057 4.0918,-2.3052 z m 60.4813004,-1.6 c 5.619,-3.4562 22.3797,-8.0374 29.4056,-8.0374 4.6257,0 4.9648,-0.1882 6.7566,-3.75 1.0375,-2.0625 2.4756,-6.0888 3.1959,-8.9474 1.17,-4.6438 1.1148,-5.6292 -0.518,-9.25 -1.0051,-2.2289 -2.1557,-4.0526 -2.5569,-4.0526 -0.4012,0 -1.9307,1.575 -3.399,3.5 -1.4683,1.925 -3.5201,3.5 -4.5597,3.5 -1.0395,0 -2.1408,0.4057 -2.4473,0.9016 -0.3065,0.4959 -3.3705,1.2636 -6.809,1.706 -7.175,0.9231 -8.2607,0.9309 -15.7518,0.1129 -5.7405,-0.6269 -6.5074,-0.7746 -14.2217,-2.7405 -4.3863,-1.1177 -5.0257,-1.025 -9.0012,1.3048 -2.3538,1.3793 -5.1362,3.4546 -6.1833,4.6116 -1.0471,1.157 -2.3081,2.1036 -2.8022,2.1036 -1.1145,0 -7.7915,5.2625 -7.7916,6.1409 0,1.6377 26.9901,15.2958 31.1836,15.7802 0.3759,0.043 2.8509,-1.2542 5.5,-2.8837 z m -31.9827,-18.7874 c 3.7382,-2.6125 7.5848,-5.5375 8.5479,-6.5 0.9632,-0.9625 2.3711,-1.75 3.1288,-1.75 0.7576,0 1.916,-0.6488 2.5741,-1.4418 0.9867,-1.1889 0.4379,-1.8239 -3.1275,-3.6194 -2.3783,-1.1977 -8.6525,-5.2739 -13.9426,-9.0582 -5.2901,-3.7843 -10.3709,-6.8806 -11.2905,-6.8806 -0.9196,0 -2.8914004,0.8278 -4.3816004,1.8396 -1.4902,1.0118 -6.0056,3.9627 -10.0341,6.5576 -8.3084996,5.3517 -8.3077996,5.4007 0.1515,10.7866 2.84520001,1.8115 8.5481,5.8838 12.6731004,9.0495 4.125,3.1657 7.8159,5.7583 8.2021,5.7613 0.3861,0 3.7606,-2.1321 7.4988,-4.7446 z m -58.069197,-5.1829 c 15.197497,-7.5968 14.805597,-6.6162 5.4315,-13.5897 -11.7055,-8.7078 -17.6499,-11.5996 -22.5632,-10.9766 -3.5859,0.4547 -3.7412,0.3907 -1.5,-0.6178 2.4896,-1.1203 2.4816,-1.1332 -1.9235,-3.1175 -5.121,-2.3067 -18.6256,-4.8714 -20.9752,-3.9835 -2.4461,0.9244 -11.1013,7.3028 -11.1013,8.181 0,1.3811 7.2987,2.0168 15.75,1.3717 5.6159,-0.4287 8.25,-0.2859 8.25,0.4471 0,0.7203 -4.4329,-0.28617 -13.1191,0.9619 l -13.1191,-0.115 -2.8809,3.8638 c -3.924,5.26279 -4.0334,11.9843 -0.2679,16.4594 2.2033,2.6185 2.8554,2.9049 4.1589,1.8268 1.0853,-0.8977 5.1488,-1.2454 13.637,-1.1669 10.1188,0.093 13.3145,0.526 19.5911,2.6514 4.125,1.3968 8.2343,2.584 9.1317,2.6382 0.8975,0.054 6.0725,-2.1212 11.5,-4.8343 z m -27.6317,-21.9997 c 0,-0.5871 0.6382,-1.0674 1.4182,-1.0674 0.78,0 2.2425,-0.2912 3.25,-0.6472 1.2495,-0.4414 1.5139,-0.3182 0.8318,0.3876 -1.5461,1.5999 -5.5,2.5538 -5.5,1.327 z m 144.731797,17.5652 c 3.2783,-1.7026 7.6164,-7.2602 6.755,-8.654 -0.3327,-0.5382 -1.4571,-0.9786 -2.4988,-0.9786 -1.0416,0 -3.067,-0.5345 -4.5007,-1.1877 -3.1495,-1.435 -11.0086,-0.091 -22.4873,3.847 -9.2442,3.171 -10.1398,3.9333 -6.4128,5.4579 9.0326,3.695 23.4992,4.4472 29.1446,1.5154 z m -20.2318,-9.0589 c 10.6162,-3.7555 17.1815,-4.4051 25.3914,-2.5124 3.969,0.915 4.5942,0.7961 6.5,-1.2359 2.579,-2.7498 4.5731,-8.9647 4.5934,-14.3167 0.011,-2.9767 -0.9163,-5.3438 -3.6487,-9.3112 l -3.664,-5.3199 -6.086,0.6572 c -3.3474,0.36147 -8.5611,0.6125 -11.5861,0.5578 -5.8108,-0.1052 -23.1706,-4.0076 -22.5188,-5.0621 0.9378,-1.5174 -20.1226,9.5157 -21.2973,11.1572 -0.7238,1.0115 -2.9738,2.7177 -5,3.7917 -2.0261,1.0739 -4.7489,2.797 -6.0507,3.829 l -2.3667,1.8764 5.3667,3.275 c 2.9518,1.8012 7.203,4.7648 9.4473,6.5857 7.4925,6.0789 15.7298,10.574 18.4195,10.0514 1.375,-0.2672 7,-2.0776 12.5,-4.0232 z m -69.1805004,-2.8237 c 3.63880001,-2.3375 8.4305,-5.353 10.6482,-6.701 2.2178,-1.3481 4.0226004,-2.6981 4.0107004,-3 -0.012,-0.302 -2.3743004,-2.2403 -5.2500004,-4.3074 -2.8756,-2.0672 -7.4784,-5.7675 -10.2284,-8.223 -2.75,-2.4555 -5.4840996,-4.4767 -6.0756996,-4.4915 -0.5916,-0.015 -2.1666,1.1434 -3.5,2.5741 -2.5045,2.6872 -14.329797,9.2626 -19.174297,10.6618 -1.5125,0.4368 -2.7445,1.1188 -2.7377,1.5156 0.01,0.3968 3.2692,2.6526 7.25,5.0129 3.9807,2.3603 9.4243,5.8478 12.096897,7.75 2.6725,1.9022 5.1933,3.4585 5.6017,3.4585 0.4084,0 3.7197996,-1.9125 7.3585996,-4.25 z m -80.2224966,-10.8845 c 1.3216,-1.174 5.2569,-3.4858 8.745,-5.1373 5.7147,-2.7058 7.0141,-2.9465 13.1357,-2.4333 3.7365,0.3133 10.1076,1.7081 14.158,3.0995 5.6863,1.9535 8.1765,2.3443 10.9287,1.715 5.1876,-1.1862 17.9644,-10.65639 22.334797,-12.0042 l 2.7196,-2.8387 -7.675497,-5.8832 c -4.2215,-3.23576 -10.1976,-7.5409 -13.2802,-9.5669 l -5.6047,-3.6835 -5.0292,2.5946 c -7.6245,3.93355 -8.3998,4.2725 -9.7736,4.2725 -0.6993,0 -3.2929,1.0743 -5.7636,2.3873 -7.3829,3.9238 -30.0921,6.235 -35.0726,3.5696 -2.2282,-1.1925 -2.6964,-0.4808 -3.2711,4.9736 -0.4523,4.2925 3.4927,14.2901 7.1595,18.1438 3.275,3.4419 3.3013,3.4452 6.2892,0.7912 z m 110.146397,-8.6155 c 3.9015,-2.6125 8.9303,-5.9815 11.1751,-7.4866 2.2448,-1.5051 5.994,-3.4788 8.3315,-4.3859 4.0575,-1.5745 5.6578,-3.3766 3,-3.3783 -2.1103,0 -13.4395,-5.7015 -20.8156,-10.473 -7.4851,-4.8421 -9.3717,-5.3373 -11.8557,-3.1117 -0.8683,0.778 -3.6679,2.9155 -6.2213004,4.75 -6.9553,4.9971 -15.1524,11.8355 -14.187,11.8355 0.4675,0 1.9704,1.0125 3.3398,2.25 1.36940001,1.2375 4.2898,3.5924 6.4898,5.2331 2.2,1.6407 4.675,3.5291 5.5000004,4.1964 0.825,0.6672 2.625,2.1224 4,3.2336 1.375,1.1112 2.8712,2.0353 3.3249,2.0536 0.4537,0.018 4.017,-2.1042 7.9185,-4.7167 z m 55.2566,-11.25 c 0.3399,-0.55 0.1415,-1 -0.441,-1 -0.5824,0 -1.059,0.45 -1.059,1 0,0.55 0.1984,1 0.441,1 0.2425,0 0.7191,-0.45 1.059,-1 z m 9.5,-2.8914 c 0,-1.7293 -8.1104,-4.1077 -13.7702,-4.0383 -6.4019,0.079 -10.7693,1.3037 -8.2298,2.3086 5.7301,2.2675 22,3.5467 22,1.7297 z m 15.3951,-2.5986 c 8.7573,-4.3017 9.2556,-4.7044 14.2429,-11.51 4.0366,-5.5084 6.362,-11.4723 6.362,-16.3168 0,-3.8355 -2.0487,-12.6832 -2.9368,-12.6832 -0.4242,0 -1.985,1.125 -3.4687,2.5 -1.4836,1.375 -3.0552,2.5 -3.4924,2.5 -0.4371,0 -2.1015,0.64 -3.6985,1.4222 -2.6307,1.2885 -4.3582,1.725 -12.4036,3.1341 -10.2412,1.7937 -36.4045,-0.6456 -42.8887,-3.9987 -1.6566,-0.8567 -3.6404,-1.5576 -4.4086,-1.5576 -0.7681,0 -4.9529,2.3658 -9.2996,5.2572 -4.3467,2.8915 -10.0406,6.3783 -12.6531,7.7483 -2.6125,1.3701 -4.731,2.9418 -4.7077,3.4928 0.094,2.2336 18.4912,12.7412 29.0616,16.599 7.7036,2.8114 8.5995,2.9334 13.2865,1.809 8.481,-2.0345 15.0082,-1.471 21.4179,1.849 3.1304,1.6214 6.3195,3.0148 7.0868,3.0964 0.7673,0.082 4.5923,-1.4222 8.5,-3.3417 z M 3.4227796,499.45212 c 4.6508,-3.8887 9.6008004,-7.9912 11.0000004,-9.1167 1.6424,-1.321 2.1035,-2.204 1.301,-2.4915 -0.6837,-0.2449 -8.2614004,-5.4199 -16.8395004,-11.5 -11.6164996,-8.2337 -15.2545996,-11.2993 -14.2569996,-12.0133 0.984,-0.7043 0.8467,-0.7984 -0.5175,-0.3547 -1.2304,0.4002 -2.999297,-0.3989 -5.242497,-2.3685 -5.2439,-4.6042 -22.0232,-14.119 -29.3244,-16.6285 -10.7116,-3.6817 -16.671,-3.9871 -26.7942,-1.3733 -4.83,1.2471 -9.6819,2.8187 -10.7819,3.4923 -1.1,0.6736 -3.2261,1.509 -4.7247,1.8564 -8.387103,1.9444 -19.413703,20.8079 -15.948303,27.2831 1.7057,3.1871 9.231803,6.3502 13.472003,5.6621 2.4402,-0.396 3.701,-0.2154 3.701,0.5303 0,1.9939 -10.124403,1.3523 -13.774203,-0.8729 -1.8008,-1.098 -3.7133,-1.9963 -4.25,-1.9963 -1.3761,0 -1.1492,7.0682 0.3096,9.6469 1.2837,2.2689 10.471103,12.3531 11.254703,12.3531 0.2529,0 0.4599,-0.9076 0.4599,-2.0168 0,-2.22 7.2759,-9.7232 13.4291,-13.8488 3.7451,-2.5111 4.5408,-2.6344 17,-2.6344 10.654,0 14.6426,0.4354 21.5709,2.3547 4.675,1.2951 9.124,2.6974 9.8866,3.1162 0.8796,0.4831 4.2549,-1.0176 9.2324,-4.1047 4.3153,-2.6764 8.1058,-4.8662 8.4234,-4.8662 0.3177,0 2.646097,-1.5795 5.174397,-3.5099 2.5282,-1.9304 4.8238996,-3.2828 5.1014996,-3.0051 0.7242,0.7241 -4.7810996,5.3704 -8.3182996,7.0203 -3.871897,1.806 -13.624097,7.3858 -15.284297,8.7451 -0.9859,0.8071 -0.2887,1.6434 3,3.5988 2.3564,1.401 7.8843,5.1459 12.284297,8.3221 4.4,3.1761 8.6749996,5.7783 9.4999996,5.7827 0.825,0 5.3052,-3.1738 9.956,-7.0625 z m -70.9559966,3.9555 c 3.025,-0.5851 5.9572,-1.4327 6.5161,-1.8837 0.5588,-0.4509 5.0588,-2.4497 10,-4.4417 4.9411,-1.9919 9.3448,-3.9826 9.7858,-4.4236 0.9141,-0.9139 -11.774,-5.5449 -17.8019,-6.4974 -17.7773,-2.8092 -21.4922,-1.9911 -30.9574,6.8178 -4.7713,4.4404 -5.6482,5.7779 -5.3723,8.1941 0.2958,2.5908 0.7921,2.9536 4.8297,3.5312 5.3024,0.7585 15.2827,0.1958 23,-1.2967 z m 97.483597,-23.847 c 1.088,0 19.5172,-12.1421 19.5079,-12.8528 0,-0.356 -4.0282,-2.6454 -8.9412,-5.0877 -4.9131,-2.4423 -8.6647,-4.8744 -8.337,-5.4046 0.3276,-0.5301 0.1071,-0.6619 -0.4901,-0.2928 -0.5972,0.3691 -2.653,-0.076 -4.5683,-0.9896 -3.4396,-1.6402 -3.5537,-1.6206 -9.2523,1.5956 -3.1734,1.7909 -6.2983,3.7682 -6.9443,4.3941 -0.6461,0.6258 -3.0253004,2.2628 -5.2873004,3.6378 -2.262,1.375 -3.9771,2.95 -3.8113,3.5 0.1657,0.55 5.1642,4.2493 11.1077004,8.2206 l 10.8063,7.2207 2.7675,-1.9707 c 1.5222,-1.0838 3.0712,-1.9706 3.4424,-1.9706 z m -140.2081,-13.0171 c 0.3605,-2.6877 1.9777,-5.9226 4.7713,-9.5435 3.5155,-4.5568 5.674103,-6.1686 12.839603,-9.5872 10.9634,-5.2307 11.4375,-5.406 18.5594,-6.8651 9.2953,-1.9044 20.0387,-1.5258 28.0542,0.9886 8.2156,2.5771 22.1975,9.8787 34.352797,17.9396 4.7559996,3.154 9.1936996,6.0549 9.8616996,6.4466 0.6679,0.3917 2.72730001,-0.317 4.5764,-1.5748 1.849,-1.2579 6.59,-4.4464 10.5355004,-7.0855 3.9455,-2.6392 7.1736,-4.9504 7.1736,-5.1361 0,-0.1857 -3.2625,-2.2434 -7.25,-4.5727 -10.0703004,-5.8827 -19.2580004,-11.7473 -25.815,-16.4779 -3.0607,-2.2082 -12.735697,-7.4969 -21.499997,-11.7527 -17.8023,-8.6445 -23.4297,-10.04105 -38.935,-9.66235 -7.7233,0.1886 -9.9215,0.6582 -15.4958,3.31005 -6.2768,2.9859 -19.004203,14.132 -19.004203,16.643 0,0.5995 -0.6632,1.7532 -1.4738,2.5637 -2.8762,2.8763 -5.2814,13.4788 -5.4547,24.045 -0.1013,6.1837 0.2435,10.4151 0.881,10.809 0.5761,0.3561 1.0475,1.5474 1.0475,2.6474 0,3.4645 1.7054,1.1148 2.2755,-3.1351 z m 219.3951,2.6167 c 5.4542,-1.4522 12.3294,-5.9687 12.3294,-8.0996 0,-1.9787 -6.1889,-6.2011 -11.0688,-7.5517 -5.5822,-1.5449 -19.5931,-1.522 -24.6169,0.04 -2.0979,0.6524 -5.7666,2.0679 -8.1529,3.1455 -2.3862,1.0777 -6.319,2.3294 -8.7396,2.7816 -5.2685,0.9843 -8.1965,2.9762 -6.2191,4.231 1.8539,1.1763 11.2022,3.8441 18.7973,5.3643 8.6925,1.7399 21.3168,1.7803 27.6706,0.089 z m -46.6706,-9.0594 c 12.5755,-4.1071 16.8838,-5.564 21,-7.1013 2.8485,-1.0638 8.17,-1.775 14.5,-1.9379 10.884,-0.2801 16.8433,1.27486 22.824,5.9555 l 3.026,2.3682 1.825,-2.3201 c 1.0038,-1.276 1.825,-3.01 1.825,-3.8533 0,-0.8433 0.3981,-1.7793 0.8846,-2.08 0.4865,-0.3007 1.1859,-2.5561 1.5542,-5.012 1.0359,-6.9078 -0.8867,-11.5692 -7.343,-17.803 -5.1702,-4.9921 -6.3204,-5.6055 -13.51,-7.205 -12.4263,-2.7646 -29.2512,0.3227 -46.2687,8.4902 -5.6822,2.7272 -10.6231,4.9585 -10.9798,4.9585 -0.3567,0 -2.2589,1.2375 -4.2272,2.75 -1.9683,1.5125 -4.3308,3.2 -5.25,3.75 -0.9192,0.55 -3.5137,2.0954 -5.7657,3.4341 -2.2519,1.3388 -4.0944,2.766 -4.0944,3.1716 0,0.6416 23.6711,13.7725 25,13.8682 0.275,0.02 2.525,-0.6254 5,-1.4337 z"
       id="path4173"
       inkscape:connector-curvature="0"
       sodipodi:nodetypes="cccsscccssccccssccscssccscscccscccscssccccscccsscsssccssssssscssscssccscsccscccccsccccsscssssccscccscccccsscscsscscsccssssscccccccccscscssccssssssscsccccccssssscssccscscccssccsscccsccccscccscssccscscscscccssscccssssccccccsscsssscsscscssssccsssccsccsccsccsccccscccscsccccccsssscccssscssscsscccccccsssccscsscccsccssscsccccssccscccssccccccsccccscccsccsssssscccsscccscscssssssscsssssccsssscssccscsssccsccsccscssscccscccccccscsscccscsccscssccccsscsccssccsscssccscsssscscssssssscsssssscssscsccccsscssccsccsssscssscscsscsscssccsccccsccscsscscscscscccsccccscccssscccssssscscccsccscccccsccscssccssssssssscscs" />
  </g>
</svg>
