<?xml version="1.0" encoding="UTF-8" standalone="no"?>
<!-- Created with Inkscape (http://www.inkscape.org/) -->

<svg
   xmlns:dc="http://purl.org/dc/elements/1.1/"
   xmlns:cc="http://creativecommons.org/ns#"
   xmlns:rdf="http://www.w3.org/1999/02/22-rdf-syntax-ns#"
   xmlns:svg="http://www.w3.org/2000/svg"
   xmlns="http://www.w3.org/2000/svg"
   xmlns:sodipodi="http://sodipodi.sourceforge.net/DTD/sodipodi-0.dtd"
   xmlns:inkscape="http://www.inkscape.org/namespaces/inkscape"
   width="535.3125"
   height="311.45917"
   id="svg2"
   version="1.1"
   inkscape:version="0.48.4 r9939"
   sodipodi:docname="oz.svg">
  <defs
     id="defs4">
    <clipPath
       clipPathUnits="userSpaceOnUse"
       id="clipPath4182">
      <path
         d="m 626.886,344.242 139.66,0 0,-21.848 -139.66,0 0,21.848 z"
         id="path4184"
         inkscape:connector-curvature="0" />
    </clipPath>
    <clipPath
       clipPathUnits="userSpaceOnUse"
       id="clipPath4150">
      <path
         d="M 0,758 1024,758 1024,0 0,0 0,758 z"
         id="path4152"
         inkscape:connector-curvature="0" />
    </clipPath>
    <clipPath
       id="clipPath4182-3-1"
       clipPathUnits="userSpaceOnUse">
      <path
         inkscape:connector-curvature="0"
         id="path4184-3-8"
         d="m 626.886,344.242 139.66,0 0,-21.848 -139.66,0 0,21.848 z" />
    </clipPath>
    <clipPath
       id="clipPath4150-17"
       clipPathUnits="userSpaceOnUse">
      <path
         inkscape:connector-curvature="0"
         id="path4152-2"
         d="M 0,758 1024,758 1024,0 0,0 0,758 z" />
    </clipPath>
    <clipPath
       id="clipPath4182-3"
       clipPathUnits="userSpaceOnUse">
      <path
         inkscape:connector-curvature="0"
         id="path4184-3"
         d="m 626.886,344.242 139.66,0 0,-21.848 -139.66,0 0,21.848 z" />
    </clipPath>
    <clipPath
       id="clipPath4182-9"
       clipPathUnits="userSpaceOnUse">
      <path
         inkscape:connector-curvature="0"
         id="path4184-8"
         d="m 626.886,344.242 139.66,0 0,-21.848 -139.66,0 0,21.848 z" />
    </clipPath>
    <clipPath
       id="clipPath4150-1"
       clipPathUnits="userSpaceOnUse">
      <path
         inkscape:connector-curvature="0"
         id="path4152-8"
         d="M 0,758 1024,758 1024,0 0,0 0,758 z" />
    </clipPath>
    <clipPath
       id="clipPath4150-8"
       clipPathUnits="userSpaceOnUse">
      <path
         inkscape:connector-curvature="0"
         id="path4152-4"
         d="M 0,758 1024,758 1024,0 0,0 0,758 z" />
    </clipPath>
    <clipPath
       id="clipPath4182-96"
       clipPathUnits="userSpaceOnUse">
      <path
         inkscape:connector-curvature="0"
         id="path4184-2"
         d="m 626.886,344.242 139.66,0 0,-21.848 -139.66,0 0,21.848 z" />
    </clipPath>
    <clipPath
       id="clipPath16"
       clipPathUnits="userSpaceOnUse">
      <path
         inkscape:connector-curvature="0"
         id="path18"
         d="m 0,302.617 823.44,0 L 823.44,0 0,0 0,302.617 z" />
    </clipPath>
  </defs>
  <sodipodi:namedview
     id="base"
     pagecolor="#ffffff"
     bordercolor="#666666"
     borderopacity="1.0"
     inkscape:pageopacity="0.0"
     inkscape:pageshadow="2"
     inkscape:zoom="0.24748737"
     inkscape:cx="299.89514"
     inkscape:cy="-545.50536"
     inkscape:document-units="px"
     inkscape:current-layer="layer1"
     showgrid="false"
     fit-margin-top="0"
     fit-margin-left="0"
     fit-margin-right="0"
     fit-margin-bottom="0"
     inkscape:window-width="1855"
     inkscape:window-height="1056"
     inkscape:window-x="65"
     inkscape:window-y="24"
     inkscape:window-maximized="1" />
  <metadata
     id="metadata7">
    <rdf:RDF>
      <cc:Work
         rdf:about="">
        <dc:format>image/svg+xml</dc:format>
        <dc:type
           rdf:resource="http://purl.org/dc/dcmitype/StillImage" />
        <dc:title></dc:title>
      </cc:Work>
    </rdf:RDF>
  </metadata>
  <g
     inkscape:label="Layer 1"
     inkscape:groupmode="layer"
     id="layer1"
     transform="translate(509.3989,-174.75421)">
    <g
       transform="matrix(1.25,0,0,-1.25,-923.39857,813.45876)"
       inkscape:label="Zvorska"
       id="g10">
      <g
         id="g3503">
        <g
           id="g3396"
           transform="translate(298.33515,267.06163)">
          <g
             transform="translate(401.02921,-14.836757)"
             id="g12">
            <g
               clip-path="url(#clipPath16)"
               id="g14">
              <g
                 transform="translate(137.0661,80.3084)"
                 id="g20" />
              <g
                 transform="translate(623.9837,106.0452)"
                 id="g28" />
            </g>
          </g>
          <g
             inkscape:label="Layer 1"
             id="layer1-2"
             transform="matrix(0.81639075,0,0,-0.87085028,545.37307,730.54173)">
            <g
               transform="matrix(1.7198378,0,0,1.8730812,-1705.5105,-146.07162)"
               id="g3136">
              <path
                 d="m 720.06662,482.3119 c -6.145,0 -9.72875,-6.25 -9.72875,-17.74625 0,-8.3825 2.45375,-17.93 6.46875,-26.90125 5.57625,13.3325 17.875,21.12375 35.75875,21.12375 2.70375,0 5.47875,-0.2075 8.295,-0.58875 -12.2925,14.00625 -27.325,24.1125 -40.79375,24.1125 m -3.02,-62.5675 c 0,-5.0375 0.8425,-9.6475 2.3325,-13.82 2.08625,0.87875 7.2375,3.14875 13.0175,5.30125 -4.6425,3.72625 -9.14,8.43125 -12.95375,13.77875 -0.65375,0.92 -1.3,1.86875 -1.9425,2.83 -0.305,-2.56625 -0.45375,-5.26625 -0.45375,-8.09 m 19.25375,-8.7075 c 0.075,-0.06 0.15,-0.12375 0.225,-0.1825 5.035,-3.85125 9.58375,-7.36 15.53875,-7.36 3.44875,0 5.76875,2.03125 5.76875,4.86 0,2.84125 -1.895,5.505 -7.6425,5.505 -3.99375,0 -9.03625,-1.23875 -13.89,-2.8225 m 24.57375,-33.3075 c 14.2975,0 24.94125,8.50125 24.94125,25.29625 0,16.64625 -9.98,37.51875 -23.66375,53.6725 -3.28125,0.53125 -6.4925,0.8225 -9.58625,0.8225 -20.0225,0 -30.34,-8.91625 -33.97,-23.61 4.345,-8.58875 10.07,-16.38625 16.35,-21.76 5.75125,2.03 11.7575,3.7425 15.77125,3.7425 7.29375,0 10.615,-3.395 10.615,-7.32125 0,-3.60875 -3.4025,-6.1375 -9.2675,-6.1375 -5.37625,0 -11.93875,2.90125 -18.3225,7.73125 -6.29375,-2.22875 -11.86125,-4.78625 -13.83125,-5.615 7.0025,-17.47375 25.585,-26.82125 40.96375,-26.82125 m 3.62,78.55375 c 13.82875,-16.93375 23.365,-38.27875 23.365,-53.7625 0,-17.4675 -11.95875,-26.19875 -27.1675,-26.19875 -20.3575,0 -37.7075,9.975 -44.36625,26.875 -12.9425,-4.75375 -27.5625,-8.885 -46.15375,-8.885 -24.49375,0 -43.52125,7.17625 -43.52125,17.0625 0,1.4225 0.465,2.61125 1.3725,3.565 0.92875,0.97625 2.92875,1.07125 3.88125,0.11875 -0.0175,-0.0175 -0.50375,-1.80625 -0.50375,-3.68375 0,-7.18125 12.77625,-15.84875 38.77125,-15.84875 18.375,0 32.84,4.295 45.655,9.04 -1.5575,4.42 -2.4125,9.28125 -2.4125,14.5475 0,4.6 0.5025,8.87375 1.48375,12.78375 -6.57,10.7275 -11.81,23.02625 -11.81,32.66875 0,9.30375 6.0975,19.245 16.1975,19.245 15.44625,0 31.32375,-11.09625 43.9075,-25.96375"
                 style="fill:#0a0b0c;fill-opacity:1;fill-rule:nonzero;stroke:none"
                 id="path4156-4"
                 inkscape:connector-curvature="0"
                 sodipodi:nodetypes="cscsccccccccccsssccscsccsssccccsscssccsscscssc" />
              <path
                 sodipodi:nodetypes="cscsccccccccccsssccscsccsssccccsscssccsscscssc"
                 inkscape:connector-curvature="0"
                 id="path4004"
                 style="fill:#0a0b0c;fill-opacity:1;fill-rule:nonzero;stroke:none"
                 d="m 720.06662,482.3119 c -6.145,0 -9.72875,-6.25 -9.72875,-17.74625 0,-8.3825 2.45375,-17.93 6.46875,-26.90125 5.57625,13.3325 17.875,21.12375 35.75875,21.12375 2.70375,0 5.47875,-0.2075 8.295,-0.58875 -12.2925,14.00625 -27.325,24.1125 -40.79375,24.1125 m -3.02,-62.5675 c 0,-5.0375 0.8425,-9.6475 2.3325,-13.82 2.08625,0.87875 7.2375,3.14875 13.0175,5.30125 -4.6425,3.72625 -9.14,8.43125 -12.95375,13.77875 -0.65375,0.92 -1.3,1.86875 -1.9425,2.83 -0.305,-2.56625 -0.45375,-5.26625 -0.45375,-8.09 m 19.25375,-8.7075 c 0.075,-0.06 0.15,-0.12375 0.225,-0.1825 5.035,-3.85125 9.58375,-7.36 15.53875,-7.36 3.44875,0 5.76875,2.03125 5.76875,4.86 0,2.84125 -1.895,5.505 -7.6425,5.505 -3.99375,0 -9.03625,-1.23875 -13.89,-2.8225 m 24.57375,-33.3075 c 14.2975,0 24.94125,8.50125 24.94125,25.29625 0,16.64625 -9.98,37.51875 -23.66375,53.6725 -3.28125,0.53125 -6.4925,0.8225 -9.58625,0.8225 -20.0225,0 -30.34,-8.91625 -33.97,-23.61 4.345,-8.58875 10.07,-16.38625 16.35,-21.76 5.75125,2.03 11.7575,3.7425 15.77125,3.7425 7.29375,0 10.615,-3.395 10.615,-7.32125 0,-3.60875 -3.4025,-6.1375 -9.2675,-6.1375 -5.37625,0 -11.93875,2.90125 -18.3225,7.73125 -6.29375,-2.22875 -11.86125,-4.78625 -13.83125,-5.615 7.0025,-17.47375 25.585,-26.82125 40.96375,-26.82125 m 3.62,78.55375 c 13.82875,-16.93375 23.365,-38.27875 23.365,-53.7625 0,-17.4675 -11.95875,-26.19875 -27.1675,-26.19875 -20.3575,0 -37.7075,9.975 -44.36625,26.875 -12.9425,-4.75375 -27.5625,-8.885 -46.15375,-8.885 -24.49375,0 -43.52125,7.17625 -43.52125,17.0625 0,1.4225 0.465,2.61125 1.3725,3.565 0.92875,0.97625 2.92875,1.07125 3.88125,0.11875 -0.0175,-0.0175 -0.50375,-1.80625 -0.50375,-3.68375 0,-7.18125 12.77625,-15.84875 38.77125,-15.84875 18.375,0 32.84,4.295 45.655,9.04 -1.5575,4.42 -2.4125,9.28125 -2.4125,14.5475 0,4.6 0.5025,8.87375 1.48375,12.78375 -6.57,10.7275 -11.81,23.02625 -11.81,32.66875 0,9.30375 6.0975,19.245 16.1975,19.245 15.44625,0 31.32375,-11.09625 43.9075,-25.96375" />
              <path
                 d="m 720.06662,482.3119 c -6.145,0 -9.72875,-6.25 -9.72875,-17.74625 0,-8.3825 2.45375,-17.93 6.46875,-26.90125 5.57625,13.3325 17.875,21.12375 35.75875,21.12375 2.70375,0 5.47875,-0.2075 8.295,-0.58875 -12.2925,14.00625 -27.325,24.1125 -40.79375,24.1125 m -3.02,-62.5675 c 0,-5.0375 0.8425,-9.6475 2.3325,-13.82 2.08625,0.87875 7.2375,3.14875 13.0175,5.30125 -4.6425,3.72625 -9.14,8.43125 -12.95375,13.77875 -0.65375,0.92 -1.3,1.86875 -1.9425,2.83 -0.305,-2.56625 -0.45375,-5.26625 -0.45375,-8.09 m 19.25375,-8.7075 c 0.075,-0.06 0.15,-0.12375 0.225,-0.1825 5.035,-3.85125 9.58375,-7.36 15.53875,-7.36 3.44875,0 5.76875,2.03125 5.76875,4.86 0,2.84125 -1.895,5.505 -7.6425,5.505 -3.99375,0 -9.03625,-1.23875 -13.89,-2.8225 m 24.57375,-33.3075 c 14.2975,0 24.94125,8.50125 24.94125,25.29625 0,16.64625 -9.98,37.51875 -23.66375,53.6725 -3.28125,0.53125 -6.4925,0.8225 -9.58625,0.8225 -20.0225,0 -30.34,-8.91625 -33.97,-23.61 4.345,-8.58875 10.07,-16.38625 16.35,-21.76 5.75125,2.03 11.7575,3.7425 15.77125,3.7425 7.29375,0 10.615,-3.395 10.615,-7.32125 0,-3.60875 -3.4025,-6.1375 -9.2675,-6.1375 -5.37625,0 -11.93875,2.90125 -18.3225,7.73125 -6.29375,-2.22875 -11.86125,-4.78625 -13.83125,-5.615 7.0025,-17.47375 25.585,-26.82125 40.96375,-26.82125 m 3.62,78.55375 c 13.82875,-16.93375 23.365,-38.27875 23.365,-53.7625 0,-17.4675 -11.95875,-26.19875 -27.1675,-26.19875 -20.3575,0 -37.7075,9.975 -44.36625,26.875 -12.9425,-4.75375 -27.5625,-8.885 -46.15375,-8.885 -24.49375,0 -43.52125,7.17625 -43.52125,17.0625 0,1.4225 0.465,2.61125 1.3725,3.565 0.92875,0.97625 2.92875,1.07125 3.88125,0.11875 -0.0175,-0.0175 -0.50375,-1.80625 -0.50375,-3.68375 0,-7.18125 12.77625,-15.84875 38.77125,-15.84875 18.375,0 32.84,4.295 45.655,9.04 -1.5575,4.42 -2.4125,9.28125 -2.4125,14.5475 0,4.6 0.5025,8.87375 1.48375,12.78375 -6.57,10.7275 -11.81,23.02625 -11.81,32.66875 0,9.30375 6.0975,19.245 16.1975,19.245 15.44625,0 31.32375,-11.09625 43.9075,-25.96375"
                 style="fill:#0a0b0c;fill-opacity:1;fill-rule:nonzero;stroke:none"
                 id="path4006"
                 inkscape:connector-curvature="0"
                 sodipodi:nodetypes="cscsccccccccccsssccscsccsssccccsscssccsscscssc" />
            </g>
          </g>
        </g>
        <path
           inkscape:connector-curvature="0"
           id="path22-2"
           style="fill:#000000;fill-opacity:1;fill-rule:nonzero;stroke:none"
           d="m 547.44974,297.7963 c -8.299,0 -12.5,6.335 -12.5,12 0,5.224 6.235,18 21.5,18 5.902,0 14.511,-5.386 24.727,-13.076 -12.577,-10.419 -24.015,-16.924 -33.727,-16.924 m 197,159.5 c 7.345,0 11.575,-4.794 10.251,-12.347 -2.316,-13.211 -10.405,-16.375 -26.25,-16.375 -5.981,0 -14.102,4.122 -23.708,9.929 14.36,11.492 27.849,18.793 39.707,18.793 m -40.364,-175.995 c -0.102,-0.175 -7.564,-17.505 -33.136,-17.505 -16.339,0 -47.182,37.532 -80.948,55.989 15.612,14.216 32.583,33.229 50.035,52.786 0.349,0.392 0.699,0.784 1.049,1.176 9.94,1.512 20.216,2.95 27.74,2.95 7.437,0 11.812,-4.437 10.818,-11.932 1.25,-0.528 3.104,0.537 3.89,1.643 1.079,1.517 1.584,2.234 1.584,4.916 0,5.125 -6.042,7.973 -14.666,7.973 -5.466,0 -16.339,-1.66 -27.414,-3.363 18.602,20.834 37.446,41.72 55.175,57.115 10.305,-4.146 21.029,-6.886 31.988,-6.886 15,0 29.249,6.536 29.249,20.667 0,6.043 -5.257,12.466 -15,12.466 -12.492,0 -26.582,-7.679 -41.503,-19.7 -22.742,13.954 -53.296,36.2 -83.497,36.2 -16.006,0 -30.453,-6.063 -38.647,-16.218 -4.074,-5.048 -6.365,-10.747 -6.365,-16.476 0,-3.611 3.96965,-6.24556 5.388,-4.403 -0.6985,6.83324 -2.463,13.431 2.533,19.623 7.819,9.689 21.684,14.474 37.091,14.474 17.987,0 45.328,-25.651 76.715,-38.903 -18.157,-15.877 -37.341,-37.267 -56.234,-58.437 -10.624,-1.629 -20.986,-3.159 -26.479,-3.159 -8.973,0 -16.669,2.637 -16.669,15.2 0,8.617 4.545,10.254 4.866,10.32 l 0,0 c -0.223,1.117 -2.289,1.399 -3.448,1.257 -3.673,-0.449 -9.418,-3.914 -9.418,-11.577 0,-11.092 10.695,-17.2 24.669,-17.2 5.419,0 14.642,1.453 24.529,2.974 -17.43,-19.532 -34.366,-38.471 -49.829,-52.494 -10.423,5.46 -21.103,9.019 -31.702,9.019 -15.569,0 -25.5,-10.472 -25.5,-20 0,-8.138 7.057,-14 16.5,-14 10.287,0 22.258,6.823 35.34,17.702 25.432,-19.409 60.179,-51.702 88.16,-51.702 18.458,0 29.083,8.011 33.935,13.044 1.856,1.925 1.48,5.061 -0.799,6.461"
           sodipodi:nodetypes="cssccccscccscccsccssccssscscsccsccsscccssccssscscc" />
        <path
           d="m 525.43225,382.22721 -2.55941,-4.23148 c 0,0 5.66058,4.2147 8.24521,6.60718 2.10767,1.95098 3.952,4.16889 5.89027,6.28827 7.19517,7.86749 17.8463,19.7967 26.69865,29.75904 4.42618,4.98117 14.70354,12.47464 15.73809,16.73338 0.6075,2.5008 0.4115,1.28143 0.4115,1.28143 0,0 -0.0282,2.3752 -1.41388,3.6587 -1.37071,1.26966 -4.33079,1.12175 -4.00267,0.79555 0.73914,-0.7348 -1.35737,-6.24304 -2.20354,-8.23821 -0.93874,-2.21342 -2.59799,-3.99315 -2.59799,-3.99315"
           style="fill:#0a0b0c;fill-opacity:1;fill-rule:nonzero;stroke:none"
           id="path4006-8"
           inkscape:connector-curvature="0"
           sodipodi:nodetypes="ccsssscsssc" />
      </g>
    </g>
  </g>
</svg>
