<svg style="position: absolute; width: 0; height: 0;" width="0" height="0" version="1.1" xmlns="http://www.w3.org/2000/svg" xmlns:xlink="http://www.w3.org/1999/xlink">
<defs>
<symbol id="icon-Readmore" viewBox="0 0 164 32">
<path class="path1" d="M67.58 31.889c-1.159-0.257-2.749-2.006-3.141-3.454-0.214-0.79-0.213-1.404 0.003-2.342 0.161-0.699 0.247-1.317 0.191-1.373s-0.454 0.195-0.885 0.558c-0.431 0.363-0.939 0.561-1.041 0.659l-0.693 0.665c-0.341 0.52-2.205 1.629-2.997 1.783l-0.414 0.206c-0.156 0.099-0.706 0.064-1.221-0.078-1.289-0.356-2.080-1.509-1.952-2.847 0.054-0.564-0.045-1.12-0.104-1.026l-0.201 0.325c-0.16 0.259-2.664 2.161-3.721 2.594l-0.908 0.699c-0.237 0.277-0.664 0.54-0.949 0.583l-0.651 0.254c-0.112 0.044-0.438 0.251-0.812 0.345-0.559 0.14-0.863-0.009-1.711-0.84-1.277-1.252-1.544-2.381-0.965-4.086 0.228-0.671 0.372-1.263 0.32-1.315s-0.44 0.204-0.862 0.569c-0.422 0.365-1.584 1.192-2.583 1.838s-1.855 1.276-1.903 1.401c-0.048 0.125-0.262 0.135-0.422 0.227l-0.643 0.37c-0.398 0.479-1.533 0.111-2.355-0.763-0.464-0.494-0.555-0.816-0.437-1.542 0.082-0.505 0.085-0.918 0.007-0.918s-0.684 0.443-1.346 0.985c-1.848 1.512-3.787 2.33-4.315 2.648l-0.656 0.395c-0.643 0.19-0.813 0.358-2.276-0.303-1.236-0.559-2.455-2.335-2.331-3.4 0.055-0.478-0.020-0.842-0.175-0.841-0.15 0-1.056 0.746-2.013 1.656-1.119 1.063-2.495 2.032-3.85 2.712-4.917 3.51-6.025-3.8-3.667-6.965 2.141-2.799 2.274-3.214 1.626-5.058-0.29-0.826-0.582-1.555-0.647-1.621-0.117-0.117-2.066 0.83-5.213 2.532-4.372 2.364-5.751 3.277-8.078 5.347-2.232 1.985-3.082 3.535-2.854 5.201 0.14 1.022-0.145 1.679-0.553 1.271-0.38-0.38-0.126-2.914 0.392-3.91 0.967-1.86 4.444-4.936 7.445-6.586 0.436-0.24 1.26-0.732 1.831-1.095s2.264-1.268 3.762-2.013c3.374-1.678 3.336-1.647 4.391-3.531 1.105-1.973 2.995-4.168 3.918-4.551 1.099-0.455 2.133-0.241 2.238 0.463 0.085 0.568-1.135 2.522-1.469 2.653-0.098 0.039 0.181-0.139-0.443 0.432s-2.105 1.644-2.209 1.644c-0.285 0-0.981 1.151-1.114 1.843-0.065 0.336 0.118 1.241 0.407 2.012 0.443 1.184 0.478 1.543 0.224 2.311-0.285 0.864-1.345 2.618-1.757 2.909-0.251 0.177-1.649 2.528-2.054 3.456-0.743 1.701-0.036 3.555 1.357 3.555 0.902 0 3.554-1.448 5.201-2.839 0.856-0.723 2.051-1.686 2.655-2.139s1.218-1.182 1.366-1.62c0.147-0.438 0.629-1.205 1.071-1.705s1.053-1.2 1.359-1.557c0.648-0.757 2.787-2.343 3.98-2.95 0.457-0.233 1.247-0.423 1.757-0.423 1.747 0 1.835 1.743 0.179 3.576-0.38 0.421-1.936 1.428-3.457 2.238-3.026 1.611-3.177 1.737-3.442 2.878-0.431 1.863-0.451 2.255-0.146 2.991 0.63 1.52 2.391 1.298 5.186-0.653 0.928-0.648 2.235-1.532 2.905-1.966 0.681-0.44 1.553-1.327 1.975-2.007 1.074-1.731 3.909-4.48 5.53-5.362 1.704-0.927 3.782-1.441 4.603-1.138 0.696 0.257 1.441 1.090 1.862 2.080l0.294 0.691 1.080-0.484c1.637-0.733 1.787-0.216 0.359 1.24-1.378 1.579-2.849 3.235-3.661 4.878-0.848 1.731-1.114 3.68-0.592 4.336 0.336 0.421 0.447 0.426 1.501 0.058 0.626-0.218 1.203-0.605 1.398-0.737l1.557-1.056c1.741-1.182 2.499-1.559 5.68-4.68 1.554-1.525 3.247-3.037 3.762-3.36 1.152-0.724 3.743-1.707 4.497-1.707 0.788 0 2.261 1.057 2.441 1.751 0.083 0.321 0.197 0.584 0.254 0.584 0.147 0 1.941-2.008 2.641-2.957 0.327-0.443 1.611-1.912 2.854-3.264s3.010-3.279 3.928-4.281c2.747-2.999 3.142-3.361 6.115-5.581 3.993-2.982 5.514-3.661 7.309-3.264 0.749 0.166 1.382 1.099 1.382 2.036 0 0.887-2.912 4.168-3.41 4.598l-1.457 1.257c-0.733 0.632-1.583 1.439-2.014 1.662s-1.189 0.823-1.686 1.335c-0.497 0.511-1.007 0.931-1.134 0.933-0.233 0.003-3.728 2.58-4.696 3.463-0.287 0.262-0.873 0.657-1.301 0.878-0.514 0.395-0.929 0.839-1.413 1.11-0.121 0-1.24 0.696-2.487 1.547-2.576 1.758-4.427 4.027-5.357 6.569-0.302 0.825-0.649 1.562-0.771 1.637s-0.105 0.39-0.222 0.641l-0.235 0.504c-0.102 0.218-0.167 0.53 0.276 1.998 0.543 1.797 3.57 1.49 6.705-0.681 1.794-1.243 4.803-4.59 5.090-5.663 0.19-0.71 0.618-0.773 0.618-0.091 0 0.948-2.612 4.017-5.173 6.079-0.787 0.634-3.583 1.891-4.556 2.049-0.428 0.069-1.187 0.036-1.686-0.075zM59.868 27.328c0.743-0.377 1.469-0.823 1.613-0.992 0.732-0.859 3.846-3.022 3.997-2.777 0.109 0.176 0.307 0.188 0.552 0.033 0.319-0.202 0.305-0.242-0.084-0.246-0.404-0.003-0.365-0.152 0.292-1.107 0.417-0.607 0.785-1.219 0.816-1.362s0.173-0.475 0.314-0.738c0.379-0.709 0.038-1.666-0.74-2.073-0.837-0.438-2.395-0.156-3.264 0.591-1.6 1.375-1.995 1.79-2.734 2.868-0.44 0.642-1.147 1.564-1.57 2.047-0.798 0.913-1.677 3.416-1.427 4.067 0.205 0.534 0.701 0.464 2.234-0.312zM39.948 26.441c0.285-0.251 1.242-0.877 2.126-1.392s1.76-1.080 1.946-1.256c0.187-0.176 0.923-0.777 1.636-1.336 2.256-1.766 3.762-3.344 3.762-3.943 0-0.809-1.281-2.177-2.038-2.177-1.407 0-2.727 0.659-4.371 2.182-0.93 0.862-1.797 1.803-1.926 2.092s-0.463 0.876-0.742 1.304c-1.025 1.574-2.21 4.639-1.954 5.053 0.188 0.304 0.881 0.070 1.56-0.527zM30.477 21.017c0.071-0.101 0.903-0.614 1.849-1.139 3.104-1.724 4.262-4.586 1.54-3.805-0.878 0.252-3.062 2.603-3.388 3.022l-0.454 0.583c-0.174 0.224-0.672 0.619-0.939 1.074l-0.485 0.829 0.874-0.19c0.481-0.104 0.932-0.273 1.004-0.374zM73.969 17.449c0.696-0.387 1.491-0.912 1.768-1.168 0.534-0.426 1.16-0.75 1.597-1.138 0.415-0.371 1.221-0.984 1.792-1.362 1.701-1.127 4.136-2.996 4.358-3.346 0.114-0.179 0.579-0.518 1.033-0.753 1.787-0.924 5.797-4.71 6.798-6.418 0.578-0.987 0.627-1.231 0.359-1.818-0.223-0.489-0.505-0.678-1.014-0.678-1.372 0-2.614 0.712-4.864 2.789-0.502 0.464-1.017 0.843-1.144 0.843-0.346 0-3.527 3.339-4.441 4.662-2.384 1.727-3.978 4.612-5.626 6.393-1.225 1.313-2.233 2.696-1.964 2.696 0.045 0 0.651-0.317 1.347-0.704zM22.050 9.985c0.925-0.925 1.682-1.801 1.682-1.946s-0.35-0.264-0.778-0.264c-0.428 0-0.677 0.162-0.778 0.27-0.246 0.264-0.226 0.183-1.031 1.131-0.502 0.591-1.304 2.181-1.304 2.336 0 0.464 0.709-0.026 2.21-1.527zM141.022 30.46c-1.364-1.232-1.569-2.789-0.613-4.653 0.366-0.713 0.743-1.356 0.839-1.427 0.468-0.35 2.613-3.377 2.606-3.678-0.004-0.189-0.298-0.674-0.653-1.077l-0.645-0.733-1.085 0.798c-0.597 0.439-1.183 0.798-1.304 0.798s-0.535 0.229-0.922 0.509c-0.668 0.483-1.545 0.72-2.844 0.767-0.321 0.012-0.584 0.181-0.584 0.376 0 0.419-3.616 3.752-3.876 4.056-0.693 0.905-1.769 1.53-2.801 1.557-0.753 0-1.112-0.2-1.91-1.065-0.541-0.586-1.058-1.403-1.148-1.816-0.163-0.74-0.642-1.058-0.643-0.427 0 0.178-0.577 0.717-1.281 1.197s-1.341 1.030-1.415 1.223c-0.231 0.601-3.687 2.185-4.769 2.185-1.326 0-2.913-1.531-2.913-2.81 0.212-1.137 2.025-4.164 2.623-4.785 2.569-2.649 2.904-3.19 2.647-4.276-0.138-0.585-0.404-1.001-0.672-1.053-1.216-0.234-4.229 2.15-7.646 6.051-0.749 0.855-1.567 1.785-1.816 2.067-0.691 0.779-2.749 3.391-3.101 3.935-0.297 0.46-0.337 0.452-0.834-0.166-1.329-1.651-1.289-2.778 0.18-5.057 1.202-1.865 2.627-4.788 2.402-4.927-0.316-0.196-1.056 0.119-1.954 0.83-2.076 1.645-2.879 2.337-3.489 3.006-2.429 2.667-6.918 6.926-7.301 6.926-0.553 0-1.535-1.179-1.535-1.844 0-0.761 1.21-3.102 2.332-4.513 0.567-0.713 1.458-1.908 1.978-2.654s1.019-1.312 1.107-1.257c0.089 0.055 0.179-0.152 0.201-0.459s0.123-1.040 0.224-1.628c0.119-0.689 0.082-1.132-0.102-1.246-0.45-0.278-2.132 0.609-3.341 1.761-0.606 0.578-1.103 0.946-1.103 0.819s-0.337 0.091-0.75 0.486c-0.479 0.459-0.813 0.616-0.925 0.435-0.465-0.752 4.309-4.17 5.823-4.17 0.756 0 1.751 0.978 1.921 1.888 0.183 0.974-0.428 3.331-1.016 3.919-0.21 0.21-0.383 0.462-0.383 0.558s-0.889 1.419-1.976 2.937c-2.136 2.985-2.618 3.832-2.34 4.111 0.099 0.099 2.191-1.858 4.649-4.347 3.189-3.229 4.951-4.805 6.149-5.499 1.881-1.090 2.034-1.124 2.744-0.604 0.405 0.296 0.499 0.665 0.478 1.881-0.022 1.319-0.199 1.823-1.384 3.934-1.359 2.423-1.574 3.341-0.473 2.021 0.322-0.386 1.256-1.415 2.077-2.288s1.492-1.664 1.492-1.758c0-0.094 0.788-0.965 1.751-1.936 2.726-2.746 5.511-4.336 6.587-3.76 0.277 0.148 0.795 0.907 1.151 1.685l0.648 1.416-0.699 1.229c-0.384 0.676-1.188 1.755-1.785 2.397-1.575 1.692-2.814 4.238-2.605 5.352 0.146 0.778 0.257 0.875 0.996 0.874 0.457 0 1.214-0.234 1.681-0.519s0.993-0.519 1.168-0.521c0.175-0.003 0.773-0.381 1.33-0.843 2.579-2.143 3.793-3.44 4.419-4.718 0.98-2.004 3.159-4.178 4.567-4.557 0.623-0.168 1.597-0.703 2.166-1.189s1.216-0.894 1.44-0.906c0.224-0.012 0.721-0.073 1.105-0.136 0.491-0.081 0.863 0.060 1.257 0.475 0.495 0.522 0.547 0.809 0.444 2.485-0.064 1.042-0.25 2.029-0.414 2.192-0.538 0.538-0.312 0.783 0.589 0.637 0.488-0.079 1.713-0.689 2.724-1.354l1.837-1.21-0.162-1.011c-0.162-1.013 0.006-1.436 1.153-2.912 1.481-1.906 3.782-3.555 4.958-3.555 0.651 0 1.15 0.891 0.949 1.693-0.17 0.677-3 3.685-4.108 4.366-0.867 0.533-0.921 1.319-0.195 2.823 0.285 0.591 0.519 1.322 0.519 1.625 0 0.725-0.965 2.709-1.657 3.407-1.026 1.035-2.177 2.818-2.352 3.644-0.117 0.553-0.034 1.097 0.253 1.652 0.39 0.754 0.511 0.814 1.356 0.677 1.3-0.211 3.572-1.41 4.73-2.496 0.972-0.911 3.259-2.865 3.666-3.131 0.117-0.077 0.344-0.748 0.503-1.493 0.588-2.743 3.566-5.708 6.649-6.62 3.544-1.048 4.425 0.853 1.612 3.48-0.738 0.69-1.443 1.192-1.565 1.117l-0.222 0.14c-0.129 0.081-0.976 0.728-2.169 1.279-1.817 0.839-2.199 1.123-2.356 1.749-0.103 0.411-0.185 0.774-0.183 0.807s-0.098 0.416-0.222 0.851c-0.276 0.963 0.116 2.237 0.801 2.604 0.267 0.143 0.81 0.187 1.205 0.097 1.155-0.263 3.792-1.212 4.292-1.545 0.959-0.639 2.53-2.236 2.402-2.442-0.149-0.241 1.131-1.166 1.333-0.964 0.552 0.552-3.409 3.812-4.398 4.324l-0.67 0.347c-0.158 0.191-1.099 0.492-2.090 0.669-1.712 0.306-1.841 0.294-2.57-0.245-1.116-0.825-1.894-1.984-1.919-2.86-0.027-0.96-0.231-0.958-1.296 0.009-0.469 0.426-1.494 1.358-2.279 2.072s-1.631 1.299-1.881 1.302l-0.454 0.224c-0.305 0.15-1.888 1.111-2.965 1.212-0.802 0.075-1.131-0.061-1.95-0.8zM131.123 26.261c0.535-0.535 1.316-1.265 1.735-1.622 0.903-0.768 2.441-2.534 2.438-2.798-0.003-0.102-0.471-0.382-1.044-0.623-1.060-0.445-1.807-1.602-1.807-2.797 0-0.29-0.113-0.527-0.251-0.527-0.382 0-2.613 3.146-3.128 4.411-0.145 0.357-0.372 0.882-0.504 1.168-0.362 0.784-0.592 2.634-0.402 3.232 0.127 0.401 0.39 0.53 1.079 0.53 0.707 0 1.129-0.218 1.884-0.973zM155.855 22.565c0.467-0.285 0.996-0.518 1.176-0.519 0.943-0.003 3.792-2.767 4.095-3.972 0.165-0.656 0.121-0.699-0.696-0.698-1.605 0.003-3.759 1.764-5.383 4.404-0.894 1.453-0.66 1.681 0.809 0.786zM135.953 21.068c0.883-0.636 1.53-4.622 0.842-5.193-0.528-0.438-1.857-0.133-2.66 0.61-0.529 0.49-0.652 0.85-0.652 1.897 0 1.815 0.339 2.564 1.219 2.696 0.4 0.060 0.785 0.125 0.857 0.144s0.249-0.051 0.394-0.156zM146.745 14.667c1.675-1.783 2.117-2.416 1.915-2.741-0.252-0.408-0.497-0.317-1.536 0.571-0.796 0.68-2.225 2.891-2.225 3.442 0 0.438 0.681-0.031 1.846-1.272z"></path>
</symbol>
</defs>
</svg>
