<?xml version="1.0" encoding="UTF-8" standalone="no"?>
<!-- Created with Inkscape (http://www.inkscape.org/) -->

<svg
   xmlns:dc="http://purl.org/dc/elements/1.1/"
   xmlns:cc="http://creativecommons.org/ns#"
   xmlns:rdf="http://www.w3.org/1999/02/22-rdf-syntax-ns#"
   xmlns:svg="http://www.w3.org/2000/svg"
   xmlns="http://www.w3.org/2000/svg"
   xmlns:sodipodi="http://sodipodi.sourceforge.net/DTD/sodipodi-0.dtd"
   xmlns:inkscape="http://www.inkscape.org/namespaces/inkscape"
   width="190.38448mm"
   height="65.380516mm"
   viewBox="0 0 674.59066 231.66325"
   id="svg2"
   version="1.1"
   inkscape:version="0.91 r13725"
   sodipodi:docname="thankyou.svg">
  <defs
     id="defs4" />
  <sodipodi:namedview
     id="base"
     pagecolor="#ffffff"
     bordercolor="#666666"
     borderopacity="1.0"
     inkscape:pageopacity="0.0"
     inkscape:pageshadow="2"
     inkscape:zoom="1.4"
     inkscape:cx="44.964507"
     inkscape:cy="202.4446"
     inkscape:document-units="px"
     inkscape:current-layer="layer1"
     showgrid="false"
     fit-margin-top="0"
     fit-margin-left="0"
     fit-margin-right="0"
     fit-margin-bottom="0"
     inkscape:window-width="1366"
     inkscape:window-height="706"
     inkscape:window-x="-8"
     inkscape:window-y="-8"
     inkscape:window-maximized="1" />
  <metadata
     id="metadata7">
    <rdf:RDF>
      <cc:Work
         rdf:about="">
        <dc:format>image/svg+xml</dc:format>
        <dc:type
           rdf:resource="http://purl.org/dc/dcmitype/StillImage" />
        <dc:title />
      </cc:Work>
    </rdf:RDF>
  </metadata>
  <g
     inkscape:label="Layer 1"
     inkscape:groupmode="layer"
     id="layer1"
     transform="translate(-3001.0528,-311.43736)">
    <path
       style="fill:#363636"
       d="m 3433.1825,542.15309 c -8.1676,-1.6134 -10.4035,-3.6631 -12.8026,-11.7368 -2.1784,-7.3306 -0.7144,-15.2397 4.0193,-21.7137 1.2064,-1.65 3.047,-4.6293 4.0901,-6.6208 4.4484,-8.492 19.9062,-23.1483 29.3967,-27.8723 2.475,-1.2319 5.3506,-2.61653 6.3131,-3.46273 7.6781,-3.03426 19.3341,-9.86063 27.133,-12.91797 l 10.9462,-4.2529 2.6489,-7.9367 c 5.894,-17.6596 7.7278,-23.0284 8.5172,-24.9366 0.8893,-2.1499 -3.3259,1.5946 -17.1673,15.25 -4.5993,4.5375 -9.0923,7.83652 -9.7024,8.25 l -3.6887,2.5 c -3.2379,3.4466 -7.8165,3.3449 -11.2599,-0.25 -3.0619,-3.1967 -5.7401,-9.1079 -5.7401,-12.6693 0,-2.8821 8.7031,-19.9387 13.6328,-26.718 1.8547,-2.5506 3.6664,-6.1089 4.0261,-7.9074 l 0.654,-3.27 -4.4064,0.6355 c -10.3406,1.4915 -11.1003,2.0108 -23.0623,15.7646 -12.1078,13.9213 -17.1155,20.6666 -16.3102,21.9696 0.2742,0.4438 0.041,1.0895 -0.5177,1.4349 -0.5779,0.3572 -1.0081,-0.368 -0.9973,-1.6809 0.026,-3.134 4.3718,-9.7457 12.6087,-19.1819 3.7798,-4.3301 8.188,-9.6145 9.7961,-11.7431 2.0603,-2.7274 4.5705,-4.4976 8.5,-5.9945 12.528,-4.7725 18.4233,-3.4259 19.6087,4.4788 0.5863,3.9094 0.1417,5.462 -3.9424,13.769 -2.5317,5.1495 -5.9502,11.7875 -7.5966,14.7511 -3.4783,6.261 -4.2859,15.6784 -1.4383,16.7712 2.1932,0.8416 11.5683,-5.7584 20.0805,-14.1364 3.9246,-3.8627 10.0217,-9.7232 13.5491,-13.0232 3.5273,-3.3 8.2564,-8.7181 10.5091,-12.0403 4.3046,-6.3483 5.6688,-7.7431 8.594,-8.7876 3.5794,-1.2781 2.8598,2.4844 -2.5027,13.0851 -2.9889,5.9086 -6.005,12.9928 -6.7025,15.7428 -0.6975,2.75 -1.6406,5.9 -2.0958,7 -1.5705,3.7949 -3.9802,11.8401 -3.6463,12.1739 1.0121,1.0121 13.184,-6.4532 22.5813,-13.8496 4.6257,-3.6408 7.6388,-6.9755 9.5294,-10.5466 1.5207,-2.8722 4.7412,-7.044 7.1568,-9.2705 2.4155,-2.2266 4.3919,-4.4388 4.3919,-4.916 0,-0.4772 2.0253,-2.922 4.5008,-5.4329 7.597,-7.7061 17.6905,-10.6792 24.4277,-7.1953 5.8436,3.0219 5.2969,9.3926 -1.9455,22.6732 -2.6333,4.8286 -2.5556,5.001 1.492,3.3098 4.9132,-2.0529 12.4869,-7.4143 15.4627,-10.946 5.4613,-6.4817 10.5557,-10.5 13.3119,-10.5 1.5127,0 2.7504,0.4814 2.7504,1.0698 -1.1126,3.40386 -6.0618,10.30203 -7.4392,11.61347 -0.8701,1.35763 -3.373,5.86893 -7.6628,11.31673 -3.3584,4.2651 -6.7869,14.1305 -6.1211,17.6134 0.6622,3.4641 2.6028,3.9701 7.2277,1.8845 5.5191,-2.4887 21.9574,-17.5874 24.9678,-22.933 4.9196,-8.7357 15.8915,-17.5649 21.8277,-17.5649 3.6514,0 3.0227,1.3265 -3.8459,8.1138 -3.8248,3.7795 -6.9542,7.1302 -6.9542,7.4458 0,0.3156 -1.1616,2.0968 -2.5813,3.9581 -3.1691,4.1549 -5.2352,14.644 -3.8417,19.5029 0.5167,1.8017 2.1565,4.1845 3.644,5.2951 2.4911,1.8598 3.1449,1.9207 8.2831,0.7708 4.3153,-0.9657 7.2672,-2.6069 13.0359,-7.2476 11.2134,-9.0207 16.7699,-16.5556 14.3548,-19.4656 -0.6825,-0.8224 -0.7385,-1.3733 -0.1397,-1.3733 1.8701,0 3.4703,2.9659 2.8766,5.3315 -0.7753,3.0888 -14.2623,16.8441 -20.2204,20.6226 -2.5668,1.6278 -7.0429,3.4914 -9.9469,4.1413 -4.7915,1.0723 -5.5906,0.9897 -8.6357,-0.8923 -6.075,-3.7545 -9.3807,-8.7904 -10.6241,-16.1848 l -0.7537,-4.4816 -5.4754,5.2039 c -9.728,9.2455 -12.4074,11.301 -16.2284,12.4496 -5.1344,1.5434 -7.9571,0.073 -10.6872,-5.5665 -2.7086,-5.5951 -2.0997,-11.8802 1.8025,-18.6067 l 2.6007,-4.483 -2.9815,2.0924 c -1.6399,1.1507 -5.6805,3.0524 -8.9792,4.2258 -3.2987,1.1735 -6.1698,2.6501 -6.3802,3.2813 -0.2104,0.6312 -4.2804,5.0604 -9.0443,9.8425 -8.5345,8.567 -11.0058,9.9536 -17.8456,10.013 -3.6156,0.031 -10.1996,-10.3173 -9.3771,-14.739 0.3669,-1.9727 -1.1448,-1.4371 -3.779,1.3388 -1.3331,1.4049 -4.4831,3.9549 -7,5.6668 -2.5169,1.7118 -4.8104,3.4514 -5.0966,3.8658 -0.2861,0.4144 -1.7725,1.2296 -3.303,1.8115 -3.5031,1.3318 -12.6766,7.2972 -12.6766,8.2433 0,1.5737 -11.1668,23.7173 -12.5316,24.85 -0.8076,0.6703 -1.5035,2.3462 -1.5035,2.3462 -0.019,0.6202 -2.5074,4.7276 -5.529,9.1276 -3.0216,4.4 -7.1658,10.475 -9.2094,13.5 -15.6932,23.2299 -22.8534,31.7169 -30.7906,36.4964 -6.14,3.6973 -9.5265,4.1555 -18.1394,2.4541 z m 11.9,-1.5018 c 6.3275,-2.156 12.1927,-8.1666 20.9943,-21.515 7.17,-10.8737 19.8092,-32.1833 19.8092,-33.398 0,-0.3134 2.0801,-3.9964 4.6225,-8.1845 5.0558,-8.3287 10.7658,-20.2962 10.0333,-21.0288 -0.2541,-0.254 -2.2877,0.4695 -4.5191,1.6078 -4.6297,1.11499 -8.2969,3.97001 -12.1367,4.9732 -3.1696,0.90841 -5.6888,2.89418 -8.25,4.0324 -1.7875,0.7832 -5.3248,2.693 -7.8606,4.2441 -5.4476,2.00662 -10.386,5.87908 -14.8077,8.2778 -4.4706,2.3119 -20.6365,18.6119 -22.5071,22.6939 -1.6876,3.6828 -3.7229,7.0726 -4.7122,7.8484 -1.1508,0.9024 -3.6229,7.6227 -4.3183,11.7392 -0.8377,4.9583 0.7844,11.3733 3.7402,14.791 1.2726,1.4715 4.3439,3.1428 7.2157,3.9265 6.6193,1.8063 7.3731,1.8059 12.6965,-0.01 z m 112.8101,-96.447 c 2.3671,-0.6765 5.9921,-3.6257 11.2434,-9.1473 4.2625,-4.4819 7.75,-8.5327 7.75,-9.0017 0,-0.469 -2.0947,-0.8527 -4.6548,-0.8527 -4.1298,0 -5.0841,-0.4512 -8.46,-4 -2.0928,-2.2 -4.1606,-3.9774 -4.5951,-3.9498 -0.6651,0.042 -3.6404,5.9216 -7.3125,14.4498 -2.5925,6.0209 -2.1009,13.5 0.8874,13.5 0.9065,0 3.2202,-0.4493 5.1416,-0.9983 z m 26.4443,-30.5589 c 5.5299,-11.4438 5.5636,-15.3126 0.1503,-17.2701 -4.2752,-1.5459 -11.7542,0.6018 -16.6012,4.7672 l -3.5,3.0078 3.25,-0.5988 c 4.1873,-0.7716 4.1136,0.5185 -0.25,4.3818 -1.7227,1.74797 -2.8832,3.51518 -4.6976,5.5018 -0.9134,0.3045 -0.8807,1.1642 0.1378,3.6232 1.9288,4.6566 4.6404,6.1443 11.1986,6.1443 l 5.6938,0 z m -223.6256,52.0608 c -17.4166,-3.6683 -29.5244,-15.9847 -35.2554,-35.8628 -1.1814,-4.0977 -2.2726,-6.0118 -3.6296,-6.3667 -2.566,-0.671 -2.5122,-2.2694 0.06,-1.7741 l 2.0032,-0.3074 c 0,-0.3809 1.7507,-0.7127 3.8865,-0.7374 4.6757,-0.054 9.7384,-3.5891 13.9413,-9.7352 3.2529,-4.7568 5.8794,-11.3429 4.9101,-12.3122 -1.2101,-1.2101 -13.2379,5.3959 -18.1992,9.9956 -2.7269,2.5281 -5.3035,4.5966 -5.7257,4.5966 -0.4222,0 -2.2411,1.6458 -4.0419,3.6574 -1.8009,2.0116 -5.7493,6.2326 -8.7743,9.38 -3.025,3.1475 -7.3,8.2419 -9.5,11.3211 -2.2,3.0791 -4.5144,5.6081 -5.143,5.6199 -2.5954,-1.72737 -3.379,-9.88466 -2.386,-11.9215 2.2496,-4.4097 2.0374,-5.0219 -0.7996,-2.3069 -1.0057,0.9625 -2.9271,2.65 -4.2697,3.75 -13.3207,10.9136 -19.1281,10.9569 -28.2364,0.2106 -3.9611,-4.6733 -3.9771,-4.7264 -2.7116,-8.9503 1.4307,-4.7752 5.6009,-11.1213 11.5463,-17.5705 4.4061,-4.7794 8.4869,-10.9955 8.4949,-12.9398 0.01,-1.8092 -4.0256,-1.5339 -8.0335,0.5483 -4.8747,2.5327 -8.3763,4.601 -8.9614,5.2935 -0.275,0.3255 -3.3672,3.1361 -6.8715,6.2459 -3.5044,3.1097 -7.5937,7.5684 -9.0873,9.9082 -6.962,10.9056 -22.0721,24.1615 -23.3096,20.449 -0.739,-2.2171 1.2475,-9.8568 3.3198,-12.767 2.4297,-3.4123 0.9866,-3.8605 -2.8932,-0.8986 -14.7683,11.2741 -21.8294,13.0233 -30.1582,7.4707 -3.441,-2.294 -6.4724,-8.0192 -6.4862,-12.25 -0.013,-3.848 -0.8207,-5.5087 -1.6805,-3.453 -0.7753,1.8538 -17.5936,15.8974 -20.4192,17.0504 -2.4469,0.9985 -3.6426,1.0056 -5.7745,0.034 -2.8888,-1.3162 -6.6396,-6.5613 -6.6396,-9.2848 0,-2.0997 -1.9671,-1.0973 -7.2741,3.7066 -2.0758,1.8789 -7.1757,5.0974 -11.3331,7.1521 -5.9534,2.9423 -8.2633,3.6038 -10.8745,3.1139 -4.1373,-0.7762 -7.7228,-3.5462 -10.5854,-8.1779 -2.0219,-3.2716 -2.1109,-4.018 -1.0466,-8.7741 0.895,-3.9991 2.7725,-7.2144 8.1385,-13.9373 9.5868,-12.0109 9.2099,-15.5921 -1.2862,-12.2196 -2.8812,0.9257 -7.0386,2.8589 -9.2386,4.296 -2.2,1.437 -5.0628,3.1661 -6.3618,3.8425 -2.7374,1.4252 -20.245,17.2838 -27.8039,25.1849 -4.8569,5.0769 -5.2305,5.2785 -6.25,3.3736 -1.6368,-3.0584 -1.3204,-5.2575 1.3896,-9.6575 3.4926,-5.6706 3.0964,-6.6314 -0.9277,-2.25 -1.8943,2.0625 -4.0396,3.75 -4.7674,3.75 -0.7277,0 -2.8881,1.2647 -4.801,2.8103 -5.1435,4.1564 -10.0526,6.8839 -13.8289,7.6835 -4.4162,0.935 -11.1581,-1.021 -15.2268,-4.4177 -3.0179,-2.5195 -3.2425,-3.1319 -3.1687,-8.6439 0.1124,-8.4038 6.7422,-22.062 19.126,-39.402 10.0697,-14.0999 16.16,-24.3908 15.0746,-25.4719 -1.365,-1.3593 -31.0638,-1.132 -34.7693,0.2662 -1.4766,0.5571 -3.8392,1.2623 -5.2503,1.567 -2.4358,0.526 -5.1145,2.3465 -9.3109,6.3281 -2.7842,2.6416 -6.6696,11.4842 -6.0552,13.7804 0.5353,2 0.5353,2 -1.0959,0 -1.1767,-1.4429 -1.5091,-3.3388 -1.1931,-6.8065 0.7202,-7.9041 8.0937,-14.1483 19.5834,-16.5839 5.5324,-1.1728 36.566,-1.6498 39.2915,-0.6039 1.0443,0.4007 2.8258,-1.1028 5.5789,-4.7085 2.2246,-2.9135 4.8885,-6.1972 5.9198,-7.2972 1.9379,-2.067 11.1336,-13.1134 15.1026,-18.1422 6.4983,-8.2334 9.0567,-10.6438 10.6488,-10.0329 1.3481,0.5173 0.5885,1.9507 -4.188,7.9035 -3.209,3.9994 -6.9226,8.8466 -8.2522,10.7716 -1.3297,1.925 -3.6918,4.9118 -5.2491,6.6374 -1.5573,1.7256 -4.8502,6.0006 -7.3176,9.5 l -4.4861,6.3626 4.2943,0.6732 c 4.0258,0.6311 9.6027,1.082 29.4163,2.3788 l 8.1219,0.5315 4.312,-5.2917 c 7.4425,-9.1337 19.2426,-20.7171 24.4442,-23.9951 2.75,-1.7331 5.9803,-4.0196 7.1785,-5.081 2.7272,-2.4161 14.7969,-6.7055 18.8844,-6.7113 2.0425,0 3.9369,0.9117 5.6864,2.7456 7.3985,7.7553 5.3502,17.6215 -5.4424,26.2147 -5.3849,4.2875 -15.6384,9.6818 -19.8069,10.4202 -1.375,0.2436 -4.75,0.9718 -7.5,1.6182 -2.75,0.6464 -8.8152,1.296 -13.4782,1.4435 -7.8932,0.2497 -8.5831,0.4445 -10,2.8225 -5.5083,9.2451 -7.4306,12.2905 -8.0355,12.7309 -0.3778,0.275 -1.2614,1.625 -1.9636,3 -1.3954,2.7325 -6.0536,9.3506 -10.0878,14.3324 -1.4109,1.7422 -3.3151,4.7931 -4.2316,6.7798 -0.9165,1.9868 -2.3497,4.1794 -3.1848,4.8725 -1.654,1.64132 -1.884,4.00837 -3.2942,5.5767 -2.4347,2.6582 -6.4792,9.697 -5.3312,9.2783 0.5123,-0.1868 4.6835,-3.9208 9.2692,-8.2977 9.2511,-8.8298 18.0573,-14.4537 27.6107,-17.6329 7.5645,-2.5173 10.9713,-1.6559 13.7329,3.472 1.659,3.0806 1.6581,3.4027 -0.018,6.6778 -0.9689,1.8926 -3.0811,5.1202 -4.6938,7.1725 -7.2582,9.2362 -9.6085,17.7325 -6.237,22.5461 2.0824,2.9731 5.8052,2.8521 13.0725,-0.4246 7.358,-3.3178 18.9113,-12.5823 20.8897,-16.7514 3.604,-7.5949 16.5304,-19.4509 25.7907,-23.6551 7.9693,-3.6181 17.8009,-1.3385 19.2575,4.4651 l 0.6209,2.4735 6.489,-3.4425 c 5.5193,-2.928 10.323,-4.3672 10.323,-3.0928 0,0.1923 -2.8874,3.2298 -6.4165,6.75 -6.9922,6.9746 -13.5835,15.9234 -13.5835,18.4419 0,0.8745 -0.4668,2.4622 -1.0374,3.5283 -1.4222,2.6574 0.5176,9.5815 3.0663,10.9456 2.5444,1.3617 11.8264,-0.9699 15.5634,-3.9095 1.4726,-1.1583 3.1857,-2.106 3.807,-2.106 2.7028,0 13.7974,-10.4538 18.0165,-16.9758 6.9427,-10.7325 12.5204,-15.7534 16.0118,-14.4136 2.0583,0.7898 2.0021,1.1352 -0.7794,4.795 -1.2935,1.7019 -3.1126,4.5716 -4.0426,6.3771 -3.2246,3.11918 -2.3418,3.51487 -4.3692,6.3569 -0.955,1.306 -2.2231,3.2714 -2.8179,4.3675 -0.5948,1.0961 -2.3268,4.1333 -3.8489,6.7495 -3.8137,6.5551 -1.0764,5.0319 4.4304,-2.4653 9.5662,-13.0238 24.8456,-25.7157 33.3274,-27.6837 5.0137,-1.1632 5.2417,-1.1202 7.4226,1.4019 3.403,3.9354 2.7994,9.6001 -1.5233,14.2966 -0.7003,0.7608 -2.0045,2.8032 -2.8982,4.5386 -0.8937,1.7354 -2.6318,4.5053 -3.8625,6.1553 -4.8119,6.4515 -6.4508,10.9712 -5.382,14.8422 1.089,3.944 4.1561,6.6578 7.5246,6.6578 6.2238,0 27.5617,-19.6796 33.6123,-31 7.1523,-13.3818 9.2865,-16.7702 17.3204,-27.5 4.5299,-6.05 9.2751,-12.8 10.5447,-15 3.5046,-6.0724 8.9852,-13.2894 14.2447,-18.758 1.7338,-1.8027 1.7387,-1.9708 0.092,-3.175 -0.9564,-0.6994 -2.9155,-1.3051 -4.3535,-1.346 -1.438,-0.041 -4.6293,-0.8136 -7.0917,-1.7171 -10.8009,-3.9632 -16.8589,-5.4711 -24.4573,-6.0876 -7.1164,-0.5775 -8.642,-0.3947 -12.3057,1.4744 -4.3658,2.2273 -5.841,5.0502 -4.9834,9.5365 0.3267,1.7086 0.074,2.2432 -0.8869,1.8745 -2.5304,-0.971 -1.6252,-7.789 1.4747,-11.1075 5.1184,-5.4793 17.7151,-5.1066 35.632,1.0541 11.699,4.0227 19.9096,5.6992 21.6718,4.4249 0.8923,-0.6453 4.201,-3.1341 7.3528,-5.5307 6.9374,-5.2753 12.2216,-7.56522 18.8763,-10.1743 0.8875,-0.34794 1.4762,-0.49643 2.3583,-0.85769 0.4235,-0.17346 1.1612,-0.41166 1.5989,-0.54551 1.7574,-0.53746 2.6898,-1.1349 5.5,-0.3808 5.087,1.3651 8.3567,5.1034 8.9326,10.213 0.3949,3.5039 0.024,4.7286 -2.2534,7.4348 -2.8416,3.3771 -6.8297,5.832 -11.7808,7.252 -3.1827,0.9128 -17.1075,-0.4793 -22.668,-2.2662 -3.4076,-1.095 -3.5355,-1.029 -8.3029,4.285 -2.663,2.9685 -6.1484,7.9329 -7.7453,11.032 -1.5969,3.0992 -3.495,6.2492 -4.2181,7 -0.7231,0.7509 -2.8411,3.7689 -4.7068,6.7068 -1.8656,2.9379 -3.9203,5.8699 -4.566,6.5155 -0.6457,0.6457 -2.4171,3.417 -3.9364,6.1584 -1.5194,2.7415 -3.6886,5.50384 -4.163,6.5632 l -1.4006,3.1276 c -0.3481,0.77741 -0.881,1.84381 -1.4079,2.7173 -0.917,1.52001 -2.1424,2.6102 -3.0403,4.3724 -0.8978,1.7622 -2.7584,5.004 -4.1347,7.204 -1.3764,2.2 -2.4282,4.9716 -3.0764,5.75 l -1.4573,1.75 c -0.3109,0.37339 -0.8834,0.675 -0.8834,1.5 0,0.825 0.2402,1.5 0.5337,1.5 0.6464,0 6.1026,-5.5104 6.6073,-6.673 0.4114,-0.9476 13.8643,-11.8756 18.359,-14.9131 1.65,-1.1151 6.326,-3.4668 10.3912,-5.2259 7.5177,-3.2533 8.749,-3.2195 11.3435,0.312 1.3479,1.8347 0.78,5.9624 -1.3072,9.5 -2.3819,4.0373 -7.8594,8.52136 -12.4575,12 -0.732,0.5538 -1.5607,0.97078 -2.3778,1.3889 -1.8625,0.95302 -3.2161,1.9085 -5.7381,2.5435 l -4.5853,1.1546 1.8656,2.1657 c 1.0261,1.1911 2.5406,2.9515 3.3656,3.9121 0.825,0.9605 3.75,6.0624 6.5,11.3376 6.7507,12.9496 11.0201,18.3773 16.7898,21.345 4.1677,2.1437 5.2516,2.322 8.3451,1.3726 5.6138,-1.7229 14.3651,-7.4326 14.3651,-9.3723 0,-1.8197 1.743,-3.438 2.6866,-2.4944 1.37,1.37 -1.0534,5.4119 -4.9376,8.2355 -9.2948,6.7567 -10.6603,7.234 -16.9237,5.9148 z m -311.8871,-39.5747 c 9.9561,-5.209 14.2321,-7.9689 17.4244,-11.2465 1.7256,-1.7717 4.848,-4.05964 6.3783,-5.7018 l 3.25,-3.4875 c 0,-0.5538 2.3967,-4.3788 5.315,-8.5 16.0643,-22.6865 26.6431,-39.0688 25.4699,-39.4429 -0.7017,-0.2238 -7.5254,-0.6875 -15.1637,-1.0306 -7.6383,-0.343 -16.1883,-1.0668 -19,-1.6085 -4.4569,-0.8586 -5.2769,-0.7558 -6.3981,0.802 -2.0882,2.9017 -12.214,18.5253 -12.214,18.8458 0,0.1618 -2.2747,3.7292 -5.0548,7.9274 -6.3814,9.6361 -14.5804,25.9699 -15.8925,31.6605 -2.5562,11.0855 -0.1189,16.651 6.7292,15.3663 1.977,-0.3709 6.0974,-1.9838 9.1563,-3.5842 z m 118.2599,-1.1301 c 14.8041,-12.2183 28.8869,-25.855 28.061,-27.1723 -0.3884,-0.6196 -0.7621,-1.5765 -0.8304,-2.1265 -0.068,-0.55 -0.1926,-1.4903 -0.2764,-2.0895 -0.2094,-1.4978 -4.6743,-3.4113 -7.9494,-3.4068 -3.7938,0.01 -7.9774,2.8122 -15.1386,10.1571 -7.2989,7.4862 -12.0429,16.5964 -12.7212,24.4296 -0.607,7.009 0.5813,7.037 8.855,0.2084 z m -27.8232,-71.7825 c 12.9776,-3.3478 20.6208,-5.45171 29.6964,-16.38143 8.7699,-10.56156 0.3064,-20.19447 -8.1318,-18.61807 -7.0468,0.42851 -9.0031,4.41555 -13.1846,6.6099 -4.9443,2.5568 -28.1305,26.5122 -29.6356,30.6188 -0.5277,1.4398 12.2119,0.1037 21.2556,-2.2292 z m 244.9072,-7.3931 c 6.465,-2.7662 9.4384,-7.8409 8.8609,-15.1232 -0.2494,-3.1444 -4.0767,-4.388 -9.0161,-2.9295 -2.3013,0.6795 -4.4135,1.2511 -4.6938,1.2702 -1.3352,0.091 -10.4988,6.4221 -15.2648,10.546 -5.9704,5.1661 -5.9165,5.256 3.9126,6.5286 9.7547,1.263 12.6904,1.21 16.2012,-0.2921 z"
       id="path4173"
       inkscape:connector-curvature="0"
       sodipodi:nodetypes="scccccccscsscssssccscccscscsscscssssccsccscccscscccscsssssscsscscsscccsssscccssccccccsccsssscssccccccccccsccccsssscsscscscccccscscsccccssssccccccscsscccccccssccscscssccscccscsssccscsccccccsscssscccsccsscscccsscssccccccccsssccscssccsssscccsccsccssscscsccssscsscccsccssccssssscscccccccssaccsssscccscaaccccssssssccsssccccccsccsssccccsssssccssccscssc" />
  </g>
</svg>
