<?xml version="1.0" encoding="UTF-8" standalone="no"?>
<!-- Created with Inkscape (http://www.inkscape.org/) -->

<svg
 
   xmlns="http://www.w3.org/2000/svg"
   
   id="svg3336"
   version="1.1"
  
   width="115.84743"
   height="126.47485"
   viewBox="0 0 115.84743 126.47485">
 
  <path
     style="fill:#343434"
     d="m 48.915767,124.14958 c -2.475,-1.34932 -13.05,-7.3759 -23.5,-13.39241 C 9.9085703,101.82902 5.8642723,99.036705 3.4157673,95.567675 l -3.00000005,-4.2504 -0.295457,-26.83051 C -0.16387875,38.679481 -0.09201475,37.479403 2.0046973,33.018841 4.7413303,27.196903 5.9527563,26.310844 30.915767,11.872763 51.326981,0.06734652 51.443921,0.01592552 57.915771,3.1851572e-4 c 5.80546,-0.0139999957 7.24797,0.41967600428 13.5,4.05863698428 3.85,2.240872 13.525,7.8145255 21.5,12.3858975 24.189589,13.86578 23.201799,11.754896 22.797139,48.716723 l -0.29714,27.141529 -3.07479,3.84077 c -2.93504,3.66621 -9.02614,7.519035 -37.925209,23.988985 -12.35657,7.04217 -18.24824,7.97022 -25.500004,4.01672 z M 74.268751,113.5766 c 6.68086,-3.79942 16.19702,-9.2206 21.14702,-12.04707 4.949999,-2.826475 10.237499,-6.563355 11.749999,-8.304185 l 2.75,-3.16515 0,-27.216576 0,-27.216571 -3.25,-3.366148 C 104.87827,30.409519 94.138321,23.627478 82.799221,17.189698 65.553951,7.3986835 61.498371,5.4846435 57.997891,5.4846435 c -3.52112,0 -7.626004,1.966033 -25.88346,12.3968835 C 16.613199,26.737692 9.7731373,31.206939 8.1657673,33.52941 c -2.190177,3.164563 -2.25,3.932122 -2.25,28.868718 0,31.019077 -0.220484,30.311967 11.5947997,37.185077 35.750914,20.796765 35.806304,20.825465 40.258184,20.863875 3.58228,0.0309 6.5036,-1.18551 16.5,-6.87048 z M 38.838844,101.56156 C 35.435423,98.158145 35.1654,95.227505 37.849635,90.825365 l 1.926392,-3.15928 -7.978717,-9.194959 c -4.388294,-5.057229 -7.806853,-9.710554 -7.596797,-10.340722 0.241232,-0.723695 3.114013,-1.145761 7.798587,-1.145761 6.75,0 7.416667,0.179775 7.416667,2 0,1.438443 -0.772141,2.088845 -2.75,2.316422 -1.5125,0.174033 -2.75,0.544009 -2.75,0.82217 0,0.766509 9.237025,10.361409 9.974945,10.361409 0.353982,0 2.73356,-2.420787 5.287955,-5.379528 l 4.644344,-5.379528 -1.87013,-3.668166 c -1.931554,-3.788611 -1.545604,-8.050232 1.00767,-11.126738 1.27816,-1.540089 0.79603,-2.395412 -5.368664,-9.524163 l -3.823883,-4.421877 -4.855881,5.5 c -4.911674,5.563193 -5.110352,6.514738 -1.496356,7.16663 1.207654,0.217837 2,1.14768 2,2.347065 0,1.75134 -0.779857,2.020858 -6.592614,2.278406 C 22.306929,60.742693 22.209778,59.528693 31.846103,48.0675 l 8.047316,-9.571266 -1.985088,-3.255795 c -2.887746,-4.736269 -2.561219,-8.099516 1.084161,-11.166901 3.979727,-3.34872 6.398112,-3.267903 10.000195,0.334183 3.252294,3.252284 3.590384,5.372284 1.44756,9.076923 -0.79532,1.375 -1.73526,3.058415 -2.08876,3.740922 -0.59331,1.145497 8.254714,13.246798 9.691804,13.255346 0.84947,0.0051 9.87248,-11.011756 9.87248,-12.053989 0,-0.455377 -0.92196,-2.390569 -2.04881,-4.300427 -1.90446,-3.227831 -1.9431,-3.72546 -0.54837,-7.063521 1.86344,-4.459825 5.6769,-6.202164 9.81927,-4.486338 1.56989,0.650269 3.28715,1.991006 3.81613,2.979416 1.39752,2.611293 1.12249,7.132012 -0.57002,9.369721 -0.80751,1.067621 -1.4682,2.518566 -1.4682,3.224323 0,0.705756 2.77592,4.557248 6.16872,8.55887 3.39279,4.001622 6.77864,7.998099 7.52411,8.881059 0.74546,0.88296 1.06426,2.364059 0.70843,3.29133 -0.53859,1.403541 -1.8408,1.637147 -7.77411,1.394617 -6.36337,-0.26011 -7.12715,-0.505658 -7.12715,-2.291329 0,-1.438443 0.77214,-2.088845 2.75,-2.316422 1.5125,-0.174033 2.75,-0.573478 2.75,-0.887656 0,-1.260662 -8.56451,-11.176005 -9.44183,-10.931029 -0.518,0.144645 -3.15607,2.798944 -5.86238,5.898441 l -4.92057,5.635451 2.11239,2.685466 c 2.67757,3.403978 2.68227,6.80668 0.0146,10.553107 l -2.09781,2.946101 4.82848,5.20827 c 2.65566,2.864548 5.21732,5.372491 5.69258,5.573191 0.87668,0.37024 9.54744,-8.737374 9.62975,-10.114921 0.0246,-0.4125 -1.03205,-0.75 -2.3482,-0.75 -2.37669,0 -4.1281,-2.347816 -3.05122,-4.090242 0.30923,-0.500367 3.69981,-0.909758 7.53461,-0.909758 10.58822,0 10.43377,1.031175 -2.21753,14.805381 -5.25603,5.722551 -5.58445,6.669731 -3.34107,9.635751 2.39459,3.16593 1.85009,8.30044 -1.17782,11.106615 -1.45532,1.34874 -3.27766,2.45225 -4.04966,2.45225 -3.00401,0 -7.13519,-3.07608 -8.18829,-6.096995 -0.93284,-2.67596 -0.77041,-3.74564 1.06455,-7.01052 2.13063,-3.79094 2.13501,-3.88914 0.27334,-6.12261 -4.0247,-4.828436 -7.87755,-8.769872 -8.57276,-8.769872 -0.39958,0 -2.80792,2.436311 -5.35186,5.414021 l -4.625354,5.414031 2.04803,3.82117 c 2.742084,5.11612 2.586864,6.96579 -0.87506,10.427695 -3.697316,3.69732 -6.456524,3.69732 -10.153843,0 z m 6.745052,-4.654455 c 0.332948,-0.86765 -0.08492,-2.26783 -0.928606,-3.11151 -1.378621,-1.37862 -1.601546,-1.32104 -2.201292,0.56859 -1.126016,3.54777 1.824439,5.944885 3.129898,2.54292 z m 28.192485,0.2455 c 0.817,-0.98442 0.75282,-1.81437 -0.24592,-3.18023 -1.29783,-1.77489 -1.39812,-1.7609 -2.5293,0.35272 -1.82846,3.41651 0.40113,5.688105 2.77522,2.82751 z M 59.415771,63.484643 c 0,-1.283333 -0.50706,-2.502352 -1.12679,-2.708931 -1.41906,-0.473018 -2.50278,2.207698 -1.71862,4.251195 0.86408,2.251757 2.84541,1.17784 2.84541,-1.542264 z M 45.915767,29.921216 c 0,-0.725196 -0.48921,-1.620886 -1.087132,-1.990423 -1.690488,-1.044778 -3.18674,1.115595 -2.428107,3.505837 0.547225,1.724152 0.965628,1.919114 2.099337,0.978219 0.778746,-0.646302 1.415902,-1.768437 1.415902,-2.493633 z m 27.473624,-1.391077 c -1.33777,-1.337375 -1.66634,-1.350757 -2.44001,-0.09938 -0.54407,0.880026 -0.47839,2.222808 0.1678,3.430221 1.03622,1.936192 1.09514,1.938591 2.44001,0.09938 1.18209,-1.616613 1.15822,-2.104582 -0.1678,-3.430221 z"
     id="path3346"
     inkscape:connector-curvature="0" />
</svg>
