<?xml version="1.0" encoding="UTF-8" standalone="no"?>
<!-- Created with Inkscape (http://www.inkscape.org/) -->

<svg
   xmlns:dc="http://purl.org/dc/elements/1.1/"
   xmlns:cc="http://creativecommons.org/ns#"
   xmlns:rdf="http://www.w3.org/1999/02/22-rdf-syntax-ns#"
   xmlns:svg="http://www.w3.org/2000/svg"
   xmlns="http://www.w3.org/2000/svg"
   xmlns:sodipodi="http://sodipodi.sourceforge.net/DTD/sodipodi-0.dtd"
   xmlns:inkscape="http://www.inkscape.org/namespaces/inkscape"
   width="234.03336mm"
   height="50.046219mm"
   viewBox="0 0 829.25205 177.32912"
   id="svg2"
   version="1.1"
   inkscape:version="0.91 r13725"
   sodipodi:docname="logo_main.svg">
  <defs
     id="defs4">
    <clipPath
       id="clipPath4150"
       clipPathUnits="userSpaceOnUse">
      <path
         inkscape:connector-curvature="0"
         id="path4152"
         d="M 0,758 1024,758 1024,0 0,0 0,758 Z" />
    </clipPath>
    <clipPath
       id="clipPath4182"
       clipPathUnits="userSpaceOnUse">
      <path
         inkscape:connector-curvature="0"
         id="path4184"
         d="m 626.886,344.242 139.66,0 0,-21.848 -139.66,0 0,21.848 z" />
    </clipPath>
  </defs>
  <sodipodi:namedview
     id="base"
     pagecolor="#ffffff"
     bordercolor="#666666"
     borderopacity="1.0"
     inkscape:pageopacity="0.0"
     inkscape:pageshadow="2"
     inkscape:zoom="0.35"
     inkscape:cx="-59.392916"
     inkscape:cy="434.43339"
     inkscape:document-units="px"
     inkscape:current-layer="g4146"
     showgrid="false"
     fit-margin-top="0"
     fit-margin-left="0"
     fit-margin-right="0"
     fit-margin-bottom="0"
     inkscape:window-width="1366"
     inkscape:window-height="706"
     inkscape:window-x="-8"
     inkscape:window-y="-8"
     inkscape:window-maximized="1" />
  <metadata
     id="metadata7">
    <rdf:RDF>
      <cc:Work
         rdf:about="">
        <dc:format>image/svg+xml</dc:format>
        <dc:type
           rdf:resource="http://purl.org/dc/dcmitype/StillImage" />
        <dc:title></dc:title>
      </cc:Work>
    </rdf:RDF>
  </metadata>
  <g
     inkscape:label="Layer 1"
     inkscape:groupmode="layer"
     id="layer1"
     transform="translate(48.91172,-266.55476)">
    <g
       transform="matrix(1.25,0,0,-1.25,-276.30922,828.57101)"
       inkscape:label="Olga_Volyanska_photo_fin"
       id="g4144">
      <g
         id="g4146">
        <g
           clip-path="url(#clipPath4150)"
           id="g4148">
          <g
             transform="translate(341.5,340)"
             id="g4154">
            <path
               inkscape:connector-curvature="0"
               id="path4156"
               style="fill:#0a0b0c;fill-opacity:1;fill-rule:nonzero;stroke:none"
               d="m 0,0 c -16.953,-22.421 -30.05,-30.9 -39.5,-30.9 -6.447,0 -10.95,4.749 -10.95,10.116 0,21.292 24.976,34.617 48.117,34.617 3.26,0 6.904,-0.484 10.488,-1.327 C 5.558,7.998 2.803,3.707 0,0 m -4.546,32.665 c 0,9.386 13.161,19.313 21.314,19.313 2.75,0 5.28,-1.55 6.958,-3.752 -9.284,-8.6 -22.673,-18.617 -27.469,-18.617 -0.772,0 -0.803,1.878 -0.803,3.056 m 9.678,53.406 c 1.54,0 2.52,-1.334 2.52,-3.468 0,-6.105 -15.722,-19.753 -34.24,-28.906 7.454,16.032 22.083,32.374 31.72,32.374 m -89.981,-61.25 c -4.916,0 -7.783,5 -7.783,14.197 0,6.706 1.963,14.344 5.175,21.521 4.461,-10.666 14.3,-16.899 28.607,-16.899 2.163,0 4.383,0.166 6.636,0.471 -9.834,-11.205 -21.86,-19.29 -32.635,-19.29 m -2.416,50.054 c 0,4.03 0.674,7.718 1.866,11.056 1.669,-0.703 5.79,-2.519 10.414,-4.241 -3.714,-2.981 -7.312,-6.745 -10.363,-11.023 -0.523,-0.736 -1.04,-1.495 -1.554,-2.264 -0.244,2.053 -0.363,4.213 -0.363,6.472 m 15.403,6.966 c 0.06,0.048 0.12,0.099 0.18,0.146 4.028,3.081 7.667,5.888 12.431,5.888 2.759,0 4.615,-1.625 4.615,-3.888 0,-2.273 -1.516,-4.404 -6.114,-4.404 -3.195,0 -7.229,0.991 -11.112,2.258 m 19.659,26.646 c 11.438,0 19.953,-6.801 19.953,-20.237 0,-13.317 -7.984,-30.015 -18.931,-42.938 -2.625,-0.425 -5.194,-0.658 -7.669,-0.658 -16.018,0 -24.272,7.133 -27.176,18.888 3.476,6.871 8.056,13.109 13.08,17.408 4.601,-1.624 9.406,-2.994 12.617,-2.994 5.835,0 8.492,2.716 8.492,5.857 0,2.887 -2.722,4.91 -7.414,4.91 -4.301,0 -9.551,-2.321 -14.658,-6.185 -5.035,1.783 -9.489,3.829 -11.065,4.492 5.602,13.979 20.468,21.457 32.771,21.457 M 11.886,13.261 c 8.282,14.001 14.527,28.58 17.172,39.436 -0.805,0.21 -1.659,-0.072 -2.181,-0.719 l -2.384,-2.955 c -1.897,2.418 -4.664,4.054 -7.725,4.054 -4.342,0 -12.435,-2.544 -17.523,-6.48 -4.782,-3.7 -7.828,-7.905 -8.655,-11.826 -5.734,-4.791 -11.88,-7.7 -16.717,-7.7 -4.902,0 -5.186,3.481 -5.186,8.989 0,4.727 1.524,10.321 4.006,16.025 19.641,9.414 36.297,24.149 36.297,30.518 0,1.971 -1.197,4.746 -3.858,4.746 -11.561,0 -31.138,-17.162 -38.407,-36.7 -5.341,-2.225 -10.78,-3.983 -16.032,-5.005 11.063,13.547 18.692,30.623 18.692,43.01 0,13.974 -9.567,20.959 -21.734,20.959 -16.286,0 -30.166,-7.98 -35.493,-21.5 -10.354,3.803 -22.05,7.108 -36.923,7.108 -19.595,0 -34.817,-5.741 -34.817,-13.65 0,-1.138 0.372,-2.089 1.098,-2.852 0.743,-0.781 2.343,-0.857 3.105,-0.095 -0.014,0.014 -0.403,1.445 -0.403,2.947 0,5.745 10.221,12.679 31.017,12.679 14.7,0 26.272,-3.436 36.524,-7.232 -1.246,-3.536 -1.93,-7.425 -1.93,-11.638 0,-3.68 0.402,-7.099 1.187,-10.227 -5.256,-8.582 -9.448,-18.421 -9.448,-26.135 0,-7.443 4.878,-15.396 12.958,-15.396 12.357,0 25.059,8.877 35.126,20.771 5.45,0.917 11.065,2.625 16.57,4.839 -1.475,-4.345 -2.335,-8.788 -2.335,-13.172 0,-8.161 5.887,-9.874 9.986,-9.874 6.228,0 12.247,3.634 16.506,7.02 -0.011,-0.181 -0.024,-0.362 -0.024,-0.541 0,-3.435 4.122,-4.156 5.902,-4.156 5.022,0 17.887,9.516 27.197,17.974 C 21.02,38.534 15.543,25.594 8.932,13.866 c -3.825,0.695 -7.708,1.067 -11.265,1.067 -23.67,0 -51.217,-13.05 -51.217,-34.884 0,-7.666 6.955,-12.049 14.05,-12.049 17.564,0 36.685,20.898 50.49,43.762 8.594,-2.507 16.127,-6.984 16.127,-11.712 0,-2.53 -0.358,-3.618 -1.07,-4.883 1.059,-0.738 2.877,-0.34 3.62,0.353 1.25,1.167 1.729,2.105 1.729,4.563 0,6.1 -9.159,10.815 -19.51,13.178" />
          </g>
          <g
             transform="translate(584.6667,338.1667)"
             id="g4158">
            <path
               inkscape:connector-curvature="0"
               id="path4160"
               style="fill:#0a0b0c;fill-opacity:1;fill-rule:nonzero;stroke:none"
               d="m 0,0 c -16.953,-22.421 -29.216,-29.317 -38.667,-29.317 -6.447,0 -10.95,4.749 -10.95,10.116 0,21.292 24.977,34.617 48.117,34.617 3.537,0 7.162,-0.454 10.524,-1.273 C 6.317,9.204 3.293,4.355 0,0 m 4.318,84.771 c 2.36,0 3.201,-1.847 3.201,-3.575 0,-7.315 -20.513,-21.222 -38.627,-28.357 8.734,16.701 24.694,31.932 35.426,31.932 M 12.687,14.938 C 19.431,26.991 24.482,39.391 26.891,49.28 26.086,49.49 25.233,49.209 24.71,48.561 L 23.29,46.8 23.25,46.833 C 23.169,46.694 23.064,46.536 22.94,46.367 L 22.342,45.626 C 17.415,39.884 -2.478,24.108 -6.91,24.108 c -0.772,0 -0.802,1.879 -0.802,3.057 0,6.795 10.212,17.585 14.629,22.168 -0.584,1.032 -1.82,0.779 -2.586,0.139 -4.414,-3.69 -13.445,-10.875 -16.273,-18.104 -6.518,-5.053 -15.031,-10.247 -20.365,-10.247 -3.812,0 -5.075,3.389 -5.075,10.075 0,6.263 2.118,13.285 5.499,20.131 18.631,6.958 40.501,21.251 40.501,29.869 0,2.796 -1.727,4.675 -4.3,4.675 -7.797,0 -19.754,-7.284 -29.592,-19.009 -4.353,-5.187 -8.13,-10.601 -11.033,-15.902 -4.969,-1.622 -9.563,-2.589 -13.25,-2.589 -4.318,0 -6.865,0.581 -8.197,1.036 -0.008,0.003 -0.016,0.006 -0.024,0.008 -1.049,0.345 -1.966,-0.805 -1.527,-1.818 0.348,-0.803 0.699,-1.893 0.699,-3.026 0,-11.863 -12.909,-23.45 -19.492,-23.45 -3.084,0 -4.284,2.758 -4.284,7.2 0,9.259 7.885,20.901 16.357,21.637 0,0 -0.472,1.116 -1.969,0.782 -8.881,-1.985 -19.488,-13.116 -19.488,-22.419 0,-5.042 2.863,-8.3 8.8,-8.3 7.965,0 21.175,11.891 21.175,24.55 0,1.404 -0.389,2.726 -0.745,3.642 1.427,-0.418 4.127,-0.942 8.695,-0.942 3.464,0 7.792,0.848 12.513,2.296 -3.414,-6.565 -5.438,-12.909 -5.438,-18.371 0,-8.113 5.3,-11.175 10.175,-11.175 5.299,0 13.302,4.647 19.781,9.498 -0.185,-0.789 -0.286,-1.575 -0.286,-2.354 0,-3.435 4.122,-4.156 5.902,-4.156 5.402,0 19.018,11.167 28.208,20.06 C 19.18,35.916 15.16,25.619 9.777,15.538 6.151,16.186 2.291,16.516 -1.5,16.516 c -23.67,0 -51.217,-13.05 -51.217,-34.883 0,-7.667 6.956,-12.05 14.05,-12.05 18.477,0 37.43,21.048 50.464,43.785 6.796,-2.176 11.924,-5.916 11.924,-10.401 0,-2.53 -0.358,-3.618 -1.07,-4.883 1.059,-0.738 2.877,-0.34 3.62,0.354 C 27.521,-0.396 28,0.542 28,3 28,8.884 21.328,12.895 12.687,14.938" />
          </g>
          <g
             transform="translate(379.8404,369.6085)"
             id="g4162">
            <path
               inkscape:connector-curvature="0"
               id="path4164"
               style="fill:#0a0b0c;fill-opacity:1;fill-rule:nonzero;stroke:none"
               d="m 0,0 c -0.772,0 -0.803,1.879 -0.803,3.057 0,9.385 13.161,19.312 21.314,19.312 2.593,0 5.09,-1.311 6.778,-3.304 C 26.412,18.112 25.584,17.153 24.823,16.188 15.775,8.241 4.325,0 0,0 M 45.723,7.266 44.916,6.349 c 0.52,-0.613 0.679,-1.778 0.679,-3.303 0,-4.65 -6.525,-11.196 -13.929,-11.196 -5.742,0 -7.305,4.275 -7.305,11.029 0,7.183 2.325,13.667 9.575,20.417 -0.484,0.711 -1.491,0.837 -2.127,0.255 -1.326,-1.215 -2.588,-2.44 -3.766,-3.674 -1.9,2.194 -4.635,3.592 -7.532,3.592 -4.342,0 -12.435,-2.544 -17.523,-6.481 -5.65,-4.372 -8.89,-9.45 -8.89,-13.931 0,-3.436 4.122,-4.157 5.902,-4.157 4.162,0 13.813,6.607 22.325,13.704 -1.924,-3.183 -3.064,-6.424 -3.064,-9.725 0,-7.667 4.467,-12.05 12.408,-12.05 8.102,0 16.026,6.995 16.026,12.217 0,1.923 -0.866,3.416 -1.972,4.22" />
          </g>
          <g
             transform="translate(786.3405,366.6083)"
             id="g4166">
            <path
               inkscape:connector-curvature="0"
               id="path4168"
               style="fill:#0a0b0c;fill-opacity:1;fill-rule:nonzero;stroke:none"
               d="m 0,0 c -0.772,0 -0.803,1.879 -0.803,3.057 0,9.385 13.161,19.312 21.314,19.312 2.733,0 5.366,-1.452 7.05,-3.63 -0.069,-0.09 -0.137,-0.181 -0.204,-0.273 C 18.042,9.902 4.742,0 0,0 m 56.366,6.046 c 0,-6.117 -9.305,-15.492 -17.348,-15.492 -5.984,0 -9.886,4.081 -9.886,15.325 0,7.527 1.763,13.013 5.6,17.591 -0.569,0.706 -1.603,0.818 -2.312,0.252 -1.512,-1.204 -2.918,-2.582 -4.165,-4.1 -1.905,2.341 -4.737,3.847 -7.744,3.847 -4.342,0 -12.435,-2.544 -17.523,-6.481 -5.65,-4.372 -8.89,-9.45 -8.89,-13.931 0,-3.436 4.122,-4.157 5.902,-4.157 4.661,0 16.206,8.286 25.325,16.267 -1.433,-2.82 -2.293,-5.948 -2.293,-9.288 0,-6.35 4.34,-16.425 15.986,-16.425 7.588,0 17.51,7.57 19.829,13.938 0.486,1.334 -0.375,3.125 -2.481,2.654" />
          </g>
          <g
             transform="translate(506.7018,431.3209)"
             id="g4170">
            <path
               inkscape:connector-curvature="0"
               id="path4172"
               style="fill:#0a0b0c;fill-opacity:1;fill-rule:nonzero;stroke:none"
               d="m 0,0 c 0,3.204 1.477,5.117 3.95,5.117 3.107,0 3.784,-3.127 3.784,-7.95 0,-2.054 -0.385,-4.337 -1.091,-6.784 C 2.786,-7.485 0,-4.423 0,0 m 26.861,-15.631 c 5.4,-0.476 7.498,-2.594 7.498,-5.827 0,-1.843 -0.2,-3.163 -0.845,-4.262 0.953,-0.834 2.739,-0.485 3.603,0.441 0.999,1.072 1.342,2.124 1.342,3.821 0,3.874 -5.463,6.397 -11.502,6.922 -3.837,0.334 -11.462,1.111 -17.627,3.645 0.956,2.91 1.504,5.638 1.504,8.058 0,5.491 -3.021,9.049 -6.884,9.049 C 0.835,6.216 -2.1,3.834 -2.1,0 c 0,-4.257 3.043,-7.885 8.443,-10.611 -7.391,-23.267 -42.288,-60.298 -56.559,-60.298 -3.491,0 -3.575,2.225 -3.575,5.951 0,6.717 4.876,15.583 11.097,24.969 7.02,10.591 15.278,21.541 15.278,31.031 0,6.727 -6.579,11.424 -13.134,11.424 -8.994,0 -22.508,-8.738 -22.508,-17.341 0,-0.615 0.169,-1.377 0.864,-1.929 0.629,-0.5 1.555,-0.382 2.102,0.207 -0.324,0.3 -0.866,0.923 -0.866,1.722 0,7.842 11.978,16.242 20.408,16.242 6.002,0 9.034,-4.15 9.034,-10.325 0,-9.158 -8.166,-19.968 -15.095,-30.422 -6.315,-9.529 -10.28,-18.529 -10.28,-25.578 0,-4.349 2.558,-7.05 6.675,-7.05 8.816,0 24.487,12.604 36.106,25.096 9.005,9.682 19.092,23.687 23.129,35.1 4.712,-1.878 10.759,-3.195 17.842,-3.819" />
          </g>
          <g
             transform="translate(803.6241,443.8751)"
             id="g4174">
            <path
               inkscape:connector-curvature="0"
               id="path4176"
               style="fill:#0a0b0c;fill-opacity:1;fill-rule:nonzero;stroke:none"
               d="m 0,0 c 4.999,0.329 8.047,-1.593 8.047,-6.276 0,-12.083 -20.215,-22.695 -38.698,-23.349 C -20.093,-13.803 -8.844,-0.583 0,0 m -81.847,-76.917 c 0,-3.73 -2.689,-10.458 -6.5,-10.458 -1.574,0 -4.027,0.083 -4.027,3.667 0,2.648 4.902,6.183 10.041,9.169 0.292,-0.725 0.486,-1.502 0.486,-2.378 m 5.806,28.359 c 2.834,0 3.901,-2.518 3.901,-4.234 0,-2.779 -1.849,-5.583 -10.501,-12.455 -0.493,1.279 -0.823,2.724 -0.823,4.484 0,9.134 3.59,12.205 7.423,12.205 m -108.743,-29.709 c -0.772,0 -0.802,1.879 -0.802,3.057 0,9.386 13.16,19.312 21.313,19.312 2.709,0 5.318,-1.428 7.003,-3.573 -0.273,-0.307 -0.539,-0.614 -0.803,-0.921 -9.275,-8.422 -22.078,-17.875 -26.711,-17.875 m 104.26,67.528 c 0,3.127 1.234,5.052 4.259,5.052 2.615,0 4.409,-1.651 4.409,-6.284 0,-2.557 -1.054,-5.538 -2.886,-8.214 -3.285,2.532 -5.782,6.039 -5.782,9.446 m 61.165,-86.818 c -6.274,0 -9.041,5.317 -13.64,11.932 -3.393,4.883 -8.929,10.804 -14.327,14.937 8.72,1.077 23.903,7.688 23.903,14.467 0,2.087 -2.615,3.383 -5.217,3.383 -7.316,0 -18.924,-9.369 -23.975,-13.776 5.737,10.406 13.241,23.776 21.182,35.811 18.182,0.617 40.577,10.748 40.577,24.599 0,5.249 -3.717,7.665 -9.282,7.665 -10.203,0 -22.972,-14.16 -34.742,-31.087 -16.398,0.313 -30.378,3.745 -38.466,8.454 -0.151,0.097 -0.299,0.201 -0.448,0.303 2.012,3.049 3.037,6.398 3.037,8.898 0,5.45 -2.506,7.383 -5.508,7.383 -3.282,0 -5.359,-1.847 -5.359,-6.151 0,-3.875 2.693,-7.664 6.246,-10.34 -2.843,-3.68 -7.214,-6.571 -12.407,-6.571 -8.195,0 -15.558,2.586 -23.353,5.324 -8.175,2.872 -16.629,5.842 -26.481,5.842 -12.448,0 -18.883,-5.966 -18.883,-11.55 0,-4.174 2.113,-6.779 5.676,-6.779 0.979,0 2.173,0.539 2.424,1.25 -1.343,0.71 -4,1.423 -4,5.529 0,2.452 0.138,10.451 14.783,10.451 9.664,0 18.028,-2.939 26.117,-5.78 7.886,-2.771 15.334,-5.387 23.717,-5.387 6.05,0 10.526,3.151 13.368,6.989 0.115,-0.077 0.228,-0.157 0.343,-0.231 8.352,-4.843 21.988,-8.467 38.384,-8.808 -6.77,-9.846 -13.178,-20.525 -18.54,-29.848 -5.522,-2.742 -11.647,-4.486 -17.269,-7.102 -0.965,-0.449 -4.057,-1.759 -7.627,-3.563 -0.341,0.61 -0.72,1.206 -1.127,1.81 -0.683,1.013 -1.368,2.049 -1.934,3.211 7.387,5.841 11.146,9.683 11.146,13.5 0,2.309 -1.583,5.334 -5,5.334 -6.51,0 -12.523,-5.084 -12.523,-13.305 0,-3.626 1.277,-6.092 2.63,-8.191 -10.426,-7.637 -19.853,-12.509 -24.31,-12.509 -2.256,0 -2.533,0.977 -2.533,3.158 0,2.627 2.421,6.433 4.762,10.114 2.437,3.831 3.738,7.45 3.738,10.178 0,1.905 -1.702,4.175 -5.05,4.175 -10.592,0 -29.496,-23.232 -31.766,-26.068 -0.031,0.047 -0.083,0.187 -0.083,0.349 0,2.191 4.962,7.991 8.599,12.199 4.14,4.79 5.141,8.186 5.141,10.592 l 0,0.012 c -0.006,0.799 -0.663,1.524 -1.364,1.524 -0.463,0 -0.841,-0.297 -0.841,-0.297 0.003,-0.037 0.014,-0.076 0.014,-0.111 0,-1.996 -4.135,-6.78 -7.783,-11.001 -0.591,-0.684 -1.153,-1.361 -1.688,-2.029 -5.012,-5.868 -14.941,-12.17 -20.541,-12.17 -1.5,0 -1.825,1.082 -1.825,3.617 0,5.356 4.007,15.263 12.575,23.763 -0.517,0.739 -1.607,0.953 -2.257,0.328 -1.886,-1.815 -3.696,-3.667 -5.38,-5.518 -1.905,2.342 -4.738,3.85 -7.747,3.85 -4.342,0 -12.435,-2.544 -17.523,-6.481 -5.65,-4.372 -8.89,-9.45 -8.89,-13.931 0,-3.436 4.122,-4.156 5.902,-4.156 4.266,0 14.299,6.941 22.96,14.236 -2.905,-4.077 -4.74,-7.921 -4.74,-11.091 0,-4.25 3.61,-5.716 6.925,-5.716 4.587,0 11.578,3.724 16.975,8.244 -1.139,-1.893 -1.845,-3.532 -1.961,-4.73 -0.258,-2.664 1.119,-3.923 3.337,-3.486 l 0.143,0.18 c 0.212,0.268 21.331,26.792 31.818,26.792 2.04,0 2.951,-0.949 2.951,-3.076 0,-2.408 -4.323,-6.058 -6.568,-9.589 -2.425,-3.812 -4.933,-7.755 -4.933,-10.703 0,-2.547 4.264,-4.257 7.633,-4.257 5.587,0 16.543,6.58 24.917,12.686 0.054,-0.079 0.108,-0.162 0.161,-0.241 0.725,-1.075 1.583,-2.096 2.246,-3.222 -5.368,-3.046 -10.553,-6.869 -10.553,-10.369 0,-4.084 2.277,-4.767 5.126,-4.767 5.792,0 10.75,7.234 10.75,11.475 0,1.792 -0.374,3.232 -0.961,4.548 3.501,1.849 6.553,3.253 7.523,3.705 5.129,2.386 10.681,4.029 15.824,6.388 -3.267,-5.714 -6.111,-10.847 -8.36,-14.86 -0.009,-0.016 -0.018,-0.032 -0.027,-0.048 -1.085,-1.937 0.235,-4.34 2.451,-4.465 l 0.141,-0.008 c 0.693,1.222 1.492,2.649 2.387,4.246 1.258,2.245 2.735,4.938 4.39,7.948 1.252,1.174 16.432,15.233 25.028,15.233 0.937,0 1.906,-0.125 1.906,-1.343 0,-3.762 -12.031,-13.422 -20.244,-14.133 -0.379,-0.033 -0.708,-0.268 -0.839,-0.625 -0.145,-0.394 0.105,-0.726 0.318,-1.087 3.686,-6.249 7.254,-12.061 10.686,-16.999 4.775,-6.868 11.052,-10.27 17.901,-10.27 2.543,0 4.801,0.466 7.168,1.812 0.976,0.555 2.165,1.967 1.557,2.911 -1.831,-1.688 -5.12,-3.51 -8.611,-3.51" />
          </g>
          <g
             id="g4178">
            <g
               id="g4180" />
            <g
               id="g4186">
              <g
                 style="opacity:0.60000598"
                 id="g4188"
                 clip-path="url(#clipPath4182)">
                <g
                   id="g4190"
                   transform="translate(628.1367,335.5801)">
                  <path
                     inkscape:connector-curvature="0"
                     id="path4192"
                     style="fill:#231f20;fill-opacity:1;fill-rule:nonzero;stroke:none"
                     d="m 0,0 0,-6.232 c 1.131,-0.747 2.214,-0.987 3.369,-0.987 2.622,0 4.331,1.901 4.331,4.548 0,2.574 -1.468,4.356 -4.066,4.356 C 2.117,1.685 0.697,0.891 0,0 M -1.251,2.646 0,2.646 0,1.203 c 0.818,0.962 2.406,1.66 3.971,1.66 3.128,0 5.052,-2.261 5.052,-5.462 0,-3.297 -2.189,-5.799 -5.558,-5.799 -1.323,0 -2.574,0.264 -3.465,0.915 l 0,-5.511 -1.251,0 0,15.64 z" />
                </g>
                <g
                   id="g4194"
                   transform="translate(641.1768,344.2422)">
                  <path
                     inkscape:connector-curvature="0"
                     id="path4196"
                     style="fill:#231f20;fill-opacity:1;fill-rule:nonzero;stroke:none"
                     d="m 0,0 1.251,0 0,-7.483 c 0.842,0.938 2.406,1.66 3.898,1.66 2.936,0 4.524,-1.468 4.524,-4.861 l 0,-6.16 -1.251,0 0,5.968 c 0,2.599 -1.155,3.874 -3.562,3.874 -1.467,0 -2.912,-0.794 -3.609,-1.66 l 0,-8.182 -1.251,0 L 0,0 Z" />
                </g>
                <g
                   id="g4198"
                   transform="translate(660.3027,328.3613)">
                  <path
                     inkscape:connector-curvature="0"
                     id="path4200"
                     style="fill:#231f20;fill-opacity:1;fill-rule:nonzero;stroke:none"
                     d="M 0,0 C 2.551,0 4.355,1.828 4.355,4.451 4.355,7.05 2.551,8.903 0,8.903 -2.502,8.903 -4.355,7.074 -4.355,4.451 -4.355,1.853 -2.526,0 0,0 M 0,10.082 C 3.369,10.082 5.679,7.7 5.679,4.451 5.679,1.203 3.369,-1.18 0,-1.18 c -3.368,0 -5.679,2.383 -5.679,5.631 0,3.249 2.311,5.631 5.679,5.631" />
                </g>
                <g
                   id="g4202"
                   transform="translate(669.7568,341.2344)">
                  <path
                     inkscape:connector-curvature="0"
                     id="path4204"
                     style="fill:#231f20;fill-opacity:1;fill-rule:nonzero;stroke:none"
                     d="m 0,0 1.252,0 0,-3.008 4.354,0 0,-1.179 -4.354,0 0,-5.341 c 0,-2.118 0.697,-3.273 2.43,-3.273 0.721,0 1.347,0.288 1.732,0.577 L 5.823,-13.21 C 5.318,-13.619 4.428,-13.98 3.394,-13.98 0.986,-13.98 0,-12.488 0,-9.721 L 0,0 Z" />
                </g>
                <g
                   id="g4206"
                   transform="translate(683.8086,328.3613)">
                  <path
                     inkscape:connector-curvature="0"
                     id="path4208"
                     style="fill:#231f20;fill-opacity:1;fill-rule:nonzero;stroke:none"
                     d="M 0,0 C 2.551,0 4.355,1.828 4.355,4.451 4.355,7.05 2.551,8.903 0,8.903 -2.502,8.903 -4.355,7.074 -4.355,4.451 -4.355,1.853 -2.526,0 0,0 M 0,10.082 C 3.369,10.082 5.679,7.7 5.679,4.451 5.679,1.203 3.369,-1.18 0,-1.18 c -3.368,0 -5.679,2.383 -5.679,5.631 0,3.249 2.311,5.631 5.679,5.631" />
                </g>
                <g
                   id="g4210"
                   transform="translate(701.7812,329.9492)">
                  <path
                     inkscape:connector-curvature="0"
                     id="path4212"
                     style="fill:#231f20;fill-opacity:1;fill-rule:nonzero;stroke:none"
                     d="m 0,0 0,6.521 c -1.011,0.578 -2.069,0.794 -3.08,0.794 -2.671,0 -4.645,-1.998 -4.645,-4.5 0,-2.647 1.709,-4.403 4.332,-4.403 1.396,0 2.791,0.817 3.393,1.588 m -3.706,-7.556 c -2.117,0 -3.489,0.867 -4.019,1.276 l 0.626,0.986 c 0.626,-0.457 1.877,-1.083 3.465,-1.083 2.166,0 3.634,1.107 3.634,3.778 l 0,1.227 c -0.866,-0.817 -2.238,-1.396 -3.537,-1.396 -3.345,0 -5.511,2.214 -5.511,5.631 0,3.153 2.551,5.631 5.992,5.631 1.636,0 3.224,-0.481 4.307,-1.179 l 0,-9.794 c 0,-3.633 -2.142,-5.077 -4.957,-5.077" />
                </g>
                <g
                   id="g4214"
                   transform="translate(707.8184,338.2266)">
                  <path
                     inkscape:connector-curvature="0"
                     id="path4216"
                     style="fill:#231f20;fill-opacity:1;fill-rule:nonzero;stroke:none"
                     d="m 0,0 1.251,0 0,-1.443 c 0.602,0.914 1.492,1.635 2.911,1.635 0.891,0 1.324,-0.143 1.685,-0.408 l -0.433,-1.18 c -0.529,0.313 -0.818,0.41 -1.517,0.41 -1.418,0 -2.141,-0.891 -2.646,-1.757 l 0,-8.085 -1.251,0 L 0,0 Z" />
                </g>
                <g
                   id="g4218"
                   transform="translate(722.9043,330.1416)">
                  <path
                     inkscape:connector-curvature="0"
                     id="path4220"
                     style="fill:#231f20;fill-opacity:1;fill-rule:nonzero;stroke:none"
                     d="m 0,0 0,1.805 c -0.794,0.577 -1.709,0.866 -2.815,0.866 -1.42,0 -2.913,-0.674 -2.913,-2.262 0,-1.347 1.06,-2.117 2.407,-2.117 1.829,0 2.719,0.914 3.321,1.708 m -6.208,7.315 c 1.011,0.625 2.165,0.987 3.44,0.987 3.008,0 4.019,-1.588 4.019,-4.331 l 0,-6.714 -1.251,0 0,1.66 c -0.674,-0.914 -1.732,-1.805 -3.706,-1.805 -1.997,0 -3.345,1.251 -3.345,3.225 0,2.166 1.781,3.369 4.115,3.369 0.867,0 2.07,-0.192 2.936,-0.818 0,2.574 -0.145,4.235 -2.84,4.235 -1.275,0 -2.069,-0.313 -3.031,-0.843 l -0.337,1.035 z" />
                </g>
                <g
                   id="g4222"
                   transform="translate(729.9521,335.5801)">
                  <path
                     inkscape:connector-curvature="0"
                     id="path4224"
                     style="fill:#231f20;fill-opacity:1;fill-rule:nonzero;stroke:none"
                     d="m 0,0 0,-6.232 c 1.131,-0.747 2.214,-0.987 3.369,-0.987 2.622,0 4.331,1.901 4.331,4.548 0,2.574 -1.468,4.356 -4.066,4.356 C 2.117,1.685 0.698,0.891 0,0 M -1.251,2.646 0,2.646 0,1.203 c 0.818,0.962 2.406,1.66 3.971,1.66 3.128,0 5.052,-2.261 5.052,-5.462 0,-3.297 -2.189,-5.799 -5.558,-5.799 -1.323,0 -2.574,0.264 -3.465,0.915 l 0,-5.511 -1.251,0 0,15.64 z" />
                </g>
                <g
                   id="g4226"
                   transform="translate(742.9922,344.2422)">
                  <path
                     inkscape:connector-curvature="0"
                     id="path4228"
                     style="fill:#231f20;fill-opacity:1;fill-rule:nonzero;stroke:none"
                     d="m 0,0 1.251,0 0,-7.483 c 0.842,0.938 2.406,1.66 3.898,1.66 2.936,0 4.524,-1.468 4.524,-4.861 l 0,-6.16 -1.251,0 0,5.968 c 0,2.599 -1.155,3.874 -3.562,3.874 -1.467,0 -2.911,-0.794 -3.609,-1.66 l 0,-8.182 -1.251,0 L 0,0 Z" />
                </g>
                <g
                   id="g4230"
                   transform="translate(762.167,327.3984)">
                  <path
                     inkscape:connector-curvature="0"
                     id="path4232"
                     style="fill:#231f20;fill-opacity:1;fill-rule:nonzero;stroke:none"
                     d="m 0,0 c -1.589,-3.874 -2.6,-4.812 -4.067,-4.812 -0.698,0 -1.276,0.216 -1.853,0.553 l 0.409,0.962 c 0.409,-0.192 0.842,-0.36 1.276,-0.36 1.106,0 1.9,0.889 2.815,3.08 L -1.18,0 l -5.341,10.828 1.492,0 3.705,-7.651 0.77,-1.685 c 0.168,0.553 0.385,1.131 0.602,1.733 l 2.911,7.603 1.42,0 L 0,0 Z" />
                </g>
              </g>
            </g>
          </g>
        </g>
      </g>
    </g>
  </g>
</svg>
