<?xml version="1.0" encoding="UTF-8" standalone="no"?>
<!-- Created with Inkscape (http://www.inkscape.org/) -->

<svg
  
   xmlns="http://www.w3.org/2000/svg"
   viewBox="0 0 208.32038 29.999998"
   id="svg2"
   version="1.1">
  
  <g
     inkscape:label="Layer 1"
     inkscape:groupmode="layer"
     id="layer1"
     transform="translate(-162.38679,-337.72369)">
    <path
       style="fill:#969696"
       d="m 228.79687,365.01272 c -0.56689,-1.49103 -0.77218,-3.74103 -0.4562,-5 0.70511,-2.80935 0.0848,-2.86554 -3.19072,-0.28903 -4.45575,3.5049 -8.26734,1.70866 -6.71993,-3.16681 0.50299,-1.58476 -0.16016,-1.40405 -4.16281,1.13435 -4.21672,2.67417 -4.99717,2.86524 -6.82562,1.67108 -1.51682,-0.99063 -2.67269,-1.07597 -4.35702,-0.32169 -1.76808,0.79179 -2.65516,0.66397 -3.8779,-0.55877 -1.4472,-1.4472 -1.93601,-1.33142 -5.60753,1.32822 -2.21218,1.60249 -4.50908,2.91362 -5.10423,2.91362 -0.59516,0 0.70986,-1.18907 2.90003,-2.64239 2.19018,-1.45331 4.99401,-3.55616 6.23074,-4.673 1.4488,-1.30834 3.91925,-2.12492 6.94557,-2.29576 5.86906,-0.33131 6.47113,0.0462 5.23964,3.28524 -0.54437,1.43181 -0.82173,2.77132 -0.61635,2.9767 0.20538,0.20538 3.70547,-1.87144 7.77798,-4.61517 7.62678,-5.1383 11.5172,-6.20864 12.57236,-3.45892 0.43068,1.12232 1.43326,0.0417 3.47905,-3.75 3.0605,-5.67235 7.03823,-9.8267 9.40891,-9.8267 2.97652,0 1.30821,3.81142 -5.1453,11.755 -2.97328,3.65979 -4.64298,6.92495 -5.50037,10.75616 -0.67711,3.02564 -0.9757,5.75657 -0.66353,6.06874 0.82905,0.82905 6.39722,-2.23884 13.25344,-7.30225 5.46008,-4.03234 5.64005,-4.1002 2,-0.75413 -5.90903,5.43179 -12.07859,9.47648 -14.45493,9.47648 -1.35754,0 -2.45725,-0.95392 -3.12528,-2.71097 z m 0.24664,-10.96713 c -0.83209,-4.54464 -3.86983,-3.72992 -6.73237,1.80561 -2.37636,4.59538 -1.68201,5.22316 2.81594,2.54593 2.93857,-1.74906 4.14707,-3.09183 3.91643,-4.35154 z m -23.66643,1.6781 c 1.59753,-1.76525 1.61985,-2 0.19017,-2 -0.89089,0 -2.10147,0.9 -2.69017,2 -0.5887,1.1 -0.67428,2 -0.19017,2 0.48411,0 1.69468,-0.9 2.69017,-2 z m 34.56605,-11.24988 c 1.61367,-2.22761 2.93395,-4.50242 2.93395,-5.05515 0,-1.78586 -4.15474,2.69124 -6.18007,6.65957 -2.40418,4.71066 -0.72856,3.88247 3.24612,-1.60442 z m -57.57227,17.6008 c -0.90699,-0.90699 -1.43126,-2.48199 -1.16505,-3.5 0.62592,-2.3935 0.57939,-2.38279 -4.98978,1.14908 -8.27848,5.25006 -12.60966,3.14469 -8.59786,-4.1794 1.56528,-2.85762 1.75049,-3.8206 0.73485,-3.8206 -0.74685,0 -1.63453,0.44758 -1.97262,0.99462 -0.33809,0.54705 -1.60215,1.47083 -2.80901,2.05286 -1.71764,0.82836 -1.59693,0.54983 0.55569,-1.28218 1.5125,-1.28724 2.75,-3.14061 2.75,-4.11861 0,-2.96974 1.95248,-5.64669 4.11852,-5.64669 1.21629,0 1.86199,0.50768 1.58981,1.25 -0.25208,0.6875 -0.86815,1.16964 -1.36904,1.07143 -1.43617,-0.2816 -1.09313,4.06538 0.4106,5.20319 1.12146,0.84856 1.01172,1.78944 -0.63872,5.47582 -1.09608,2.44816 -1.84312,4.60094 -1.6601,4.78396 0.80949,0.8095 7.54509,-2.90768 13.00812,-7.1788 3.27756,-2.56246 6.57686,-4.42201 7.33179,-4.13231 0.75493,0.28969 1.80162,0.52671 2.32599,0.52671 1.93749,0 -1.23434,3.99135 -3.65454,4.59879 -2.89435,0.72643 -4.29911,4.68815 -2.45165,6.9142 1.79279,2.16018 -1.33906,2.01587 -3.517,-0.16207 z m 7.50622,-8.85092 c 0.69443,-0.83674 0.80272,-1.5 0.24489,-1.5 -0.55,0 -1.5602,0.675 -2.24489,1.5 -0.69443,0.83674 -0.80272,1.5 -0.24489,1.5 0.55,0 1.5602,-0.675 2.24489,-1.5 z m 114.66667,9.83333 c -1.12683,-1.12683 -0.74384,-4.28343 0.90707,-7.47592 0.86555,-1.6738 1.36788,-3.24912 1.11629,-3.50072 -0.2516,-0.25159 -3.40384,2.04216 -7.00499,5.09723 -5.83601,4.95104 -6.61494,5.3423 -7.16781,3.60036 -0.34116,-1.07488 0.11109,-3.36863 1.00498,-5.09723 0.89389,-1.7286 1.42681,-3.34136 1.18426,-3.58392 -0.49029,-0.49028 -10.15904,6.93209 -11.1782,8.58113 -1.14042,1.84523 -3.52827,1.12237 -3.52827,-1.06811 0,-1.16261 0.98003,-3.85758 2.17785,-5.98881 1.19782,-2.13123 1.88197,-4.17085 1.52033,-4.53249 -0.36164,-0.36164 -2.57064,0.64582 -4.90889,2.23881 -5.76204,3.92552 -6.78929,4.55366 -6.78929,4.15152 0,-0.18932 2.18653,-2.01168 4.85895,-4.04969 5.69843,-4.34568 10.14455,-4.9842 10.13489,-1.45549 -0.003,1.2375 -0.6517,3.4875 -1.4407,5 -1.68553,3.23115 -0.64166,3.61028 1.97608,0.71771 2.98563,-3.29908 8.09927,-6.0475 9.9386,-5.34168 1.6452,0.63132 1.64382,1.56916 -0.009,5.87397 -0.65043,1.69444 -0.32401,1.59852 2.13655,-0.62781 8.0808,-7.31159 13.30263,-5.37768 8.83053,3.2704 -0.86555,1.6738 -1.327,3.29001 -1.02543,3.59157 0.30157,0.30157 2.92225,-1.22388 5.82374,-3.38989 7.13643,-5.32746 11.94139,-7.34134 17.55936,-7.35958 5.7177,-0.0186 7.06912,-0.78331 8.07581,-4.56992 0.51005,-1.91855 1.5209,-3.02399 2.95758,-3.23432 2.57485,-0.37697 2.77425,0.98707 0.62402,4.26873 -1.45568,2.22165 -1.42458,2.42136 0.4708,3.02293 2.02729,0.64344 2.02735,0.64803 0.0587,4.3212 -2.99862,5.59478 -2.66254,6.52256 1.70211,4.6989 2.02009,-0.84405 5.50759,-3.03013 7.75,-4.85796 2.2424,-1.82783 5.057,-3.84167 6.25466,-4.4752 2.13958,-1.13163 5.32275,-0.65739 5.32275,0.79295 0,1.10186 -3.48876,4.048 -4.79356,4.048 -1.61178,0 -3.31337,3.55777 -2.59587,5.42756 0.87253,2.27375 1.53692,2.05642 9.07622,-2.96893 6.12103,-4.08 6.40683,-4.18302 2.81321,-1.0141 -5.83792,5.14799 -10.1735,7.02526 -13.12213,5.68178 -1.59175,-0.72525 -2.37787,-1.91984 -2.37787,-3.61342 l 0,-2.52999 -5.33086,3.00855 c -2.93197,1.6547 -6.25882,3.00855 -7.39301,3.00855 -3.63106,0 -3.86372,-4.29911 -0.44776,-8.27363 0.93255,-1.08503 1.16472,-2.12803 0.598,-2.68647 -1.35639,-1.33658 -8.34383,1.12468 -8.99217,3.16741 -0.29864,0.94093 -2.32902,3.12536 -4.51196,4.85428 -3.05414,2.41892 -4.56469,2.99398 -6.55338,2.49485 -2.09319,-0.52535 -2.49523,-1.11504 -2.1153,-3.10254 0.258,-1.34964 0.2795,-2.4539 0.0478,-2.4539 -0.23173,0 -2.48404,1.575 -5.00513,3.5 -4.38714,3.34983 -7.1921,4.27078 -8.62954,2.83333 z m 23.09802,-5.76406 c 3.35245,-3.07909 3.54201,-3.50539 1.84939,-4.15915 -2.41473,-0.93266 -4.63783,0.48805 -6.95613,4.44545 -1.63457,2.79025 -1.66107,3.14443 -0.23532,3.14443 0.88371,0 3.28763,-1.54383 5.34206,-3.43073 z m 34.86408,-5.27383 c -0.82426,-0.82426 -3.62877,0.49605 -3.62877,1.70836 0,0.73956 0.63946,0.72434 2.08565,-0.0496 1.1471,-0.61391 1.84151,-1.36034 1.54312,-1.65872 z"
       id="path4147"
       />
  </g>
</svg>
