<svg style="position: absolute; width: 0; height: 0;" width="0" height="0" version="1.1" xmlns="http://www.w3.org/2000/svg" xmlns:xlink="http://www.w3.org/1999/xlink">
<defs>
<symbol id="dog-readmore" viewBox="0 0 5233 1024">
<title>readmore</title>
<path class="path1" d="M2162.561 1020.443c-37.081-8.221-87.976-64.196-100.498-110.529-6.834-25.284-6.809-44.939 0.091-74.952 5.146-22.375 7.894-42.144 6.107-43.93s-14.532 6.244-28.323 17.848c-13.791 11.604-30.035 17.965-33.299 21.098l-22.168 21.281c-10.906 16.645-70.558 52.127-95.901 57.043l-13.234 6.594c-4.995 3.184-22.581 2.062-39.080-2.494-41.246-11.389-66.548-48.292-62.465-91.107 1.723-18.057-1.446-35.846-3.315-32.83l-6.446 10.402c-5.129 8.276-85.247 69.16-119.067 82.999l-29.059 22.377c-7.577 8.868-21.248 17.27-30.381 18.67l-20.84 8.114c-3.585 1.396-14.022 8.025-25.986 11.028-17.88 4.487-27.625-0.299-54.752-26.889-40.857-40.048-49.394-76.196-30.876-130.74 7.291-21.478 11.894-40.413 10.228-42.080s-14.077 6.53-27.58 18.214c-13.503 11.684-50.704 38.149-82.67 58.813s-59.364 40.844-60.886 44.844c-1.523 4-8.392 4.325-13.513 7.273l-20.575 11.844c-12.732 15.341-49.054 3.566-75.353-24.427-14.842-15.798-17.766-26.113-13.993-49.359 2.623-16.163 2.72-29.387 0.216-29.387s-21.884 14.18-43.068 31.512c-59.15 48.396-121.185 74.546-138.078 84.725l-20.98 12.642c-20.579 6.089-26.030 11.444-72.844-9.707-39.567-17.876-78.55-74.723-74.605-108.794 1.772-15.308-0.648-26.953-5.587-26.914-4.791 0-33.783 23.882-64.425 52.984-35.804 34.004-79.83 65.022-123.195 86.797-157.346 112.308-192.813-121.593-117.344-222.877 68.518-89.583 72.783-102.844 52.045-161.847-9.288-26.427-18.61-49.772-20.716-51.878-3.731-3.731-66.097 26.563-166.815 81.030-139.898 75.655-184.042 104.875-258.486 171.096-71.412 63.524-98.626 113.125-91.318 166.441 4.483 32.711-4.651 53.717-17.689 40.679-12.164-12.165-4.035-93.248 12.546-125.133 30.948-59.514 142.208-157.94 238.239-210.761 13.958-7.677 40.323-23.439 58.589-35.027s72.441-40.573 120.389-64.41c107.981-53.683 106.752-52.695 140.514-113.001 35.35-63.143 95.828-133.379 125.39-145.625 35.167-14.566 68.248-7.718 71.631 14.829 2.725 18.164-36.313 80.701-46.996 84.894-3.148 1.236 5.807-4.45-14.176 13.816s-67.356 52.606-70.677 52.606c-9.115 0-31.385 36.846-35.648 58.979-2.069 10.743 3.79 39.716 13.019 64.384 14.177 37.892 15.29 49.367 7.174 73.959-9.121 27.64-43.036 83.786-56.229 93.090-8.047 5.675-52.758 80.89-65.735 110.583-23.79 54.432-1.137 113.771 43.431 113.771 28.849 0 113.741-46.337 166.44-90.85 27.399-23.142 65.626-53.938 84.95-68.435s38.991-37.829 43.705-51.849c4.713-14.021 20.141-38.569 34.283-54.552s33.705-38.401 43.473-49.817c20.732-24.231 89.177-74.967 127.359-94.406 14.614-7.441 39.913-13.528 56.221-13.528 55.909 0 58.705 55.782 5.738 114.447-12.16 13.468-61.944 45.688-110.631 71.601-96.833 51.538-101.677 55.588-110.131 92.092-13.806 59.608-14.418 72.169-4.671 95.702 20.151 48.646 76.514 41.549 165.962-20.898 29.682-20.722 71.516-49.031 92.964-62.909 21.778-14.090 49.681-42.451 63.194-64.229 34.379-55.406 125.081-143.353 176.971-171.595 54.529-29.679 121.031-46.116 147.281-36.406 22.26 8.235 46.103 34.876 59.581 66.573l9.401 22.11 34.569-15.477c52.395-23.458 57.192-6.898 11.498 39.693-44.109 50.517-91.152 103.519-117.142 156.102-27.13 55.405-35.641 117.767-18.937 138.738 10.741 13.485 14.296 13.622 48.023 1.857 20.033-6.988 38.503-19.347 44.726-23.57l49.816-33.807c55.721-37.814 79.966-49.897 181.77-149.758 49.743-48.793 103.918-97.181 120.389-107.529 36.856-23.152 119.764-54.62 143.908-54.62 25.21 0 72.357 33.826 78.113 56.043 2.663 10.275 6.313 18.681 8.113 18.681 4.708 0 62.112-64.265 84.52-94.621 10.462-14.172 51.56-61.177 91.329-104.456s96.334-104.926 125.699-136.994c87.89-95.981 100.56-107.544 195.69-178.581 127.778-95.418 176.463-117.161 233.901-104.46 23.957 5.297 44.238 35.169 44.238 65.158 0 28.377-93.178 133.374-109.108 147.124l-46.609 40.23c-23.444 20.236-50.668 46.057-64.443 53.179s-38.061 26.341-53.967 42.709c-15.907 16.368-32.24 29.799-36.296 29.848-7.44 0.091-119.292 82.565-150.269 110.803-9.192 8.378-27.92 21.027-41.62 28.108-16.458 12.629-29.713 26.855-45.203 35.533-3.859 0-39.668 22.28-79.575 49.512-82.444 56.258-141.661 128.871-171.421 210.201-9.659 26.398-20.757 49.97-24.66 52.382s-3.347 12.471-7.097 20.502l-7.526 16.115c-3.257 6.975-5.358 16.955 8.828 63.949 17.361 57.513 114.253 47.666 214.567-21.804 57.424-39.767 153.705-146.896 162.867-181.215 6.068-22.734 19.792-24.743 19.792-2.898 0 30.333-83.582 128.554-165.544 194.539-25.189 20.278-114.664 60.516-145.807 65.57-13.699 2.223-37.985 1.142-53.967-2.401zM1915.763 874.487c23.784-12.052 47.011-26.334 51.615-31.738 23.424-27.486 123.066-96.71 127.914-88.866 3.484 5.637 9.833 6.018 17.672 1.060 10.206-6.454 9.758-7.758-2.693-7.864-12.924-0.108-11.669-4.865 9.349-35.413 13.353-19.408 25.11-39.023 26.126-43.589s5.533-15.189 10.038-23.605c12.143-22.689 1.22-53.302-23.671-66.343-26.771-14.027-76.628-4.995-104.449 18.922-51.19 44.005-63.832 57.265-87.501 91.784-14.090 20.549-36.696 50.033-50.235 65.519-25.541 29.215-53.649 109.32-45.663 130.133 6.556 17.084 22.44 14.863 71.499-9.998zM1278.326 846.114c9.133-8.030 39.744-28.078 68.025-44.549s56.307-34.563 62.281-40.205c5.974-5.642 29.538-24.876 52.364-42.742 72.194-56.508 120.377-107.012 120.377-126.176 0-25.881-40.996-69.663-65.231-69.663-45.012 0-87.267 21.095-139.866 69.825-29.761 27.572-57.491 57.7-61.624 66.953s-14.812 28.031-23.732 41.73c-32.798 50.374-70.724 148.451-62.532 161.707 6.013 9.729 28.207 2.227 49.936-16.88zM975.278 672.546c2.283-3.245 28.905-19.649 59.16-36.455 99.342-55.183 136.392-146.742 49.27-121.756-28.081 8.054-97.986 83.303-108.43 96.706l-14.53 18.646c-5.584 7.167-21.512 19.794-30.047 34.379l-15.517 26.52 27.971-6.071c15.384-3.339 29.839-8.725 32.122-11.969zM2367.006 558.379c22.265-12.386 47.726-29.199 56.579-37.362 17.080-13.636 37.136-24.005 51.11-36.417 13.268-11.865 39.074-31.48 57.346-43.589 54.428-36.066 132.35-95.886 139.471-107.068 3.652-5.735 18.532-16.578 33.069-24.094 57.198-29.578 185.505-150.711 217.542-205.378 18.502-31.571 20.050-39.4 11.499-58.166-7.123-15.634-16.175-21.685-32.442-21.685-43.908 0-83.648 22.788-155.654 89.254-16.078 14.841-32.545 26.984-36.592 26.984-11.077 0-112.855 106.85-142.118 149.2-76.3 55.256-127.289 147.571-180.044 204.569-39.202 42.023-71.444 86.273-62.861 86.273 1.437 0 20.831-10.133 43.097-22.519zM705.595 319.518c29.598-29.597 53.814-57.619 53.814-62.27s-11.209-8.456-24.908-8.456c-13.699 0-21.665 5.17-24.908 8.653-7.863 8.445-7.227 5.864-33.001 36.188-16.071 18.909-41.723 69.794-41.723 74.754 0 14.843 22.7-0.842 70.726-48.869zM4512.693 974.718c-43.646-39.431-50.215-89.259-19.631-148.89 11.71-22.832 23.787-43.381 26.838-45.665 14.981-11.214 83.614-108.076 83.385-117.682-0.141-6.055-9.546-21.563-20.891-34.461l-20.629-23.452-34.712 25.527c-19.091 14.040-37.864 25.527-41.715 25.527s-17.127 7.325-29.499 16.277c-21.366 15.459-49.441 23.035-90.993 24.554-10.275 0.374-18.681 5.788-18.681 12.028 0 13.415-115.699 120.055-124.026 129.8-22.19 28.964-56.618 48.974-89.64 49.816-24.088 0-35.576-6.406-61.13-34.086-17.308-18.747-33.843-44.901-36.746-58.119-5.202-23.683-20.55-33.865-20.581-13.655 0 5.708-18.453 22.944-40.986 38.301s-42.907 32.973-45.275 39.145c-7.384 19.241-117.999 69.926-152.608 69.926-42.439 0-93.222-48.992-93.222-89.935 6.791-36.376 64.797-133.247 83.936-153.132 82.217-84.779 92.916-102.067 84.691-136.848-4.427-18.718-12.931-32.036-21.514-33.689-38.913-7.494-135.338 68.813-244.68 193.629-23.98 27.373-50.133 57.136-58.119 66.139-22.118 24.939-87.963 108.506-99.225 125.934-9.511 14.716-10.774 14.465-26.697-5.31-42.534-52.822-41.252-88.907 5.748-161.823 38.467-59.679 84.059-153.218 76.85-157.673-10.126-6.258-33.805 3.801-62.524 26.559-66.447 52.656-92.141 74.799-111.634 96.205-77.719 85.342-221.39 221.64-233.63 221.64-17.706 0-49.113-37.736-49.113-59.011 0-24.34 38.717-99.272 74.614-144.404 18.16-22.832 46.642-61.053 63.293-84.935s32.599-41.986 35.438-40.231c2.84 1.755 5.74-4.859 6.445-14.697s3.935-33.283 7.176-52.098c3.8-22.054 2.639-36.221-3.265-39.87-14.387-8.892-68.211 19.486-106.9 56.36-19.408 18.498-35.286 30.286-35.286 26.198s-10.798 2.913-23.997 15.558c-15.324 14.682-26.024 19.711-29.606 13.915-14.869-24.058 137.874-133.431 186.34-133.431 24.177 0 56.016 31.292 61.481 60.424 5.85 31.182-13.707 106.591-32.523 125.407-6.736 6.736-12.247 14.778-12.247 17.871s-28.455 45.392-63.233 93.999c-68.348 95.522-83.781 122.634-74.879 131.536 3.152 3.153 70.099-59.445 148.772-139.105 102.047-103.327 158.439-153.758 196.769-175.97 60.191-34.88 65.096-35.961 87.805-19.335 12.956 9.486 15.959 21.288 15.312 60.194-0.697 42.197-6.371 58.32-44.274 125.893-43.484 77.524-50.366 106.9-15.148 64.66 10.292-12.344 40.197-45.294 66.454-73.222s47.74-53.245 47.74-56.261c0-3.016 25.219-30.892 56.043-61.945 87.229-87.88 176.351-138.753 210.787-120.323 8.862 4.742 25.437 29.008 36.833 53.923l20.721 45.3-22.353 39.336c-12.294 21.634-38.003 56.149-57.131 76.698-50.386 54.131-90.038 135.603-83.348 171.26 4.67 24.894 8.208 28.001 31.861 27.973 14.634 0 38.841-7.49 53.792-16.605s31.764-16.613 37.362-16.66c5.598-0.083 24.744-12.19 42.546-26.984 82.535-68.586 121.382-110.065 141.404-150.988 31.37-64.118 101.096-133.688 146.146-145.818 19.933-5.368 51.117-22.492 69.298-38.054s38.923-28.603 46.092-28.978c7.169-0.374 23.075-2.341 35.344-4.366 15.704-2.592 27.616 1.912 40.227 15.212 15.855 16.72 17.49 25.876 14.196 79.531-2.047 33.35-8.007 64.921-13.244 70.158-17.221 17.221-9.978 25.052 18.842 20.376 15.6-2.531 54.821-22.033 87.158-43.337l58.795-38.734-5.172-32.343c-5.183-32.414 0.183-45.967 36.897-93.196 47.407-60.984 121.013-113.764 158.653-113.764 20.827 0 36.811 28.521 30.368 54.189-5.438 21.669-96.001 117.929-131.453 139.724-27.753 17.061-29.485 42.199-6.227 90.338 9.133 18.904 16.605 42.306 16.605 52.007 0 23.205-30.874 86.684-53.027 109.024-32.831 33.11-69.657 90.165-75.271 116.618-3.757 17.702-1.093 35.089 8.098 52.862 12.476 24.128 16.339 26.055 43.401 21.663 41.599-6.75 114.32-45.129 151.363-79.883 31.089-29.167 104.277-91.691 117.297-100.207 3.752-2.453 11.001-23.95 16.11-47.77 18.825-87.777 114.11-182.651 212.753-211.834 113.406-33.551 141.591 27.29 51.584 111.349-23.632 22.070-46.163 38.152-50.070 35.738l-7.103 4.473c-4.124 2.597-31.231 23.291-69.402 40.926-58.134 26.858-70.377 35.946-75.403 55.974-3.301 13.15-5.936 24.774-5.858 25.831 0.083 1.057-3.121 13.304-7.11 27.216-8.838 30.816 3.705 71.588 25.634 83.324 8.558 4.581 25.913 5.972 38.564 3.093 36.963-8.414 121.352-38.798 137.341-49.45 30.695-20.449 80.957-71.547 76.874-78.152-4.757-7.697 36.192-37.303 42.655-30.84 17.661 17.661-109.095 121.988-140.728 138.368l-21.449 11.106c-5.069 6.108-35.168 15.744-66.887 21.412-54.779 9.79-58.901 9.396-82.231-7.853-35.717-26.407-60.601-63.498-61.397-91.519-0.873-30.712-7.402-30.667-41.479 0.291-14.995 13.622-47.813 43.455-72.928 66.294s-52.203 41.584-60.194 41.655l-14.53 7.169c-9.756 4.814-60.412 35.566-94.871 38.769-25.662 2.385-36.205-1.942-62.404-25.611zM4195.937 840.357c17.122-17.124 42.11-40.476 55.53-51.892 28.896-24.582 78.127-81.093 78.007-89.543-0.083-3.266-15.082-12.238-33.412-19.937-33.908-14.243-57.832-51.275-57.832-89.518 0-9.279-3.615-16.872-8.034-16.872-12.214 0-83.611 100.682-100.092 141.145-4.65 11.416-11.902 28.229-16.115 37.362-11.575 25.090-18.938 84.295-12.864 103.433 4.072 12.831 12.473 16.956 34.532 16.956 22.616 0 36.129-6.979 60.281-31.135zM4987.345 722.075c14.951-9.116 31.887-16.588 37.635-16.605 30.165-0.091 121.352-88.541 131.030-127.098 5.266-20.982 3.874-22.379-22.267-22.35-51.365 0.083-120.289 56.437-172.27 140.916-28.618 46.512-21.125 53.792 25.872 25.137zM4350.485 674.176c28.258-20.347 48.95-147.909 26.954-166.164-16.907-14.032-59.436-4.271-85.124 19.536-16.916 15.678-20.875 27.19-20.875 60.716 0 58.068 10.837 82.039 39.007 86.277 12.794 1.925 25.131 4.004 27.415 4.618s7.964-1.628 12.623-4.983zM4695.845 469.34c53.59-57.057 67.733-77.3 61.293-87.721-8.065-13.049-15.911-10.133-49.167 18.273-25.463 21.75-71.213 92.52-71.213 110.158 0 14.014 21.786-0.996 59.087-40.71z"></path>
</symbol>
<symbol id="dog-thankyou" viewBox="0 0 2982 1024">
<title>thankyou</title>
<path class="path1" d="M1910.104 1019.812c-36.103-7.132-45.986-16.192-56.59-51.879-9.629-32.403-3.158-67.363 17.766-95.979 5.333-7.293 13.468-20.462 18.079-29.265 19.663-37.536 87.99-102.32 129.94-123.201 10.94-5.445 23.651-11.566 27.905-15.306 33.939-13.412 85.461-43.586 119.934-57.1l48.384-18.799 11.709-35.082c26.053-78.059 34.158-101.79 37.648-110.225 3.931-9.503-14.701 7.048-75.883 67.408-20.33 20.057-40.19 34.639-42.887 36.467l-16.305 11.051c-14.312 15.235-34.551 14.785-49.771-1.105-13.534-14.13-25.372-40.259-25.372-56.001 0-12.739 38.47-88.133 60.26-118.099 8.198-11.274 16.206-27.003 17.796-34.952l2.891-14.454-19.477 2.809c-45.708 6.593-49.066 8.888-101.94 69.683-53.519 61.535-75.654 91.351-72.094 97.11 1.212 1.962 0.181 4.816-2.288 6.343-2.554 1.579-4.456-1.627-4.408-7.43 0.115-13.853 19.324-43.078 55.733-84.788 16.708-19.14 36.193-42.498 43.301-51.907 9.107-12.056 20.203-19.88 37.572-26.497 55.376-21.095 81.435-15.143 86.675 19.797 2.592 17.28 0.626 24.143-17.426 60.862-11.191 22.762-26.301 52.103-33.579 65.203-15.375 27.675-18.945 69.302-6.358 74.132 9.694 3.72 51.134-25.453 88.76-62.486 17.348-17.074 44.298-42.979 59.89-57.565s36.495-38.536 46.452-53.221c19.027-28.061 25.057-34.226 37.987-38.843 15.822-5.649 12.641 10.982-11.062 57.839-13.212 26.117-26.543 57.431-29.626 69.586s-7.252 26.079-9.264 30.941c-6.942 16.774-17.593 52.336-16.117 53.811 4.474 4.474 58.276-28.524 99.814-61.218 20.447-16.093 33.765-30.833 42.122-46.618 6.722-12.696 20.957-31.136 31.635-40.978s19.413-19.62 19.413-21.73c0-2.109 8.952-12.916 19.894-24.015 33.58-34.063 78.196-47.204 107.976-31.805 25.83 13.357 23.413 41.517-8.6 100.22-11.64 21.343-11.296 22.105 6.595 14.63 21.717-9.074 55.195-32.773 68.348-48.384 24.14-28.65 46.658-46.412 58.841-46.412 6.686 0 12.157 2.128 12.157 4.729-4.918 15.046-26.794 45.537-32.883 51.334-3.846 6.001-14.909 25.942-33.871 50.022-14.845 18.853-30 62.46-27.057 77.855 2.927 15.312 11.505 17.549 31.948 8.33 24.396-11.001 97.056-77.74 110.363-101.369 21.746-38.614 70.244-77.641 96.483-77.641 16.14 0 13.361 5.863-17 35.865-16.906 16.706-30.739 31.517-30.739 32.912s-5.135 9.268-11.41 17.496c-14.008 18.366-23.141 64.73-16.981 86.207 2.284 7.964 9.532 18.496 16.107 23.405 11.011 8.221 13.901 8.49 36.613 3.407 19.075-4.269 32.123-11.523 57.621-32.036 49.566-39.873 74.126-73.179 63.451-86.042-3.017-3.635-3.264-6.070-0.618-6.070 8.266 0 15.339 13.11 12.715 23.566-3.427 13.653-63.042 74.454-89.378 91.156-11.346 7.195-31.131 15.433-43.967 18.305-21.179 4.74-24.712 4.375-38.172-3.944-26.853-16.596-41.465-38.855-46.961-71.54l-3.332-19.81-24.202 23.002c-43 40.867-54.843 49.953-71.733 55.030-22.695 6.822-35.172 0.323-47.24-24.605-11.973-24.732-9.281-52.513 7.967-82.246l11.496-19.816-13.179 9.249c-7.249 5.086-25.109 13.492-39.69 18.679s-27.272 11.714-28.202 14.504c-0.93 2.79-18.92 22.368-39.978 43.506-37.724 37.868-48.648 43.997-78.881 44.26-15.982 0.137-45.084-45.605-41.449-65.149 1.622-8.72-5.060-6.352-16.704 5.918-5.893 6.21-19.816 17.481-30.941 25.048s-21.263 15.256-22.528 17.088c-1.265 1.832-7.835 5.435-14.6 8.007-15.484 5.887-56.033 32.255-56.033 36.437 0 6.956-49.36 104.835-55.392 109.842-3.57 2.963-6.646 10.371-6.646 10.371-0.084 2.741-11.083 20.897-24.439 40.346s-31.674 46.302-40.707 59.673c-69.367 102.681-101.017 140.195-136.101 161.322-27.14 16.343-42.109 18.368-80.18 10.848zM1962.704 1013.174c27.969-9.53 53.894-36.098 92.799-95.101 31.693-48.064 87.561-142.257 87.561-147.626 0-1.385 9.194-17.665 20.432-36.177 22.348-36.815 47.587-89.713 44.349-92.952-1.123-1.123-10.112 2.075-19.975 7.107-20.464 4.928-36.674 17.548-53.647 21.983-14.010 4.015-25.146 12.793-36.467 17.824-7.901 3.462-23.537 11.904-34.745 18.76-24.080 8.87-45.908 25.987-65.453 36.59-19.761 10.219-91.218 82.268-99.486 100.312-7.46 16.279-16.456 31.262-20.829 34.692-5.087 3.989-16.014 33.694-19.088 51.89-3.703 21.917 3.467 50.272 16.532 65.379 5.625 6.504 19.201 13.892 31.895 17.356 29.259 7.984 32.591 7.982 56.121-0.044zM2461.348 586.858c10.463-2.99 26.486-16.026 49.698-40.433 18.841-19.811 34.257-37.716 34.257-39.789s-9.259-3.769-20.575-3.769c-18.255 0-22.473-1.994-37.395-17.681-9.251-9.724-18.391-17.581-20.311-17.459-2.94 0.186-16.091 26.175-32.323 63.871-11.459 26.614-9.286 59.673 3.922 59.673 4.007 0 14.234-1.986 22.727-4.413zM2578.238 451.781c24.443-50.584 24.592-67.685 0.664-76.337-18.897-6.833-51.956 2.66-73.381 21.072l-15.471 13.295 14.366-2.647c18.509-3.411 18.183 2.292-1.105 19.368-7.615 7.726-12.744 15.538-20.764 24.319-4.037 1.346-3.893 5.146 0.609 16.015 8.526 20.583 20.512 27.159 49.5 27.159h25.168zM1589.766 681.9c-76.985-16.215-130.504-70.656-155.836-158.521-5.222-18.113-10.045-26.573-16.044-28.142-11.342-2.966-11.104-10.031 0.265-7.842l8.855-1.359c0-1.684 7.738-3.15 17.179-3.259 20.668-0.239 43.046-15.865 61.623-43.032 14.378-21.026 25.988-50.138 21.704-54.422-5.349-5.349-58.514 23.851-80.444 44.183-12.053 11.175-23.443 20.318-25.309 20.318s-9.906 7.275-17.866 16.166c-7.96 8.892-25.413 27.549-38.784 41.462s-32.268 36.431-41.992 50.042c-9.724 13.61-19.955 24.789-22.733 24.841-11.472-7.635-14.936-43.692-10.547-52.696 9.944-19.492 9.006-22.198-3.534-10.197-4.445 4.254-12.938 11.714-18.873 16.576-58.88 48.24-84.55 48.432-124.811 0.931-17.509-20.657-17.58-20.892-11.986-39.562 6.324-21.107 24.757-49.158 51.037-77.665 19.476-21.126 37.514-48.602 37.549-57.197 0.044-7.997-17.794-6.78-35.51 2.424-21.547 11.195-37.025 20.337-39.611 23.398-1.216 1.439-14.884 13.862-30.373 27.608s-33.566 33.454-40.168 43.796c-30.773 48.205-97.563 106.799-103.033 90.389-3.267-9.8 5.514-43.569 14.674-56.433 10.74-15.083 4.361-17.064-12.789-3.972-65.279 49.834-96.491 57.566-133.306 33.022-15.21-10.14-28.609-35.447-28.67-54.148-0.057-17.009-3.628-24.35-7.428-15.263-3.427 8.194-77.767 70.27-90.257 75.366-10.816 4.414-16.101 4.445-25.524 0.15-12.769-5.818-29.348-29.002-29.348-41.041 0-9.281-8.695-4.85-32.153 16.384-9.175 8.305-31.718 22.532-50.095 31.614-26.315 13.006-36.526 15.93-48.068 13.764-18.288-3.431-34.136-15.675-46.79-36.148-8.937-14.461-9.331-17.76-4.626-38.783 3.956-17.677 12.255-31.889 35.974-61.606 42.376-53.091 40.71-68.92-5.685-54.013-12.736 4.092-31.112 12.637-40.837 18.989s-22.379 13.995-28.12 16.985c-12.1 6.3-89.487 76.398-122.899 111.323-21.469 22.441-23.12 23.332-27.626 14.912-7.235-13.519-5.836-23.239 6.142-42.688 15.438-25.065 13.687-29.312-4.101-9.945-8.373 9.117-17.856 16.576-21.073 16.576s-12.766 5.59-21.221 12.422c-22.735 18.372-44.435 30.428-61.127 33.963-19.521 4.133-49.321-4.513-67.306-19.527-13.34-11.137-14.333-13.844-14.006-38.208 0.497-37.147 29.802-97.519 84.541-174.165 44.51-62.325 71.431-107.812 66.633-112.591-6.034-6.008-137.308-5.004-153.688 1.177-6.527 2.462-16.97 5.58-23.207 6.926-10.767 2.325-22.607 10.372-41.156 27.972-12.307 11.676-29.481 50.763-26.765 60.912 2.366 8.84 2.366 8.84-4.844 0-5.201-6.378-6.671-14.758-5.274-30.086 3.183-34.938 35.776-62.538 86.563-73.304 24.454-5.184 161.629-7.292 173.677-2.669 4.616 1.771 12.491-4.875 24.66-20.813 9.833-12.878 21.608-27.393 26.167-32.255 8.566-9.137 49.213-57.964 66.757-80.192 28.724-36.393 40.033-47.048 47.070-44.348 5.959 2.287 2.601 8.623-18.512 34.935-14.184 17.678-30.599 39.104-36.476 47.613s-16.319 21.711-23.202 29.339c-6.884 7.628-21.439 26.524-32.345 41.992l-19.83 28.124 18.982 2.976c17.795 2.79 42.446 4.783 130.026 10.515l35.9 2.349 19.060-23.39c32.897-40.373 85.056-91.574 108.048-106.063 12.156-7.661 26.434-17.767 31.73-22.459 12.055-10.68 65.405-29.64 83.473-29.665 9.028 0 17.402 4.030 25.135 12.136 32.703 34.28 23.649 77.891-24.057 115.874-23.802 18.952-69.125 42.796-87.551 46.059-6.078 1.077-20.996 4.296-33.152 7.153s-38.965 5.729-59.576 6.381c-34.89 1.104-37.939 1.965-44.202 12.476-24.348 40.865-32.845 54.327-35.519 56.273-1.67 1.216-5.576 7.183-8.68 13.261-6.168 12.078-26.758 41.332-44.59 63.352-6.236 7.701-14.653 21.187-18.705 29.968s-10.386 18.474-14.077 21.537c-7.311 7.255-8.328 17.718-14.561 24.65-10.762 11.75-28.639 42.863-23.565 41.012 2.264-0.826 20.702-17.331 40.972-36.678 40.892-39.030 79.817-63.888 122.045-77.941 33.437-11.127 48.495-7.319 60.702 15.347 7.333 13.617 7.329 15.041-0.080 29.517-4.283 8.366-13.619 22.632-20.748 31.704-32.083 40.826-42.472 78.381-27.569 99.658 9.205 13.142 25.66 12.607 57.783-1.877 32.524-14.665 83.592-55.616 92.337-74.045 15.93-33.571 73.068-85.977 114-104.56 35.226-15.993 78.684-5.916 85.122 19.737l2.745 10.933 28.683-15.217c24.396-12.942 45.63-19.304 45.63-13.671 0 0.85-12.763 14.276-28.362 29.836-30.907 30.829-60.042 70.385-60.042 81.517 0 3.865-2.063 10.883-4.586 15.596-6.286 11.746 2.288 42.352 13.554 48.382 11.247 6.019 52.275-4.287 68.793-17.281 6.509-5.12 14.081-9.309 16.828-9.309 11.947 0 60.987-46.208 79.637-75.037 30.688-47.44 55.343-69.633 70.776-63.711 9.098 3.491 8.85 5.018-3.445 21.195-5.718 7.523-13.758 20.207-17.869 28.188-14.253 13.787-10.351 15.536-19.313 28.099-4.221 5.773-9.827 14.46-12.456 19.305s-10.285 18.27-17.013 29.834c-16.857 28.975-4.758 22.242 19.583-10.897 42.285-57.568 109.823-113.669 147.314-122.368 22.162-5.142 23.169-4.952 32.809 6.197 15.042 17.395 12.374 42.434-6.733 63.194-3.095 3.363-8.86 12.391-12.811 20.062s-11.633 19.914-17.073 27.208c-21.27 28.517-28.514 48.495-23.79 65.606 4.814 17.433 18.371 29.429 33.26 29.429 27.51 0 121.828-86.988 148.573-137.026 31.615-59.15 41.048-74.128 76.56-121.556 20.023-26.742 40.998-56.579 46.61-66.303 15.491-26.841 39.716-58.742 62.965-82.914 7.664-7.968 7.685-8.711 0.407-14.034-4.227-3.091-12.887-5.769-19.243-5.95s-20.462-3.596-31.347-7.59c-47.742-17.518-74.52-24.183-108.106-26.908-31.456-2.553-38.199-1.745-54.394 6.517-19.298 9.845-25.818 22.323-22.028 42.153 1.444 7.552 0.327 9.915-3.92 8.286-11.185-4.292-7.184-34.429 6.518-49.097 22.624-24.22 78.304-22.572 157.501 4.659 51.712 17.781 88.005 25.192 95.794 19.559 3.944-2.852 18.569-13.853 32.501-24.447 30.665-23.318 54.022-33.44 83.437-44.973 3.923-1.538 6.525-2.194 10.424-3.791 1.872-0.767 5.133-1.82 7.067-2.411 7.768-2.376 11.889-5.016 24.311-1.683 22.486 6.034 36.938 22.558 39.484 45.144 1.746 15.488 0.106 20.901-9.96 32.863-12.56 14.927-30.189 25.779-52.074 32.055-14.068 4.035-75.619-2.119-100.197-10.017-15.062-4.84-15.628-4.548-36.701 18.941-11.771 13.121-27.177 35.065-34.236 48.764s-15.449 27.623-18.645 30.941c-3.196 3.319-12.558 16.659-20.805 29.645s-17.329 25.946-20.183 28.8c-2.854 2.854-10.684 15.104-17.4 27.221s-16.304 24.328-18.401 29.011l-6.191 13.825c-1.539 3.436-3.894 8.15-6.223 12.011-4.053 6.719-9.47 11.538-13.439 19.327s-12.193 22.119-18.276 31.843c-6.084 9.724-10.733 21.976-13.598 25.416l-6.442 7.735c-1.374 1.65-3.905 2.984-3.905 6.63s1.062 6.63 2.359 6.63c2.857 0 26.975-24.357 29.206-29.496 1.818-4.189 61.283-52.493 81.151-65.919 7.293-4.929 27.962-15.324 45.931-23.1 33.23-14.38 38.672-14.231 50.141 1.379 5.958 8.11 3.448 26.355-5.778 41.992-10.528 17.846-34.74 37.666-55.065 53.043-3.236 2.448-6.899 4.291-10.51 6.139-8.233 4.213-14.216 8.436-25.364 11.243l-20.268 5.104 8.246 9.573c4.536 5.265 11.23 13.046 14.877 17.292s16.576 26.797 28.731 50.115c29.84 57.24 48.711 81.232 74.214 94.349 18.422 9.476 23.213 10.264 36.887 6.067 24.814-7.616 63.497-32.854 63.497-41.428 0-8.043 7.704-15.197 11.875-11.026 6.056 6.056-4.656 23.922-21.825 36.403-41.085 29.866-47.121 31.976-74.806 26.145zM211.16 506.972c44.008-23.025 62.909-35.224 77.019-49.712 7.628-7.831 21.429-17.944 28.193-25.203l14.366-15.415c0-2.448 10.594-19.355 23.493-37.572 71.008-100.279 117.768-172.692 112.582-174.346-3.102-0.989-33.264-3.039-67.027-4.555s-71.556-4.715-83.984-7.11c-19.7-3.795-23.325-3.341-28.281 3.545-9.23 12.826-53.988 81.886-53.988 83.302 0 0.715-10.055 16.484-22.343 35.041-28.207 42.594-64.448 114.792-70.248 139.946-11.299 49-0.526 73.601 29.744 67.922 8.739-1.639 26.952-8.769 40.473-15.843zM733.893 501.977c65.437-54.007 127.686-114.285 124.035-120.107-1.717-2.739-3.369-6.968-3.671-9.4s-0.851-6.587-1.222-9.236c-0.926-6.621-20.661-15.079-35.138-15.059-16.769 0.044-35.262 12.431-66.916 44.897-32.263 33.091-53.232 73.36-56.23 107.984-2.683 30.981 2.569 31.105 39.141 0.921zM610.909 184.683c57.364-14.798 79.781-33.334 107.823-89.153 27.998-55.732 24.796-72.52-12.503-65.552-31.148 1.894-39.796 19.518-58.279 29.217-21.855 11.302-124.343 117.189-130.996 135.342-2.333 6.364 53.979 0.458 93.954-9.854zM1693.45 152.004c28.577-12.227 41.72-34.658 39.167-66.848-1.102-13.899-18.020-19.396-39.853-12.949-10.172 3.004-19.509 5.53-20.748 5.615-5.902 0.402-46.407 28.387-67.474 46.616-26.39 22.835-26.152 23.233 17.295 28.858 43.118 5.583 56.094 5.348 71.613-1.291z"></path>
</symbol>
</defs>
</svg>
